<svg xmlns="http://www.w3.org/2000/svg" xmlns:xlink="http://www.w3.org/1999/xlink" width="500" zoomAndPan="magnify" viewBox="0 0 375 374.999991" height="500" preserveAspectRatio="xMidYMid meet" version="1.0"><defs><filter x="0%" y="0%" width="100%" height="100%" id="7fa8eb7729"><feColorMatrix values="0 0 0 0 1 0 0 0 0 1 0 0 0 0 1 0 0 0 1 0" color-interpolation-filters="sRGB"/></filter><g/><mask id="c72da112cd"><g filter="url(#7fa8eb7729)"><rect x="-37.5" width="450" fill="#000000" y="-37.499999" height="449.999989" fill-opacity="0.69"/></g></mask><clipPath id="98d54a2283"><path d="M 74 7 L 158 7 L 158 192 L 74 192 Z M 74 7 " clip-rule="nonzero"/></clipPath><clipPath id="2902d393d4"><path d="M 1.535156 72.320312 L 77.265625 0.675781 L 219.007812 150.503906 L 143.273438 222.148438 Z M 1.535156 72.320312 " clip-rule="nonzero"/></clipPath><clipPath id="467e2c9202"><path d="M 1.535156 72.320312 L 77.265625 0.675781 L 219.007812 150.503906 L 143.273438 222.148438 Z M 1.535156 72.320312 " clip-rule="nonzero"/></clipPath><clipPath id="4a52a04920"><path d="M 118 155 L 181 155 L 181 207 L 118 207 Z M 118 155 " clip-rule="nonzero"/></clipPath><clipPath id="fc1f0b661f"><path d="M 1.535156 72.320312 L 77.265625 0.675781 L 219.007812 150.503906 L 143.273438 222.148438 Z M 1.535156 72.320312 " clip-rule="nonzero"/></clipPath><clipPath id="8f9f5f4c51"><path d="M 1.535156 72.320312 L 77.265625 0.675781 L 219.007812 150.503906 L 143.273438 222.148438 Z M 1.535156 72.320312 " clip-rule="nonzero"/></clipPath><clipPath id="3daf68aa38"><path d="M 180 179 L 181 179 L 181 183 L 180 183 Z M 180 179 " clip-rule="nonzero"/></clipPath><clipPath id="4244a9d741"><path d="M 1.535156 72.320312 L 77.265625 0.675781 L 219.007812 150.503906 L 143.273438 222.148438 Z M 1.535156 72.320312 " clip-rule="nonzero"/></clipPath><clipPath id="afee6f582f"><path d="M 1.535156 72.320312 L 77.265625 0.675781 L 219.007812 150.503906 L 143.273438 222.148438 Z M 1.535156 72.320312 " clip-rule="nonzero"/></clipPath><clipPath id="6b6311458b"><path d="M 70 4 L 75 4 L 75 10 L 70 10 Z M 70 4 " clip-rule="nonzero"/></clipPath><clipPath id="1012dc9449"><path d="M 1.535156 72.320312 L 77.265625 0.675781 L 219.007812 150.503906 L 143.273438 222.148438 Z M 1.535156 72.320312 " clip-rule="nonzero"/></clipPath><clipPath id="fac5e9a5a2"><path d="M 1.535156 72.320312 L 77.265625 0.675781 L 219.007812 150.503906 L 143.273438 222.148438 Z M 1.535156 72.320312 " clip-rule="nonzero"/></clipPath><clipPath id="8e70664990"><path d="M 80 11 L 82 11 L 82 13 L 80 13 Z M 80 11 " clip-rule="nonzero"/></clipPath><clipPath id="25ec3321fc"><path d="M 1.535156 72.320312 L 77.265625 0.675781 L 219.007812 150.503906 L 143.273438 222.148438 Z M 1.535156 72.320312 " clip-rule="nonzero"/></clipPath><clipPath id="1f6531c5a8"><path d="M 1.535156 72.320312 L 77.265625 0.675781 L 219.007812 150.503906 L 143.273438 222.148438 Z M 1.535156 72.320312 " clip-rule="nonzero"/></clipPath><clipPath id="1c97420ca3"><path d="M 73 9 L 75 9 L 75 11 L 73 11 Z M 73 9 " clip-rule="nonzero"/></clipPath><clipPath id="245048fffa"><path d="M 1.535156 72.320312 L 77.265625 0.675781 L 219.007812 150.503906 L 143.273438 222.148438 Z M 1.535156 72.320312 " clip-rule="nonzero"/></clipPath><clipPath id="60c9bf696c"><path d="M 1.535156 72.320312 L 77.265625 0.675781 L 219.007812 150.503906 L 143.273438 222.148438 Z M 1.535156 72.320312 " clip-rule="nonzero"/></clipPath><clipPath id="f5105ebee0"><rect x="0" width="181" y="0" height="222"/></clipPath><mask id="a50563be4f"><g filter="url(#7fa8eb7729)"><rect x="-37.5" width="450" fill="#000000" y="-37.499999" height="449.999989" fill-opacity="0.69"/></g></mask><clipPath id="27373eab04"><rect x="0" width="283" y="0" height="106"/></clipPath></defs><g mask="url(#c72da112cd)"><g transform="matrix(1, 0, 0, 1, 194, 153)"><g clip-path="url(#f5105ebee0)"><g clip-path="url(#98d54a2283)"><g clip-path="url(#2902d393d4)"><g clip-path="url(#467e2c9202)"><path fill="#535455" d="M 120.476562 46.902344 C 119.992188 46.324219 119.382812 45.902344 118.835938 45.414062 C 118.480469 45.09375 118.160156 44.679688 117.566406 44.632812 C 117.300781 44.613281 116.925781 44.757812 116.652344 44.453125 C 116.949219 44.332031 117.421875 44.160156 117.199219 43.917969 C 116.773438 43.453125 116.292969 43.039062 115.886719 42.539062 C 115.734375 42.355469 115.398438 42.199219 115.191406 41.980469 C 114.726562 41.488281 114.4375 40.796875 113.648438 40.691406 C 113.605469 40.683594 113.550781 40.625 113.535156 40.578125 C 113.117188 39.511719 111.886719 38.984375 111.675781 37.777344 C 111.660156 37.710938 111.613281 37.640625 111.554688 37.597656 C 110.484375 36.769531 109.617188 35.738281 108.742188 34.71875 C 108.570312 34.519531 108.410156 34.414062 108.128906 34.5625 C 107.914062 34.671875 107.636719 34.515625 107.695312 34.324219 C 107.886719 33.679688 107.476562 33.539062 107.039062 33.359375 C 106.921875 33.308594 106.804688 33.164062 106.757812 33.035156 C 106.613281 32.644531 106.359375 32.539062 105.949219 32.570312 C 105.476562 32.609375 105.082031 32.234375 105.042969 31.746094 C 105.023438 31.480469 104.894531 31.367188 104.667969 31.398438 C 104.445312 31.425781 104.335938 31.296875 104.207031 31.171875 C 104.417969 30.957031 104.289062 30.792969 104.136719 30.609375 C 103.949219 30.386719 103.675781 30.238281 103.578125 29.945312 C 103.457031 29.578125 103.15625 29.59375 102.863281 29.597656 C 102.757812 29.597656 102.65625 29.8125 102.546875 29.632812 C 102.484375 29.53125 102.546875 29.414062 102.636719 29.339844 C 102.964844 29.046875 102.769531 28.832031 102.539062 28.617188 C 102.039062 28.144531 101.535156 27.679688 101.054688 27.1875 C 100.578125 26.707031 99.960938 26.367188 99.566406 25.796875 C 99.5 25.703125 99.394531 25.667969 99.28125 25.671875 C 99.089844 25.671875 98.921875 25.539062 98.90625 25.402344 C 98.863281 25.035156 98.539062 24.9375 98.355469 24.710938 C 98.089844 24.390625 97.648438 24.363281 97.382812 24.027344 C 96.972656 23.523438 96.492188 23.074219 96.054688 22.589844 C 95.835938 22.347656 95.632812 22.230469 95.292969 22.367188 C 94.988281 22.492188 94.871094 22.449219 94.925781 22.015625 C 95.015625 21.292969 94.167969 21.371094 93.835938 20.972656 C 93.707031 20.816406 93.472656 20.566406 93.171875 20.765625 C 93.140625 20.78125 93.105469 20.800781 93.082031 20.828125 C 92.609375 21.359375 92.027344 21.15625 91.441406 21.078125 C 91.492188 21.351562 91.652344 21.648438 91.324219 21.859375 C 90.878906 21.511719 90.664062 20.964844 90.476562 20.503906 C 90.257812 19.972656 90.191406 19.941406 89.855469 20.34375 C 89.777344 20.433594 89.679688 20.472656 89.566406 20.425781 C 89.476562 20.386719 89.425781 20.316406 89.421875 20.210938 C 89.417969 20.074219 89.515625 20.027344 89.625 19.992188 C 89.746094 19.949219 89.863281 19.90625 89.980469 19.875 C 90.28125 19.789062 90.539062 19.570312 90.59375 19.308594 C 90.644531 19.042969 90.203125 18.996094 90.105469 18.730469 C 90.078125 18.648438 89.917969 18.707031 89.824219 18.792969 C 89.15625 19.40625 88.953125 19.375 88.570312 18.605469 C 88.523438 18.542969 88.480469 18.484375 88.429688 18.421875 C 88.398438 18.230469 88.367188 18.050781 88.664062 18.066406 C 88.832031 18.074219 88.921875 17.957031 88.957031 17.800781 C 89.109375 17.144531 88.960938 16.886719 88.289062 16.644531 C 88.238281 16.628906 88.148438 16.597656 88.148438 16.582031 C 88.167969 16.105469 87.675781 16.179688 87.460938 15.953125 C 87.339844 15.824219 87.074219 15.683594 86.921875 16.003906 C 86.867188 16.105469 86.785156 16.195312 86.664062 16.121094 C 86.53125 16.042969 86.613281 15.941406 86.652344 15.835938 C 86.773438 15.496094 86.578125 15.382812 86.28125 15.328125 C 85.832031 15.242188 85.542969 15.691406 85.117188 15.667969 C 85.195312 15.972656 84.570312 16.050781 84.871094 16.425781 C 84.664062 16.664062 84.339844 16.804688 84.328125 17.199219 C 84.320312 17.355469 84.140625 17.464844 83.960938 17.472656 C 83.753906 17.484375 83.753906 17.3125 83.738281 17.171875 C 83.789062 17.070312 83.824219 16.957031 83.699219 16.886719 C 83.253906 16.640625 83.160156 16.4375 83.757812 16.292969 C 83.890625 16.257812 83.980469 16.1875 83.960938 16.019531 C 83.871094 15.394531 83.902344 15.355469 84.5 15.507812 C 84.828125 15.59375 84.980469 15.484375 85.160156 15.226562 C 85.367188 14.929688 85.21875 14.761719 85.046875 14.5625 C 84.894531 14.382812 84.75 14.195312 84.609375 14.007812 C 84.277344 13.566406 83.902344 13.503906 83.386719 13.8125 C 83.148438 13.5625 82.90625 13.316406 82.671875 13.0625 C 82.53125 12.914062 82.242188 12.816406 82.199219 12.921875 C 82.007812 13.421875 81.664062 13.253906 81.3125 13.222656 C 81.160156 13.210938 80.996094 13.300781 80.917969 13.472656 C 80.917969 13.472656 80.882812 13.46875 80.882812 13.46875 C 80.714844 12.957031 80.148438 12.914062 79.804688 12.777344 C 79.121094 12.503906 78.941406 12.082031 78.921875 11.453125 C 78.917969 11.320312 78.847656 11.15625 78.753906 11.058594 C 78.539062 10.835938 78.421875 10.601562 78.417969 10.28125 C 78.417969 10.09375 78.332031 9.800781 78.082031 9.875 C 77.535156 10.042969 77.285156 9.660156 76.992188 9.363281 C 76.839844 9.199219 76.722656 9.125 76.539062 9.289062 C 76.4375 9.386719 76.429688 9.675781 76.21875 9.539062 C 76.046875 9.433594 76.214844 9.238281 76.253906 9.085938 C 76.304688 8.910156 76.347656 8.734375 76.4375 8.578125 C 76.707031 8.101562 76.25 7.851562 76.105469 7.519531 C 75.996094 7.273438 75.671875 7.265625 75.429688 7.328125 C 75.164062 7.394531 74.90625 7.503906 74.675781 7.648438 C 74.460938 7.78125 74.277344 7.980469 74.324219 8.265625 C 74.371094 8.558594 74.601562 8.578125 74.832031 8.527344 C 75.121094 8.460938 75.160156 8.679688 75.25 8.855469 C 75.359375 9.054688 75.230469 9.101562 75.085938 9.171875 C 75.011719 9.207031 74.96875 9.296875 74.914062 9.363281 C 75.347656 9.597656 75.011719 10.121094 75.320312 10.410156 C 75.59375 10.660156 75.542969 10.882812 75.21875 11.054688 C 74.851562 11.25 74.707031 11.621094 74.566406 11.96875 C 74.449219 12.261719 74.835938 12.253906 74.9375 12.429688 C 74.972656 12.492188 75.003906 12.5625 75.023438 12.628906 C 75.09375 12.972656 75.304688 13.0625 75.644531 13.109375 C 76.445312 13.214844 77.3125 13.28125 77.394531 14.398438 C 77.410156 14.558594 77.550781 14.632812 77.675781 14.574219 C 78.355469 14.25 78.582031 14.71875 78.828125 15.199219 C 78.960938 15.457031 79.039062 15.640625 78.640625 15.683594 C 78.457031 15.703125 78.449219 15.808594 78.492188 15.996094 C 78.578125 16.453125 78.855469 16.40625 79.171875 16.253906 C 79.152344 16.679688 79.320312 16.972656 79.675781 17.136719 C 79.816406 17.199219 79.929688 17.300781 79.96875 17.445312 C 80.179688 18.257812 81.132812 18.222656 81.527344 18.828125 C 81.628906 18.984375 81.777344 18.777344 81.902344 18.722656 C 82.089844 18.632812 82.21875 18.722656 82.128906 18.90625 C 81.960938 19.242188 82.148438 19.355469 82.394531 19.496094 C 82.566406 19.59375 82.75 19.742188 82.773438 19.945312 C 82.824219 20.382812 83.140625 20.601562 83.449219 20.828125 C 83.570312 20.917969 83.648438 21.007812 83.703125 21.15625 C 83.875 21.574219 84.183594 21.816406 84.664062 21.707031 C 84.972656 21.636719 85.105469 21.78125 85.058594 22.046875 C 84.96875 22.503906 85.1875 22.523438 85.507812 22.390625 C 85.851562 22.238281 85.984375 22.359375 85.996094 22.703125 C 86.007812 23.003906 86.082031 23.222656 86.460938 23.066406 C 86.59375 23.011719 86.757812 23.050781 86.78125 23.191406 C 86.847656 23.65625 87.253906 23.914062 87.421875 24.3125 C 87.515625 24.539062 87.59375 24.738281 87.9375 24.585938 C 88.160156 24.488281 88.1875 24.714844 88.179688 24.894531 C 88.171875 25.023438 88.042969 25.207031 88.246094 25.273438 C 88.445312 25.335938 88.539062 25.160156 88.625 25.023438 C 88.710938 24.890625 88.800781 24.640625 88.96875 24.847656 C 89.246094 25.199219 89.429688 25.625 89.980469 25.582031 C 90.121094 26.226562 90.722656 26.433594 91.125 26.828125 C 91.332031 27.027344 91.460938 27.320312 91.746094 27.484375 C 91.894531 27.566406 92.019531 27.734375 92.097656 27.890625 C 92.363281 28.457031 92.738281 28.515625 93.09375 28.007812 C 93.265625 27.761719 93.519531 27.679688 93.773438 27.601562 C 93.855469 27.578125 93.964844 27.585938 94.011719 27.683594 C 94.066406 27.789062 93.964844 27.839844 93.917969 27.914062 C 93.789062 28.128906 93.480469 28.050781 93.28125 28.277344 C 93.996094 28.519531 93.917969 29.449219 94.632812 29.664062 C 94.707031 29.683594 94.855469 29.820312 94.890625 29.902344 C 95.03125 30.246094 95.523438 30.433594 95.359375 30.917969 C 95.28125 31.140625 95.492188 31.167969 95.617188 31.269531 C 95.890625 31.488281 96.351562 31.382812 96.519531 31.734375 C 96.707031 32.121094 96.984375 32.140625 97.328125 32.039062 C 97.582031 31.957031 97.867188 32.089844 98.121094 31.90625 C 98.203125 31.84375 98.316406 31.960938 98.386719 32.054688 C 98.433594 32.117188 98.457031 32.210938 98.390625 32.246094 C 97.804688 32.574219 98.1875 33.117188 98 33.582031 C 98.347656 33.472656 98.671875 33.542969 98.800781 33.167969 C 98.863281 32.984375 99.042969 33.042969 99.15625 33.160156 C 99.242188 33.25 99.535156 33.355469 99.371094 33.449219 C 98.945312 33.6875 99.429688 34.296875 98.890625 34.476562 C 98.78125 34.511719 98.902344 34.675781 99.074219 34.664062 C 99.664062 34.617188 99.890625 34.78125 99.792969 35.324219 C 99.734375 35.652344 99.898438 35.820312 100.078125 35.898438 C 100.570312 36.128906 100.648438 36.492188 100.609375 36.976562 C 100.585938 37.253906 100.589844 37.523438 101.070312 37.390625 C 101.320312 37.320312 101.828125 37.40625 101.875 37.71875 C 101.910156 37.949219 101.980469 38.089844 102.0625 38.285156 C 102.203125 38.640625 102.535156 38.875 102.597656 39.261719 C 102.640625 39.527344 102.773438 39.6875 103.097656 39.546875 C 103.285156 39.464844 103.550781 39.453125 103.589844 39.714844 C 103.644531 40.0625 103.921875 40.277344 104.019531 40.589844 C 104.101562 40.835938 104.214844 41.007812 104.542969 40.878906 C 104.796875 40.777344 104.933594 40.992188 104.882812 41.207031 C 104.808594 41.515625 104.863281 41.789062 105.105469 41.925781 C 105.382812 42.078125 105.667969 41.960938 105.878906 41.703125 C 105.957031 41.601562 106.082031 41.503906 106.203125 41.628906 C 106.328125 41.761719 106.167969 41.84375 106.109375 41.953125 C 105.902344 42.320312 105.914062 42.707031 106.074219 43.097656 C 106.128906 43.230469 106.175781 43.304688 106.359375 43.238281 C 106.804688 43.078125 107.167969 43.347656 107.144531 43.824219 C 107.136719 44.003906 107.195312 44.128906 107.308594 44.191406 C 107.605469 44.363281 108.039062 44.335938 108.113281 44.816406 C 108.125 44.871094 108.3125 44.832031 108.40625 44.761719 C 108.546875 44.644531 108.722656 44.578125 108.835938 44.75 C 108.933594 44.898438 109.113281 45.082031 108.945312 45.292969 C 108.738281 45.554688 108.902344 45.714844 109.0625 45.90625 C 109.238281 46.121094 109.59375 46.265625 109.332031 46.679688 C 109.242188 46.824219 109.460938 47.109375 109.6875 46.988281 C 110.035156 46.8125 110.007812 46.972656 110.074219 47.230469 C 110.160156 47.542969 110.441406 48.007812 110.691406 47.882812 C 111.25 47.609375 111.152344 48.113281 111.332031 48.273438 C 111.414062 48.347656 111.46875 48.476562 111.558594 48.5 C 111.929688 48.601562 112.105469 48.804688 112.085938 49.203125 C 112.078125 49.339844 112.117188 49.628906 112.414062 49.457031 C 112.839844 49.207031 112.816406 49.484375 112.816406 49.773438 C 112.816406 50.019531 112.839844 50.320312 113.179688 50.234375 C 113.660156 50.105469 113.734375 50.28125 113.664062 50.695312 C 113.625 50.929688 113.664062 51.308594 113.921875 51.253906 C 114.640625 51.09375 114.664062 51.433594 114.558594 51.957031 C 114.527344 52.113281 114.558594 52.320312 114.71875 52.300781 C 114.964844 52.269531 115.1875 52.484375 115.394531 52.367188 C 115.597656 52.25 115.398438 52.078125 115.355469 51.9375 C 115.195312 51.429688 114.949219 50.917969 115.503906 50.488281 C 115.679688 50.464844 115.859375 50.441406 116.035156 50.421875 C 116.59375 50.941406 116.917969 51.519531 116.515625 52.292969 C 116.441406 52.441406 116.484375 52.628906 116.5625 52.773438 C 116.730469 53.082031 116.699219 53.390625 116.632812 53.726562 C 116.574219 53.992188 116.460938 54.347656 116.800781 54.515625 C 117.113281 54.667969 117.179688 54.933594 117.273438 55.207031 C 117.367188 55.496094 117.472656 55.839844 117.796875 55.898438 C 118.234375 55.976562 118.414062 56.371094 118.582031 56.617188 C 118.800781 56.9375 119.101562 57.195312 119.257812 57.574219 C 119.3125 57.515625 119.359375 57.476562 119.359375 57.460938 C 119.179688 57.035156 119.511719 56.933594 119.78125 56.902344 C 120.132812 56.859375 120.058594 57.210938 120.121094 57.417969 C 120.171875 57.601562 120.109375 57.765625 120.070312 57.945312 C 119.96875 58.402344 119.941406 58.925781 120.339844 59.234375 C 120.730469 59.535156 120.882812 59.890625 120.933594 60.339844 C 120.953125 60.542969 121.03125 60.75 121.257812 60.652344 C 121.570312 60.519531 121.566406 60.6875 121.621094 60.898438 C 121.660156 61.050781 121.800781 61.175781 121.855469 61.328125 C 122.144531 62.085938 123.097656 62.347656 123.242188 63.214844 C 123.261719 63.328125 123.425781 63.28125 123.535156 63.28125 C 123.964844 63.285156 124.378906 63.695312 124.5 64.109375 C 124.707031 64.824219 124.644531 65.761719 125.769531 65.808594 C 125.972656 65.816406 125.820312 65.976562 125.816406 66.058594 C 125.792969 66.4375 125.789062 66.75 126.222656 66.972656 C 126.574219 67.15625 126.832031 67.472656 126.566406 67.964844 C 126.476562 68.132812 126.410156 68.484375 126.863281 68.355469 C 127.082031 68.289062 127.113281 68.414062 127.128906 68.625 C 127.183594 69.269531 127.472656 69.820312 127.863281 70.335938 C 128.089844 70.644531 128.429688 70.5 128.699219 70.621094 C 128.800781 70.667969 128.910156 70.695312 128.964844 70.796875 C 129.261719 71.351562 129.585938 71.898438 129.824219 72.476562 C 129.953125 72.789062 130.105469 73.039062 130.414062 73.132812 C 130.710938 73.21875 130.679688 73.335938 130.570312 73.566406 C 130.414062 73.902344 130.324219 74.195312 130.804688 74.445312 C 131.019531 74.554688 131.53125 74.757812 131.21875 75.269531 C 131.171875 75.34375 131.222656 75.558594 131.300781 75.621094 C 131.648438 75.898438 131.621094 76.585938 132.292969 76.511719 C 132.414062 76.496094 132.46875 76.617188 132.460938 76.742188 C 132.441406 77.019531 132.613281 77.21875 132.71875 77.449219 C 132.84375 77.722656 133.007812 78.019531 132.996094 78.296875 C 132.96875 78.914062 133.257812 79.332031 133.617188 79.777344 C 133.882812 80.109375 134.289062 80.425781 134.066406 80.976562 C 133.992188 81.15625 133.945312 81.457031 134.234375 81.535156 C 134.53125 81.613281 134.636719 81.683594 134.386719 81.9375 C 134.261719 82.0625 134.417969 82.167969 134.433594 82.277344 C 134.484375 82.664062 134.925781 82.566406 135.0625 82.8125 C 135.347656 83.320312 135.464844 83.917969 135.917969 84.335938 C 136.015625 84.425781 135.925781 84.539062 135.851562 84.625 C 135.765625 84.730469 135.703125 84.886719 135.839844 84.957031 C 136.101562 85.085938 136.03125 85.265625 135.988281 85.464844 C 135.953125 85.632812 136 85.820312 136.105469 85.929688 C 136.851562 86.671875 136.910156 87.859375 137.78125 88.519531 C 137.902344 88.613281 137.824219 88.757812 137.828125 88.878906 C 137.855469 89.695312 138.261719 90.25 139.042969 90.539062 C 139.675781 90.773438 139.816406 91.011719 139.722656 91.640625 C 139.707031 91.75 139.675781 91.925781 139.726562 91.960938 C 140.054688 92.191406 139.765625 92.773438 140.277344 92.886719 C 140.378906 92.910156 140.347656 93.054688 140.308594 93.125 C 140.085938 93.53125 140.34375 93.898438 140.441406 94.253906 C 140.671875 95.09375 141.203125 95.800781 141.613281 96.554688 C 142.148438 97.527344 142.402344 98.476562 142.125 99.5625 C 142.078125 99.761719 142.0625 100.035156 142.339844 100.183594 C 142.808594 100.433594 143.222656 100.6875 142.996094 101.363281 C 142.925781 101.585938 143.007812 101.894531 143.335938 102.035156 C 143.582031 102.140625 143.921875 102.390625 143.851562 102.609375 C 143.648438 103.238281 143.917969 103.773438 144.011719 104.347656 C 144.054688 104.617188 143.988281 104.902344 144.402344 104.941406 C 144.601562 104.960938 144.589844 105.179688 144.472656 105.285156 C 144.164062 105.554688 144.183594 105.785156 144.476562 106.046875 C 144.617188 106.167969 144.628906 106.328125 144.523438 106.492188 C 144.441406 106.609375 144.445312 106.722656 144.519531 106.851562 C 144.988281 107.667969 144.917969 108.585938 144.984375 109.480469 C 145.011719 109.789062 144.855469 110.136719 145.371094 110.21875 C 145.570312 110.25 145.523438 110.523438 145.457031 110.703125 C 145.390625 110.890625 145.296875 111.070312 145.222656 111.257812 C 145.179688 111.375 145.117188 111.515625 145.277344 111.589844 C 145.433594 111.660156 145.515625 111.570312 145.539062 111.414062 C 145.566406 111.273438 145.628906 111.152344 145.789062 111.273438 C 145.925781 111.371094 146.054688 111.503906 145.898438 111.679688 C 145.695312 111.917969 145.476562 112.152344 145.132812 112.15625 C 144.867188 112.164062 144.808594 112.285156 144.820312 112.546875 C 144.835938 112.84375 144.886719 113.058594 145.195312 113.203125 C 145.476562 113.332031 145.671875 113.714844 145.613281 113.917969 C 145.304688 114.972656 146.449219 115.5625 146.390625 116.515625 C 146.386719 116.5625 146.472656 116.644531 146.535156 116.667969 C 146.902344 116.832031 146.910156 116.996094 146.667969 117.332031 C 146.484375 117.589844 146.171875 118.015625 146.847656 118.191406 C 147.035156 118.238281 147.175781 118.445312 147.097656 118.679688 C 146.980469 119.035156 147.167969 119.332031 147.273438 119.628906 C 147.375 119.910156 147.773438 120.15625 147.265625 120.425781 C 147.234375 120.445312 147.25 120.5625 147.257812 120.632812 C 147.277344 120.984375 147.394531 121.242188 147.6875 121.5 C 148.269531 122.003906 147.777344 122.835938 148.164062 123.457031 C 148.375 123.796875 148.109375 124.261719 148.152344 124.660156 C 148.207031 125.238281 148.445312 125.8125 147.996094 126.339844 C 147.929688 126.421875 148.019531 126.511719 148.011719 126.59375 C 147.945312 127.300781 148.097656 128 147.992188 128.726562 C 147.933594 129.132812 147.457031 129.628906 147.964844 130.09375 C 148.082031 130.195312 147.921875 130.367188 147.808594 130.363281 C 147.402344 130.355469 147.28125 130.679688 147.289062 130.929688 C 147.292969 131.269531 147.691406 131.03125 147.875 131.183594 C 147.816406 131.375 147.78125 131.609375 147.699219 131.777344 C 147.542969 132.105469 147.789062 132.472656 147.582031 132.726562 C 147.066406 133.34375 147.066406 133.566406 147.675781 134.027344 C 148.332031 134.523438 148.484375 134.9375 148.269531 135.730469 C 148.191406 136.015625 148.179688 136.257812 148.433594 136.46875 C 148.621094 136.625 148.664062 136.796875 148.507812 137.042969 C 148.285156 137.378906 148.230469 137.71875 148.582031 138.070312 C 148.851562 138.34375 149.074219 138.695312 148.8125 139.136719 C 148.746094 139.253906 148.679688 139.46875 148.738281 139.554688 C 149.164062 140.199219 148.570312 140.652344 148.390625 141.136719 C 148.296875 141.378906 148.390625 141.785156 148.046875 141.917969 C 147.769531 142.027344 147.753906 142.269531 147.691406 142.492188 C 147.5625 142.984375 147.53125 143.5 147.335938 143.976562 C 147.292969 144.082031 147.199219 144.175781 147.273438 144.328125 C 147.75 145.332031 147.285156 146.355469 147.242188 147.359375 C 147.214844 148.121094 147.125 148.835938 147.378906 149.566406 C 147.496094 149.902344 147.589844 150.21875 147.4375 150.628906 C 147.261719 151.101562 147.3125 151.652344 147.566406 152.160156 C 147.703125 152.4375 147.921875 152.773438 147.566406 153.101562 C 147.457031 153.207031 147.421875 153.394531 147.542969 153.554688 C 147.644531 153.679688 147.605469 153.796875 147.496094 153.894531 C 147.152344 154.207031 147.179688 154.59375 147.285156 154.988281 C 147.40625 155.4375 147.316406 155.714844 146.820312 155.847656 C 146.515625 155.925781 146.285156 156.238281 146.320312 156.539062 C 146.347656 156.777344 146.476562 157.113281 146.878906 157.089844 C 147.128906 157.078125 147.203125 157.222656 147.113281 157.449219 C 147.066406 157.566406 147.035156 157.78125 146.933594 157.757812 C 146.75 157.714844 146.523438 157.597656 146.445312 157.449219 C 146.265625 157.09375 146.0625 157.199219 145.820312 157.328125 C 145.671875 157.40625 145.527344 157.476562 145.386719 157.5625 C 145.0625 157.769531 145.027344 158.148438 145.308594 158.40625 C 145.390625 158.480469 145.53125 158.523438 145.460938 158.648438 C 145.207031 159.113281 145.46875 159.707031 145.082031 160.132812 C 144.796875 160.449219 144.816406 160.835938 144.839844 161.222656 C 144.847656 161.347656 144.894531 161.460938 144.863281 161.597656 C 144.753906 162.0625 144.675781 162.511719 145.09375 162.914062 C 145.210938 163.027344 145.628906 163.429688 145.160156 163.539062 C 144.71875 163.640625 144.625 163.933594 144.574219 164.207031 C 144.460938 164.859375 143.785156 165.328125 143.988281 166.074219 C 144.015625 166.183594 143.929688 166.296875 143.78125 166.199219 C 143.429688 165.960938 143.320312 166.230469 143.234375 166.472656 C 143.136719 166.734375 143.027344 166.976562 143.132812 167.304688 C 143.292969 167.785156 142.886719 168.261719 142.996094 168.753906 C 143.042969 168.957031 143.011719 169.082031 142.90625 169.246094 C 142.722656 169.542969 142.433594 169.828125 142.71875 170.230469 C 142.804688 170.351562 142.699219 170.460938 142.605469 170.5625 C 142.019531 171.242188 141.996094 171.515625 142.390625 172.320312 C 142.503906 172.550781 142.578125 172.804688 142.394531 173.046875 C 142.1875 173.3125 141.980469 173.21875 141.730469 173.0625 C 141.511719 172.929688 141.304688 173.046875 141.335938 173.316406 C 141.378906 173.738281 141.121094 174.136719 141.332031 174.585938 C 141.472656 174.882812 141.121094 175.222656 141.222656 175.585938 C 141.246094 175.664062 141.128906 175.710938 141.035156 175.746094 C 140.589844 175.929688 140.21875 176.296875 140.164062 176.714844 C 140.101562 177.210938 139.839844 177.476562 139.496094 177.703125 C 139.328125 177.820312 139.292969 177.980469 139.199219 178.117188 C 138.824219 178.65625 138.5 179.210938 138.355469 179.863281 C 138.339844 179.941406 138.230469 179.996094 138.175781 180.070312 C 138.125 180.140625 138.019531 180.261719 138.039062 180.289062 C 138.351562 180.769531 137.835938 180.941406 137.691406 181.246094 C 137.636719 181.355469 137.542969 181.449219 137.519531 181.578125 C 137.390625 182.269531 137.386719 182.996094 136.820312 183.550781 C 136.691406 183.675781 136.570312 183.953125 136.609375 184.207031 C 136.628906 184.335938 136.597656 184.390625 136.472656 184.453125 C 135.878906 184.730469 135.886719 184.746094 135.472656 185.292969 C 135.425781 185.355469 135.269531 185.375 135.171875 185.359375 C 134.886719 185.320312 134.695312 185.429688 134.640625 185.699219 C 134.558594 186.089844 134.589844 186.507812 134.246094 186.824219 C 134.160156 186.90625 134.339844 187.015625 134.433594 187.105469 C 134.703125 187.386719 134.695312 187.773438 134.414062 187.949219 C 134.117188 188.136719 133.917969 188.515625 133.496094 188.503906 C 133.40625 188.5 133.324219 188.570312 133.316406 188.675781 C 133.3125 188.785156 133.386719 188.851562 133.476562 188.871094 C 133.96875 189 133.941406 189.226562 133.707031 189.632812 C 133.527344 189.945312 133.300781 190.34375 133.429688 190.710938 C 133.523438 190.988281 133.90625 190.984375 134.191406 191.046875 C 134.308594 191.066406 134.445312 191.15625 134.503906 191.257812 C 134.808594 191.769531 135.261719 191.78125 135.769531 191.679688 C 135.925781 191.648438 136.097656 191.710938 136.261719 191.714844 C 136.65625 191.722656 137.078125 191.808594 137.4375 191.699219 C 138.445312 191.398438 139.535156 191.492188 140.507812 190.964844 C 141.039062 190.675781 141.535156 190.425781 141.910156 189.90625 C 142.347656 189.300781 142.484375 188.515625 143.074219 188.015625 C 143.554688 187.601562 143.976562 187.128906 144.378906 186.640625 C 144.691406 186.261719 145.140625 185.90625 145.296875 185.5 C 145.570312 184.773438 146.078125 184.167969 146.285156 183.410156 C 146.40625 182.980469 146.636719 182.585938 146.433594 182.117188 C 146.324219 181.878906 146.515625 181.796875 146.6875 181.71875 C 147.332031 181.421875 147.558594 180.78125 147.8125 180.210938 C 147.9375 179.933594 148.007812 179.636719 148.195312 179.382812 C 148.386719 179.121094 148.449219 178.773438 148.605469 178.503906 C 148.894531 178.003906 148.78125 177.429688 149.015625 176.933594 C 149.15625 176.628906 149.40625 176.363281 149.375 175.992188 C 149.429688 175.941406 149.488281 175.898438 149.542969 175.851562 C 149.671875 175.878906 149.738281 175.796875 149.804688 175.703125 C 150.277344 175.046875 150.191406 174.199219 150.628906 173.492188 C 150.988281 172.90625 151.09375 172.132812 151.195312 171.425781 C 151.308594 170.59375 151.527344 169.792969 151.675781 168.96875 C 151.8125 168.222656 152.238281 167.566406 152.273438 166.785156 C 152.304688 166.046875 152.457031 165.339844 153.121094 164.871094 C 153.1875 164.824219 153.203125 164.710938 153.230469 164.628906 C 153.449219 164.015625 153.394531 163.355469 153.699219 162.730469 C 153.941406 162.234375 154.074219 161.632812 153.933594 160.941406 C 153.796875 160.28125 153.957031 159.488281 154.171875 158.753906 C 154.351562 158.152344 154.605469 157.515625 154.46875 156.847656 C 154.488281 156.828125 154.503906 156.8125 154.507812 156.785156 C 154.816406 156.546875 155.003906 156.261719 154.945312 155.84375 C 154.867188 155.324219 154.90625 154.835938 155.359375 154.464844 C 155.441406 154.402344 155.574219 154.289062 155.472656 154.199219 C 154.972656 153.753906 155.425781 153.351562 155.605469 153.0625 C 155.855469 152.667969 155.894531 152.253906 155.984375 151.839844 C 156.125 151.171875 156.210938 150.492188 156.339844 149.824219 C 156.421875 149.398438 156.710938 148.863281 156.320312 148.328125 C 156.183594 148.140625 156.050781 147.691406 156.3125 147.308594 C 156.511719 147.023438 156.5 146.617188 156.457031 146.246094 C 156.382812 145.53125 156.40625 144.816406 156.476562 144.101562 C 156.605469 142.746094 156.855469 141.398438 156.550781 140.035156 C 156.546875 139.984375 156.546875 139.9375 156.542969 139.886719 C 157.171875 139.414062 157.21875 138.753906 157.140625 138.050781 C 157.101562 137.703125 157.179688 137.363281 157.289062 137.027344 C 157.507812 136.355469 157.242188 135.691406 157.25 135.027344 C 157.25 135.007812 157.238281 134.984375 157.226562 134.976562 C 156.953125 134.835938 157.0625 134.609375 157.105469 134.40625 C 157.144531 134.210938 157.035156 134.058594 157.003906 133.90625 C 156.917969 133.492188 156.648438 133.105469 156.78125 132.636719 C 156.863281 132.34375 157.078125 131.976562 156.785156 131.710938 C 156.480469 131.433594 156.476562 131.128906 156.503906 130.773438 C 156.519531 130.550781 156.644531 130.246094 156.21875 130.195312 C 156.105469 130.179688 156.058594 129.9375 156.136719 129.804688 C 156.417969 129.332031 156.207031 128.894531 156.050781 128.453125 C 155.984375 128.269531 155.957031 128.074219 156.089844 127.929688 C 156.550781 127.449219 156.359375 127.011719 156.046875 126.558594 C 155.816406 126.226562 155.703125 125.679688 155.890625 125.484375 C 156.316406 125.035156 156.300781 124.472656 156.375 123.992188 C 156.558594 122.824219 156.453125 121.625 156.324219 120.445312 C 156.265625 119.90625 156.097656 119.375 156.105469 118.839844 C 156.113281 117.941406 155.664062 117.132812 155.664062 116.226562 C 155.664062 115.871094 155.300781 115.527344 155.21875 115.148438 C 155.050781 114.417969 155.304688 113.570312 154.589844 112.996094 C 154.5625 112.972656 154.59375 112.886719 154.570312 112.835938 C 154.355469 112.269531 154.011719 111.800781 154.113281 111.0625 C 154.183594 110.550781 153.820312 109.871094 153.660156 109.269531 C 153.410156 108.324219 153.449219 107.335938 153.515625 106.363281 C 153.527344 106.199219 153.46875 106.109375 153.351562 106.066406 C 153.035156 105.945312 153.046875 105.691406 153.070312 105.429688 C 153.109375 105.082031 153.09375 104.746094 152.761719 104.523438 C 152.648438 104.453125 152.625 104.34375 152.664062 104.242188 C 152.777344 103.941406 152.660156 103.683594 152.585938 103.394531 C 152.457031 102.890625 152.214844 102.4375 152.125 101.90625 C 152.03125 101.375 152.007812 100.726562 151.503906 100.320312 C 151.308594 99.421875 151.019531 98.5625 150.488281 97.804688 C 150.632812 97.636719 150.621094 97.472656 150.464844 97.320312 C 150.351562 97.207031 150.269531 97.050781 150.429688 96.953125 C 150.773438 96.742188 150.605469 96.457031 150.535156 96.226562 C 150.335938 95.582031 150.132812 94.921875 149.660156 94.398438 C 149.554688 94.285156 149.523438 94.144531 149.492188 94 C 149.398438 93.519531 149.152344 93.1875 148.636719 93.121094 C 148.542969 93.109375 148.402344 93.09375 148.417969 93.003906 C 148.527344 92.496094 147.839844 91.964844 148.46875 91.46875 C 148.625 91.347656 148.503906 91.179688 148.453125 91.019531 C 148.304688 90.511719 147.730469 90.269531 147.65625 89.714844 C 147.59375 89.277344 147.261719 89 147.007812 88.671875 C 146.785156 88.390625 146.574219 88.097656 146.492188 87.726562 C 146.320312 86.945312 145.757812 86.339844 145.503906 85.574219 C 145.328125 85.035156 144.914062 84.550781 144.617188 84.039062 C 144.023438 83 144.03125 81.691406 143.101562 80.828125 C 143.042969 80.773438 143.105469 80.609375 143.074219 80.507812 C 142.957031 80.125 142.921875 79.703125 142.667969 79.371094 C 142.246094 78.820312 142.125 78.09375 141.613281 77.597656 C 141.578125 77.558594 141.585938 77.449219 141.605469 77.382812 C 141.757812 76.90625 141.15625 76.609375 141.3125 76.128906 C 141.316406 76.105469 141.214844 76.011719 141.152344 76 C 140.542969 75.886719 140.578125 75.414062 140.621094 74.984375 C 140.636719 74.765625 140.554688 74.617188 140.496094 74.429688 C 140.375 74.0625 139.988281 74.109375 139.796875 73.878906 C 140.132812 73.4375 140.027344 73.042969 139.609375 72.753906 C 139.355469 72.578125 139.242188 72.402344 139.242188 72.09375 C 139.242188 71.945312 139.148438 71.769531 139.046875 71.648438 C 138.496094 71 138.183594 70.195312 137.621094 69.546875 C 137.441406 69.34375 137.265625 69.074219 137.117188 68.816406 C 136.871094 68.371094 136.601562 67.9375 136.230469 67.59375 C 136.050781 67.429688 135.703125 67.457031 135.617188 67.1875 C 135.441406 66.660156 135.09375 66.726562 134.703125 66.878906 C 134.597656 66.753906 134.605469 66.617188 134.652344 66.464844 C 134.730469 66.203125 134.566406 65.992188 134.355469 65.964844 C 133.652344 65.871094 134.019531 65.621094 134.242188 65.371094 C 134.558594 65.003906 134.492188 64.757812 134.050781 64.644531 C 133.808594 64.582031 133.691406 64.417969 133.664062 64.171875 C 133.652344 64.046875 133.65625 63.863281 133.585938 63.8125 C 133.070312 63.460938 132.949219 62.839844 132.652344 62.367188 C 131.933594 61.21875 131.367188 59.964844 130.570312 58.867188 C 130.242188 58.414062 129.664062 58.015625 129.421875 57.578125 C 129.128906 57.054688 128.566406 56.828125 128.378906 56.398438 C 127.90625 55.308594 127.097656 54.648438 126.089844 54.152344 C 125.878906 54.050781 125.800781 54.015625 125.839844 53.734375 C 125.90625 53.269531 125.9375 52.777344 125.40625 52.460938 C 125.148438 52.304688 125.019531 51.988281 124.851562 51.722656 C 124.566406 51.269531 124.253906 50.792969 123.804688 50.507812 C 122.882812 49.933594 122.199219 49.136719 121.476562 48.363281 C 121.058594 47.921875 120.871094 47.351562 120.484375 46.886719 Z M 76 7.875 C 76.035156 7.855469 76.09375 7.886719 76.128906 7.894531 C 76.175781 7.96875 76.203125 8.039062 76.125 8.082031 C 76.09375 8.101562 76.019531 8.078125 75.992188 8.046875 C 75.941406 7.996094 75.921875 7.917969 76.003906 7.878906 Z M 120.589844 55.863281 C 120.546875 55.886719 120.492188 55.871094 120.445312 55.835938 C 120.402344 55.792969 120.375 55.746094 120.367188 55.699219 C 120.378906 55.746094 120.402344 55.796875 120.445312 55.835938 C 120.492188 55.871094 120.546875 55.886719 120.589844 55.863281 Z M 123.394531 60.972656 C 123.398438 60.921875 123.394531 60.875 123.398438 60.808594 C 123.394531 60.875 123.398438 60.921875 123.394531 60.972656 Z M 81.300781 13.757812 C 81.675781 13.9375 81.734375 14.179688 81.441406 14.414062 C 81.347656 14.492188 81.230469 14.542969 81.125 14.609375 C 81.21875 14.679688 81.320312 14.738281 81.4375 14.777344 C 81.320312 14.738281 81.21875 14.679688 81.125 14.609375 C 81.019531 14.65625 80.914062 14.695312 80.808594 14.742188 C 80.4375 14.390625 80.808594 14.195312 80.96875 13.953125 C 81.078125 13.890625 81.1875 13.824219 81.296875 13.761719 Z M 78.003906 11.601562 C 78.058594 11.496094 78.15625 11.503906 78.238281 11.488281 C 78.394531 11.453125 78.554688 11.246094 78.710938 11.460938 C 78.789062 11.570312 78.664062 11.652344 78.589844 11.726562 C 78.421875 11.886719 78.246094 11.90625 78.074219 11.730469 C 78.039062 11.695312 78.023438 11.640625 78 11.605469 Z M 75.753906 9.835938 C 75.855469 9.730469 76.003906 9.605469 76.117188 9.738281 C 76.238281 9.878906 76.070312 9.992188 75.972656 10.097656 C 75.878906 10.152344 75.796875 10.335938 75.667969 10.207031 C 75.546875 10.078125 75.648438 9.941406 75.753906 9.835938 Z M 75.5625 11.898438 C 75.4375 11.882812 75.710938 11.0625 75.910156 10.90625 C 76.0625 10.777344 76.167969 10.796875 76.238281 11.023438 C 76.484375 11.25 76.730469 11.585938 76.410156 11.867188 C 76.242188 12.015625 75.851562 11.941406 75.5625 11.902344 Z M 91.769531 25.476562 C 91.410156 25.105469 91.015625 25.113281 90.53125 25.175781 C 90.121094 25.230469 89.988281 24.746094 89.832031 24.4375 C 89.695312 24.152344 89.988281 24.085938 90.160156 23.980469 C 90.332031 23.878906 90.527344 23.808594 90.679688 23.679688 C 90.886719 23.507812 90.953125 23.53125 91.179688 23.730469 C 91.492188 24.011719 91.9375 23.820312 92.308594 23.671875 C 92.421875 23.625 92.492188 23.496094 92.585938 23.414062 C 92.703125 23.308594 92.84375 23.222656 92.964844 23.371094 C 93.078125 23.511719 92.96875 23.632812 92.878906 23.757812 C 92.714844 23.976562 92.335938 23.957031 92.316406 24.359375 C 92.308594 24.59375 92.253906 24.78125 92.480469 24.914062 C 92.671875 25.027344 92.824219 25.292969 92.75 25.398438 C 92.652344 25.53125 92.382812 25.5625 92.179688 25.582031 C 92.042969 25.59375 91.855469 25.554688 91.769531 25.464844 Z M 97.023438 31.140625 C 96.738281 31.410156 96.476562 31.167969 96.246094 31.023438 C 96.078125 30.914062 96.042969 30.621094 96.191406 30.554688 C 96.460938 30.433594 96.765625 30.214844 97.113281 30.425781 C 97.179688 30.675781 97.226562 30.941406 97.023438 31.140625 Z M 120.828125 57.527344 C 120.746094 57.664062 120.734375 57.804688 120.800781 57.949219 C 120.734375 57.804688 120.746094 57.664062 120.828125 57.527344 Z M 120.855469 58.5 C 120.554688 58.449219 120.933594 58.292969 120.949219 58.171875 C 121.808594 57.785156 122.222656 58.054688 122.144531 58.945312 C 122.027344 59.046875 122.015625 59.152344 122.121094 59.273438 C 122.175781 59.367188 122.285156 59.433594 122.257812 59.566406 C 122.007812 59.804688 121.859375 59.703125 121.71875 59.429688 C 121.519531 59.046875 121.4375 58.589844 120.851562 58.496094 Z M 120.855469 58.5 " fill-opacity="1" fill-rule="nonzero"/></g></g></g><g clip-path="url(#4a52a04920)"><g clip-path="url(#fc1f0b661f)"><g clip-path="url(#8f9f5f4c51)"><path fill="#535455" d="M 180.546875 182.867188 C 180.078125 182.300781 179.574219 182.933594 179.082031 182.832031 C 178.996094 182.816406 178.566406 183.066406 178.378906 183.421875 C 178.128906 183.882812 177.621094 184.238281 177.070312 184.429688 C 176.945312 184.296875 176.820312 184.171875 176.695312 184.042969 C 176.863281 183.636719 176.546875 183.441406 176.339844 183.191406 C 176.339844 182.933594 176.339844 182.683594 176.34375 182.425781 C 176.542969 182.28125 176.628906 182.046875 176.734375 181.84375 C 176.855469 181.59375 176.65625 181.214844 177.003906 181.058594 C 177.328125 180.914062 177.535156 181.203125 177.789062 181.324219 C 177.863281 181.359375 178.011719 181.421875 178.03125 181.328125 C 178.078125 181.105469 178.121094 180.859375 178.078125 180.636719 C 178.035156 180.4375 177.84375 180.308594 177.617188 180.320312 C 176.328125 180.367188 175.042969 180.472656 173.886719 181.105469 C 173.570312 181.277344 173.097656 181.242188 172.929688 181.574219 C 172.664062 182.105469 172.066406 182.089844 171.8125 181.988281 C 171.191406 181.753906 170.808594 182.183594 170.351562 182.332031 C 169.464844 182.617188 168.691406 183.183594 167.796875 183.488281 C 167.433594 183.613281 166.992188 183.386719 166.792969 183.621094 C 166.542969 183.902344 166.308594 183.871094 166.027344 183.875 C 165.851562 183.875 165.636719 183.824219 165.542969 184.03125 C 165.4375 184.261719 165.292969 184.21875 165.09375 184.1875 C 164.828125 184.144531 164.511719 184.085938 164.285156 184.1875 C 163.464844 184.554688 162.78125 184.78125 162.136719 184.792969 C 161.996094 184.796875 161.917969 184.855469 161.953125 184.992188 C 162.09375 185.625 161.554688 185.460938 161.265625 185.558594 C 161.082031 185.617188 160.535156 184.960938 160.804688 185.824219 C 160.804688 185.832031 160.78125 185.867188 160.769531 185.863281 C 160.292969 185.777344 160.09375 186.433594 159.5625 186.269531 C 159.089844 186.125 158.4375 186.320312 158.253906 186.582031 C 157.789062 187.257812 156.84375 186.742188 156.488281 187.453125 C 155.742188 187.414062 155.441406 188.066406 154.957031 188.433594 C 154.820312 188.535156 154.875 188.734375 154.992188 188.820312 C 155.5 189.1875 155.4375 189.496094 154.925781 189.789062 C 154.867188 189.820312 154.824219 189.894531 154.792969 189.960938 C 154.582031 190.410156 154.410156 190.292969 154.058594 190.035156 C 153.738281 189.800781 153.210938 190.015625 152.8125 189.753906 C 152.679688 189.664062 152.695312 190.101562 152.445312 190.046875 C 152.273438 189.882812 152.484375 189.398438 152.195312 189.496094 C 151.96875 189.570312 151.605469 189.570312 151.503906 189.742188 C 151.191406 190.289062 150.582031 190.351562 150.140625 190.675781 C 149.875 190.875 149.496094 191.304688 149.300781 191.195312 C 148.792969 190.917969 148.46875 191.269531 148.078125 191.375 C 147.832031 191.4375 147.648438 191.644531 147.371094 191.730469 C 146.832031 191.886719 146.25 191.992188 145.757812 192.210938 C 145.089844 192.503906 144.449219 192.671875 143.730469 192.734375 C 143.296875 192.773438 142.828125 192.957031 142.730469 193.511719 C 142.664062 193.863281 142.640625 194.238281 142.105469 194.054688 C 142.015625 194.023438 141.929688 194.097656 141.898438 194.191406 C 141.804688 194.441406 141.582031 194.429688 141.375 194.507812 C 141.0625 194.628906 140.480469 194.59375 140.722656 195.238281 C 140.75 195.308594 140.703125 195.367188 140.652344 195.425781 C 140.324219 195.820312 139.671875 195.691406 139.402344 196.203125 C 139.371094 196.261719 139.097656 196.25 138.945312 196.136719 C 138.496094 195.785156 138.082031 195.867188 137.867188 196.394531 C 137.722656 196.746094 137.511719 196.820312 137.164062 196.847656 C 136.667969 196.886719 136.1875 197.039062 135.957031 197.558594 C 135.878906 197.742188 135.703125 197.804688 135.566406 197.917969 C 135.308594 198.152344 134.804688 198.144531 134.789062 198.605469 C 134.777344 199.015625 134.53125 198.996094 134.273438 198.941406 C 133.890625 198.859375 133.5 198.871094 133.179688 199.054688 C 132.492188 199.441406 132.503906 199.464844 131.957031 198.855469 C 132.03125 198.808594 132.136719 198.707031 132.175781 198.726562 C 132.847656 199.066406 132.59375 198.527344 132.585938 198.285156 C 132.582031 198.105469 132.503906 197.921875 132.273438 197.890625 C 131.980469 197.855469 131.929688 197.683594 131.996094 197.417969 C 132.0625 197.164062 131.902344 196.894531 131.703125 196.929688 C 131.230469 197.007812 131.269531 196.816406 131.332031 196.484375 C 131.378906 196.226562 131.226562 195.992188 131.132812 195.757812 C 131.015625 195.453125 130.816406 195.144531 130.8125 194.839844 C 130.816406 193.828125 130.628906 192.824219 130.488281 191.835938 C 130.367188 190.972656 129.917969 190.144531 129.660156 189.289062 C 129.582031 189.039062 129.546875 188.878906 129.65625 188.65625 C 129.886719 188.167969 130.082031 187.667969 129.570312 187.214844 C 129.429688 187.09375 129.402344 186.90625 129.476562 186.757812 C 129.886719 185.976562 129.480469 185.109375 129.75 184.308594 C 129.785156 184.203125 129.78125 184.039062 129.609375 184 C 129.464844 183.964844 129.363281 184.046875 129.300781 184.167969 C 129.191406 184.359375 129.070312 184.535156 128.816406 184.613281 C 128.605469 184.085938 128.84375 183.683594 129.1875 183.351562 C 129.40625 183.140625 129.519531 182.855469 129.386719 182.671875 C 129.039062 182.199219 129.203125 181.785156 129.398438 181.347656 C 129.535156 181.046875 129.351562 180.859375 129.144531 180.699219 C 128.929688 180.535156 128.769531 180.679688 128.621094 180.824219 C 128.449219 180.988281 128.28125 181.15625 128.105469 181.3125 C 128.019531 181.394531 127.917969 181.445312 127.824219 181.324219 C 127.652344 181.113281 127.773438 180.496094 128.019531 180.335938 C 128.164062 180.242188 128.273438 180.125 128.339844 179.96875 C 128.40625 179.816406 128.53125 179.738281 128.695312 179.792969 C 129.167969 179.945312 129.175781 179.621094 129.175781 179.320312 C 129.171875 179.171875 129.167969 179.046875 129.234375 178.902344 C 129.488281 178.347656 129.492188 177.761719 129.453125 177.152344 C 129.410156 176.425781 129.117188 175.746094 129.164062 175.007812 C 129.21875 174.1875 129.121094 174.101562 128.269531 174.238281 C 128.007812 174.277344 127.90625 174.167969 127.886719 173.984375 C 127.855469 173.71875 127.804688 173.414062 128.042969 173.207031 C 128.449219 172.863281 128.074219 172.277344 128.453125 171.925781 C 128.460938 171.917969 128.398438 171.792969 128.34375 171.761719 C 128.109375 171.625 128.179688 171.488281 128.300781 171.3125 C 128.5 171.027344 128.496094 170.78125 128.121094 170.613281 C 127.976562 170.546875 127.863281 170.417969 127.734375 170.3125 C 127.625 170.128906 127.621094 169.957031 127.78125 169.796875 C 128.082031 169.816406 128.191406 169.703125 128.035156 169.421875 C 127.953125 169.261719 127.855469 169.117188 127.761719 168.960938 C 127.785156 168.941406 127.792969 168.914062 127.796875 168.878906 C 128.34375 168.785156 128.515625 168.445312 128.519531 167.914062 C 128.523438 167.140625 127.980469 166.492188 128.074219 165.710938 C 128.078125 165.675781 128 165.636719 127.96875 165.59375 C 127.539062 165.074219 127.8125 164.355469 127.492188 163.804688 C 127.472656 163.769531 127.621094 163.667969 127.636719 163.585938 C 127.707031 163.203125 128.117188 162.855469 127.886719 162.460938 C 127.664062 162.082031 127.660156 161.699219 127.671875 161.296875 C 127.695312 160.402344 126.996094 159.78125 126.769531 158.984375 C 126.753906 158.9375 126.703125 158.886719 126.652344 158.875 C 126.28125 158.757812 126.148438 158.425781 125.976562 158.125 C 125.769531 157.757812 125.492188 157.507812 125.109375 157.277344 C 124.730469 157.050781 124.34375 157.171875 124.0625 157.054688 C 123.378906 156.773438 122.539062 156.671875 122.148438 155.882812 C 122.078125 155.738281 121.925781 155.566406 121.757812 155.734375 C 121.386719 156.117188 121.148438 155.847656 120.921875 155.589844 C 120.816406 155.472656 120.71875 155.40625 120.597656 155.480469 C 120.261719 155.6875 120.035156 155.449219 119.8125 155.289062 C 119.601562 155.136719 119.398438 154.96875 119.210938 155.238281 C 119.054688 155.476562 119.199219 155.683594 119.433594 155.820312 C 119.667969 155.953125 119.746094 156.035156 119.457031 156.277344 C 119.050781 156.621094 118.859375 157.101562 119.152344 157.640625 C 119.25 157.824219 119.371094 158.074219 119.183594 158.191406 C 118.753906 158.445312 119.027344 158.691406 119.148438 158.921875 C 119.488281 159.554688 119.496094 159.550781 119.503906 160.074219 C 119.503906 160.105469 119.519531 160.144531 119.542969 160.171875 C 119.917969 160.558594 119.632812 161.054688 119.746094 161.484375 C 119.773438 161.582031 119.738281 161.820312 119.5 161.671875 C 119.398438 161.609375 119.417969 161.320312 119.203125 161.464844 C 119.027344 161.585938 119.078125 161.796875 119.136719 161.96875 C 119.226562 162.242188 119.496094 162.578125 119.414062 162.765625 C 119.160156 163.328125 119.367188 163.574219 119.855469 163.761719 C 119.964844 163.800781 120.035156 163.894531 120.023438 164.019531 C 120.003906 164.195312 119.863281 164.1875 119.734375 164.195312 C 119.566406 164.203125 119.359375 164.1875 119.371094 164.421875 C 119.390625 165.03125 119.246094 165.660156 119.265625 166.230469 C 119.285156 166.964844 119.363281 167.75 119.582031 168.480469 C 119.699219 168.882812 119.820312 169.242188 119.714844 169.683594 C 119.644531 169.988281 119.671875 170.355469 119.660156 170.679688 C 119.640625 171.09375 120.054688 171.335938 119.941406 171.695312 C 119.84375 172.035156 120.015625 172.210938 120.203125 172.410156 C 120.359375 172.253906 120.507812 172.195312 120.679688 172.253906 C 120.503906 172.195312 120.355469 172.25 120.203125 172.410156 C 120.503906 172.910156 120.828125 173.394531 121.144531 173.882812 C 120.828125 173.394531 120.5 172.914062 120.203125 172.410156 C 119.90625 172.691406 119.804688 173.210938 119.949219 173.402344 C 120.175781 173.703125 120.25 173.976562 120.253906 174.316406 C 120.257812 174.339844 120.308594 174.367188 120.339844 174.378906 C 120.953125 174.582031 120.789062 175.070312 120.785156 175.527344 C 120.785156 175.945312 120.292969 176.265625 120.378906 176.527344 C 120.527344 176.972656 120.453125 177.390625 120.507812 177.8125 C 120.574219 178.296875 120.730469 178.792969 121.050781 179.203125 C 120.320312 180.269531 120.660156 181.464844 120.734375 182.601562 C 120.761719 183.066406 120.746094 183.675781 121.238281 184.046875 C 121.320312 184.109375 121.308594 184.257812 121.214844 184.347656 C 120.792969 184.738281 120.90625 185.105469 121.257812 185.457031 C 121.5 185.691406 121.542969 185.90625 121.273438 186.15625 C 121.199219 186.226562 121.140625 186.335938 121.117188 186.4375 C 120.910156 187.386719 120.457031 188.3125 120.882812 189.332031 C 120.972656 189.554688 120.988281 189.871094 121.066406 190.117188 C 121.371094 191.058594 121.324219 192.085938 121.832031 192.980469 C 121.980469 193.242188 122.015625 193.65625 121.738281 193.835938 C 121.34375 194.09375 121.46875 194.390625 121.546875 194.691406 C 121.597656 194.875 121.652344 195.042969 121.566406 195.21875 C 121.359375 195.648438 121.597656 195.9375 121.871094 196.210938 C 122.023438 196.367188 122.179688 196.492188 122.210938 196.738281 C 122.316406 197.65625 122.722656 198.488281 123.320312 199.144531 C 123.828125 199.703125 123.960938 200.320312 124.0625 200.992188 C 124.089844 201.175781 123.960938 201.417969 124.210938 201.527344 C 124.46875 201.644531 124.53125 201.386719 124.671875 201.257812 C 124.789062 201.148438 124.996094 201.0625 125.121094 201.183594 C 125.277344 201.339844 125.050781 201.425781 124.964844 201.523438 C 124.828125 201.675781 124.71875 201.925781 124.847656 202.007812 C 125.304688 202.292969 125.300781 202.867188 125.644531 203.183594 C 126.027344 203.53125 126.394531 203.894531 126.691406 204.316406 C 126.769531 204.421875 126.890625 204.480469 126.96875 204.414062 C 127.285156 204.152344 127.710938 204.394531 128.046875 204.136719 C 128.28125 203.957031 128.542969 204.160156 128.679688 204.398438 C 128.828125 204.65625 128.550781 204.738281 128.441406 204.882812 C 128.28125 205.101562 127.976562 204.921875 127.773438 205.125 C 127.820312 205.179688 127.847656 205.253906 127.90625 205.285156 C 128.167969 205.421875 128.589844 205.355469 128.582031 205.835938 C 128.578125 205.851562 128.671875 205.894531 128.722656 205.890625 C 129.042969 205.871094 129.378906 206 129.6875 205.820312 C 129.785156 205.765625 129.886719 205.679688 129.976562 205.804688 C 130.074219 205.929688 129.960938 206 129.859375 206.050781 C 129.777344 206.09375 129.675781 206.128906 129.714844 206.242188 C 129.746094 206.363281 129.863281 206.386719 129.976562 206.394531 C 130.367188 206.425781 130.746094 206.386719 131.082031 206.15625 C 131.441406 205.914062 131.769531 205.792969 132.023438 206.289062 C 132.097656 206.4375 132.277344 206.527344 132.378906 206.390625 C 132.6875 205.96875 133.246094 205.96875 133.582031 205.617188 C 133.800781 205.386719 134.066406 205.367188 134.339844 205.464844 C 134.550781 205.53125 134.242188 206.097656 134.761719 205.910156 C 134.824219 205.886719 134.925781 206.039062 134.882812 206.167969 C 134.867188 206.21875 134.828125 206.273438 134.832031 206.324219 C 134.851562 206.507812 135.027344 206.554688 135.082031 206.425781 C 135.273438 205.976562 135.519531 206.207031 135.761719 206.328125 C 136.054688 206.476562 136.351562 206.402344 136.617188 206.296875 C 137.183594 206.070312 137.730469 205.800781 138.183594 205.351562 C 138.539062 204.992188 138.9375 204.707031 139.507812 204.710938 C 139.949219 204.707031 140.453125 204.59375 140.78125 204.3125 C 141.246094 203.914062 141.84375 203.734375 142.269531 203.289062 C 142.441406 203.113281 142.707031 203.0625 142.980469 203.054688 C 143.585938 203.050781 144.019531 202.757812 144.207031 202.164062 C 144.285156 201.910156 144.433594 201.730469 144.699219 201.722656 C 145.050781 201.714844 145.3125 201.519531 145.582031 201.339844 C 146.042969 201.03125 146.601562 200.957031 147.109375 200.902344 C 147.566406 200.859375 147.910156 200.734375 148.101562 200.382812 C 148.304688 200.011719 148.628906 199.949219 148.929688 199.996094 C 149.300781 200.054688 149.570312 199.941406 149.835938 199.734375 C 149.941406 199.652344 150.050781 199.613281 150.1875 199.605469 C 150.832031 199.585938 151.355469 199.34375 151.847656 198.910156 C 152.28125 198.535156 152.828125 198.273438 153.359375 198.027344 C 154.019531 197.722656 154.714844 197.488281 155.394531 197.21875 C 155.65625 197.113281 155.925781 196.949219 155.988281 196.679688 C 156.09375 196.21875 156.476562 196.238281 156.707031 196.328125 C 157.183594 196.523438 157.457031 196.300781 157.648438 195.964844 C 157.988281 195.382812 158.621094 195.007812 158.820312 194.328125 C 158.878906 194.136719 159.046875 194.164062 159.1875 194.171875 C 159.394531 194.1875 159.570312 194.132812 159.75 194.007812 C 159.964844 193.855469 160.203125 193.753906 160.507812 193.785156 C 160.769531 193.808594 161.046875 193.703125 161.285156 193.558594 C 162.125 193.054688 162.984375 192.582031 163.625 191.808594 C 163.691406 191.726562 163.734375 191.574219 163.863281 191.640625 C 164.246094 191.820312 164.59375 191.386719 164.980469 191.589844 C 165.078125 191.644531 165.210938 191.5625 165.230469 191.4375 C 165.292969 191.039062 165.683594 190.90625 165.878906 190.609375 C 166.023438 190.382812 166.292969 190.234375 166.582031 190.480469 C 166.703125 190.582031 166.859375 190.546875 167 190.574219 C 167.53125 190.667969 167.988281 190.347656 168.492188 190.320312 C 168.816406 190.304688 168.941406 190.097656 168.921875 189.871094 C 168.886719 189.363281 169.199219 189.296875 169.570312 189.285156 C 169.667969 189.28125 169.835938 189.359375 169.785156 189.175781 C 169.691406 188.855469 169.949219 189.027344 169.996094 188.976562 C 170.28125 188.675781 170.652344 188.765625 170.980469 188.695312 C 171.335938 188.617188 171.363281 188.199219 171.53125 188.09375 C 172.035156 187.773438 172.320312 187.285156 172.691406 186.875 C 173.320312 186.175781 174.066406 186.140625 174.574219 186.898438 C 174.683594 187.066406 174.757812 187.179688 174.9375 187.015625 C 175.375 186.621094 175.828125 186.257812 176.410156 186.109375 C 176.699219 186.039062 176.808594 185.746094 177.09375 185.617188 C 177.730469 185.332031 178.417969 185.535156 179.0625 185.210938 C 180.09375 184.691406 181.074219 184.210938 181.242188 182.871094 C 180.96875 182.953125 180.703125 183.082031 180.527344 182.871094 Z M 129.09375 194.070312 C 129.003906 194.132812 128.921875 194.125 128.839844 194.085938 C 128.757812 194.035156 128.707031 193.957031 128.714844 193.859375 C 128.71875 193.699219 128.898438 193.570312 128.796875 193.394531 C 128.855469 193.320312 128.921875 193.242188 128.980469 193.167969 C 129.3125 193.347656 129.375 193.855469 129.097656 194.074219 Z M 121.261719 174.054688 C 121.558594 174.519531 121.847656 174.992188 122.097656 175.488281 C 121.851562 174.992188 121.558594 174.519531 121.261719 174.054688 Z M 121.261719 174.054688 " fill-opacity="1" fill-rule="nonzero"/></g></g></g><g clip-path="url(#3daf68aa38)"><g clip-path="url(#4244a9d741)"><g clip-path="url(#afee6f582f)"><path fill="#535455" d="M 184.964844 179.515625 C 184.367188 179.789062 183.773438 180.203125 183.085938 179.699219 C 182.992188 179.628906 182.789062 179.535156 182.679688 179.65625 C 182.542969 179.808594 182.640625 180.007812 182.703125 180.171875 C 182.816406 180.480469 182.96875 180.773438 183.078125 181.078125 C 183.105469 181.144531 183.058594 181.257812 183.007812 181.324219 C 182.949219 181.398438 182.839844 181.335938 182.835938 181.277344 C 182.789062 180.816406 182.261719 180.570312 182.320312 180.050781 C 182.359375 179.671875 182.027344 179.667969 181.765625 179.613281 C 181.828125 180.242188 181.164062 180.296875 180.921875 180.679688 C 180.90625 180.691406 180.914062 180.71875 180.910156 180.730469 C 180.757812 180.941406 180.78125 181.226562 180.601562 181.421875 C 180.488281 181.546875 180.476562 181.71875 180.625 181.808594 C 181.414062 182.273438 182.109375 182.972656 183.152344 182.777344 C 183.222656 182.765625 183.296875 182.738281 183.34375 182.695312 C 183.410156 182.628906 183.375 182.550781 183.304688 182.515625 C 182.691406 182.210938 183.128906 181.914062 183.328125 181.554688 C 183.40625 181.65625 183.4375 181.695312 183.46875 181.738281 C 183.984375 182.5 184.832031 182.503906 185.324219 181.746094 C 185.40625 181.621094 185.402344 181.511719 185.316406 181.390625 C 184.777344 180.65625 184.949219 180.046875 185.777344 179.75 C 185.867188 179.71875 185.957031 179.679688 185.949219 179.566406 C 185.945312 179.453125 185.859375 179.429688 185.757812 179.414062 C 185.484375 179.382812 185.230469 179.394531 184.964844 179.519531 Z M 184.964844 179.515625 " fill-opacity="1" fill-rule="nonzero"/></g></g></g><g clip-path="url(#6b6311458b)"><g clip-path="url(#1012dc9449)"><g clip-path="url(#fac5e9a5a2)"><path fill="#535455" d="M 72.550781 9.472656 C 72.691406 9.648438 72.953125 9.90625 73.160156 9.539062 C 73.277344 9.324219 73.335938 9.050781 73.269531 8.792969 C 73.082031 8.101562 73.078125 8.09375 73.773438 8.042969 C 74.027344 8.023438 74.304688 7.84375 74.191406 7.691406 C 73.917969 7.332031 74.160156 7.03125 74.167969 6.710938 C 74.171875 6.453125 74.144531 6.300781 73.847656 6.398438 C 73.703125 6.445312 73.550781 6.5 73.472656 6.320312 C 73.398438 6.164062 73.496094 6.007812 73.632812 5.957031 C 73.949219 5.828125 73.949219 5.523438 73.804688 5.386719 C 73.554688 5.148438 73.332031 4.824219 72.941406 4.78125 C 72.914062 4.777344 72.855469 4.84375 72.847656 4.886719 C 72.753906 5.332031 72.335938 5.484375 72.066406 5.773438 C 71.945312 5.90625 71.824219 6.019531 71.757812 6.210938 C 71.648438 6.519531 72.179688 6.550781 72.007812 6.792969 C 71.878906 6.964844 71.496094 6.699219 71.40625 7.007812 C 70.871094 7.515625 70.804688 8.113281 71.292969 8.316406 C 71.875 8.5625 72.1875 9.019531 72.550781 9.472656 Z M 72.066406 7.207031 C 72.21875 7.167969 72.375 7.132812 72.460938 7.277344 C 72.527344 7.382812 72.539062 7.550781 72.441406 7.621094 C 72.273438 7.753906 72.203125 7.550781 72.113281 7.464844 C 72.035156 7.394531 71.972656 7.304688 72.066406 7.203125 Z M 72.066406 7.207031 " fill-opacity="1" fill-rule="nonzero"/></g></g></g><g clip-path="url(#8e70664990)"><g clip-path="url(#25ec3321fc)"><g clip-path="url(#1f6531c5a8)"><path fill="#535455" d="M 81.703125 12.363281 C 81.984375 12.128906 81.652344 11.886719 81.523438 11.722656 C 81.363281 11.519531 81.082031 11.359375 80.859375 11.667969 C 80.652344 11.863281 80.464844 12.101562 80.746094 12.277344 C 81.019531 12.449219 81.40625 12.601562 81.703125 12.363281 Z M 81.703125 12.363281 " fill-opacity="1" fill-rule="nonzero"/></g></g></g><g clip-path="url(#1c97420ca3)"><g clip-path="url(#245048fffa)"><g clip-path="url(#60c9bf696c)"><path fill="#535455" d="M 73.5625 10.597656 C 73.910156 10.550781 74.101562 10.566406 74.246094 10.492188 C 74.75 10.246094 74.183594 10.113281 74.171875 9.917969 C 73.863281 10.003906 73.875 10.332031 73.5625 10.597656 Z M 73.5625 10.597656 " fill-opacity="1" fill-rule="nonzero"/></g></g></g></g></g></g><g mask="url(#a50563be4f)"><g transform="matrix(1, 0, 0, 1, 34, 64)"><g clip-path="url(#27373eab04)"><g fill="#535455" fill-opacity="1"><g transform="translate(0.447795, 84.398843)"><g><path d="M 9.453125 0.078125 C 7.835938 0.078125 7.03125 -1.703125 7.03125 -5.265625 C 7.03125 -11.734375 6.734375 -22.078125 6.140625 -36.296875 C 5.554688 -50.515625 5.015625 -58.015625 4.515625 -58.796875 C 4.515625 -60.359375 5.128906 -61.554688 6.359375 -62.390625 C 6.804688 -62.671875 7.429688 -62.910156 8.234375 -63.109375 C 9.046875 -63.304688 9.785156 -63.40625 10.453125 -63.40625 C 10.785156 -63.457031 11.484375 -63.484375 12.546875 -63.484375 C 13.828125 -63.484375 14.742188 -63.273438 15.296875 -62.859375 C 15.859375 -62.441406 16.140625 -61.703125 16.140625 -60.640625 C 16.140625 -60.023438 15.914062 -59.5625 15.46875 -59.25 C 15.019531 -58.945312 14.460938 -58.796875 13.796875 -58.796875 L 12.96875 -58.890625 L 11.796875 -58.890625 C 10.234375 -58.890625 9.453125 -58.582031 9.453125 -57.96875 C 9.453125 -55.0625 9.644531 -51.269531 10.03125 -46.59375 C 10.363281 -42.6875 10.585938 -38.976562 10.703125 -35.46875 C 11.097656 -35.570312 11.835938 -35.75 12.921875 -36 C 14.003906 -36.257812 14.828125 -36.390625 15.390625 -36.390625 C 16.003906 -36.390625 16.53125 -36.125 16.96875 -35.59375 C 17.414062 -35.0625 17.640625 -34.460938 17.640625 -33.796875 C 17.640625 -33.015625 17.28125 -32.457031 16.5625 -32.125 C 16.445312 -32.0625 16.179688 -31.929688 15.765625 -31.734375 C 15.347656 -31.546875 14.804688 -31.421875 14.140625 -31.359375 C 13.628906 -31.304688 12.789062 -31.222656 11.625 -31.109375 L 10.703125 -31.109375 C 10.703125 -27.765625 10.984375 -23.222656 11.546875 -17.484375 C 12.046875 -11.460938 12.296875 -6.914062 12.296875 -3.84375 L 12.21875 -3.515625 L 12.125 -3.34375 C 12.1875 -3.125 12.21875 -2.765625 12.21875 -2.265625 C 12.21875 -1.535156 11.960938 -0.960938 11.453125 -0.546875 C 10.953125 -0.128906 10.285156 0.078125 9.453125 0.078125 Z M 9.453125 0.078125 "/></g></g></g><g fill="#535455" fill-opacity="1"><g transform="translate(22.611509, 84.398843)"><g><path d="M 14.890625 1.59375 C 13.441406 1.59375 12.101562 1.128906 10.875 0.203125 C 9.644531 -0.710938 8.640625 -1.953125 7.859375 -3.515625 C 6.242188 -6.910156 5.238281 -10.617188 4.84375 -14.640625 C 4.34375 -18.429688 4.09375 -22.082031 4.09375 -25.59375 C 4.09375 -26.257812 4.125 -26.816406 4.1875 -27.265625 L 4.1875 -28.765625 C 4.1875 -29.046875 4.15625 -29.1875 4.09375 -29.1875 L 4.09375 -30.703125 L 4.1875 -36.546875 C 4.238281 -38.335938 4.457031 -41.179688 4.84375 -45.078125 C 5.125 -47.753906 5.769531 -50.347656 6.78125 -52.859375 C 7.164062 -53.972656 7.664062 -54.820312 8.28125 -55.40625 C 8.894531 -56 9.59375 -56.296875 10.375 -56.296875 C 12.601562 -56.296875 14.609375 -55.890625 16.390625 -55.078125 C 18.171875 -54.265625 19.675781 -53.132812 20.90625 -51.6875 C 22.019531 -50.289062 22.96875 -48.578125 23.75 -46.546875 C 24.53125 -44.515625 25.085938 -42.351562 25.421875 -40.0625 C 25.753906 -37.71875 25.921875 -35.238281 25.921875 -32.625 L 25.921875 -31.953125 C 25.921875 -30.222656 25.953125 -28.660156 26.015625 -27.265625 L 26.09375 -22.5 C 26.09375 -6.4375 22.359375 1.59375 14.890625 1.59375 Z M 14.546875 -1.921875 C 15.554688 -1.921875 16.476562 -2.320312 17.3125 -3.125 C 18.144531 -3.9375 18.785156 -5.039062 19.234375 -6.4375 C 20.296875 -9.28125 20.9375 -12.347656 21.15625 -15.640625 C 21.4375 -18.484375 21.578125 -20.9375 21.578125 -23 C 21.578125 -25.507812 21.382812 -28.800781 21 -32.875 C 20.65625 -37.164062 20.484375 -40.367188 20.484375 -42.484375 L 20.484375 -44 C 20.378906 -46.113281 19.671875 -47.953125 18.359375 -49.515625 C 17.046875 -51.078125 15.441406 -51.859375 13.546875 -51.859375 C 11.648438 -51.859375 10.394531 -50.769531 9.78125 -48.59375 C 9.226562 -46.863281 8.953125 -44.632812 8.953125 -41.90625 C 8.953125 -40.84375 8.976562 -39.953125 9.03125 -39.234375 L 9.03125 -36.96875 L 8.859375 -33.125 C 8.753906 -31.945312 8.703125 -30.664062 8.703125 -29.28125 C 8.703125 -26.257812 8.785156 -23.273438 8.953125 -20.328125 C 9.171875 -16.140625 9.726562 -12.066406 10.625 -8.109375 C 11.507812 -3.984375 12.816406 -1.921875 14.546875 -1.921875 Z M 14.546875 -1.921875 "/></g></g></g><g fill="#535455" fill-opacity="1"><g transform="translate(52.720695, 84.398843)"><g><path d="M 17.984375 1.34375 C 15.972656 0.664062 13.488281 0.328125 10.53125 0.328125 C 9.644531 0.890625 8.695312 1.171875 7.6875 1.171875 C 7.019531 1.171875 6.445312 0.878906 5.96875 0.296875 C 5.5 -0.285156 5.265625 -0.914062 5.265625 -1.59375 C 5.265625 -6.269531 5.460938 -12.515625 5.859375 -20.328125 C 6.191406 -28.628906 6.359375 -34.84375 6.359375 -38.96875 L 6.359375 -39.5625 C 6.023438 -43.070312 5.859375 -45.691406 5.859375 -47.421875 C 5.859375 -52.722656 6.832031 -55.375 8.78125 -55.375 C 9.34375 -55.375 9.832031 -55.160156 10.25 -54.734375 C 10.664062 -54.316406 10.875 -53.832031 10.875 -53.28125 C 10.875 -52.613281 10.789062 -51.550781 10.625 -50.09375 C 10.457031 -48.707031 10.375 -47.648438 10.375 -46.921875 C 10.375 -43.179688 10.398438 -39.804688 10.453125 -36.796875 C 10.503906 -33.847656 10.53125 -30.503906 10.53125 -26.765625 C 10.257812 -25.929688 10.125 -24.757812 10.125 -23.25 L 10.125 -22.25 L 9.953125 -15.640625 C 9.835938 -13.691406 9.78125 -11.460938 9.78125 -8.953125 C 9.78125 -5.097656 10.703125 -3.171875 12.546875 -3.171875 C 12.660156 -3.171875 12.84375 -3.1875 13.09375 -3.21875 C 13.34375 -3.25 13.691406 -3.265625 14.140625 -3.265625 C 14.640625 -3.316406 15.28125 -3.34375 16.0625 -3.34375 C 19.070312 -3.34375 20.578125 -2.507812 20.578125 -0.84375 C 20.578125 -0.28125 20.320312 0.191406 19.8125 0.578125 C 19.3125 0.972656 18.703125 1.226562 17.984375 1.34375 Z M 17.984375 1.34375 "/></g></g></g><g fill="#535455" fill-opacity="1"><g transform="translate(75.135309, 84.398843)"><g><path d="M 17.984375 1.34375 C 15.972656 0.664062 13.488281 0.328125 10.53125 0.328125 C 9.644531 0.890625 8.695312 1.171875 7.6875 1.171875 C 7.019531 1.171875 6.445312 0.878906 5.96875 0.296875 C 5.5 -0.285156 5.265625 -0.914062 5.265625 -1.59375 C 5.265625 -6.269531 5.460938 -12.515625 5.859375 -20.328125 C 6.191406 -28.628906 6.359375 -34.84375 6.359375 -38.96875 L 6.359375 -39.5625 C 6.023438 -43.070312 5.859375 -45.691406 5.859375 -47.421875 C 5.859375 -52.722656 6.832031 -55.375 8.78125 -55.375 C 9.34375 -55.375 9.832031 -55.160156 10.25 -54.734375 C 10.664062 -54.316406 10.875 -53.832031 10.875 -53.28125 C 10.875 -52.613281 10.789062 -51.550781 10.625 -50.09375 C 10.457031 -48.707031 10.375 -47.648438 10.375 -46.921875 C 10.375 -43.179688 10.398438 -39.804688 10.453125 -36.796875 C 10.503906 -33.847656 10.53125 -30.503906 10.53125 -26.765625 C 10.257812 -25.929688 10.125 -24.757812 10.125 -23.25 L 10.125 -22.25 L 9.953125 -15.640625 C 9.835938 -13.691406 9.78125 -11.460938 9.78125 -8.953125 C 9.78125 -5.097656 10.703125 -3.171875 12.546875 -3.171875 C 12.660156 -3.171875 12.84375 -3.1875 13.09375 -3.21875 C 13.34375 -3.25 13.691406 -3.265625 14.140625 -3.265625 C 14.640625 -3.316406 15.28125 -3.34375 16.0625 -3.34375 C 19.070312 -3.34375 20.578125 -2.507812 20.578125 -0.84375 C 20.578125 -0.28125 20.320312 0.191406 19.8125 0.578125 C 19.3125 0.972656 18.703125 1.226562 17.984375 1.34375 Z M 17.984375 1.34375 "/></g></g></g><g fill="#535455" fill-opacity="1"><g transform="translate(97.549923, 84.398843)"><g><path d="M 14.890625 1.59375 C 13.441406 1.59375 12.101562 1.128906 10.875 0.203125 C 9.644531 -0.710938 8.640625 -1.953125 7.859375 -3.515625 C 6.242188 -6.910156 5.238281 -10.617188 4.84375 -14.640625 C 4.34375 -18.429688 4.09375 -22.082031 4.09375 -25.59375 C 4.09375 -26.257812 4.125 -26.816406 4.1875 -27.265625 L 4.1875 -28.765625 C 4.1875 -29.046875 4.15625 -29.1875 4.09375 -29.1875 L 4.09375 -30.703125 L 4.1875 -36.546875 C 4.238281 -38.335938 4.457031 -41.179688 4.84375 -45.078125 C 5.125 -47.753906 5.769531 -50.347656 6.78125 -52.859375 C 7.164062 -53.972656 7.664062 -54.820312 8.28125 -55.40625 C 8.894531 -56 9.59375 -56.296875 10.375 -56.296875 C 12.601562 -56.296875 14.609375 -55.890625 16.390625 -55.078125 C 18.171875 -54.265625 19.675781 -53.132812 20.90625 -51.6875 C 22.019531 -50.289062 22.96875 -48.578125 23.75 -46.546875 C 24.53125 -44.515625 25.085938 -42.351562 25.421875 -40.0625 C 25.753906 -37.71875 25.921875 -35.238281 25.921875 -32.625 L 25.921875 -31.953125 C 25.921875 -30.222656 25.953125 -28.660156 26.015625 -27.265625 L 26.09375 -22.5 C 26.09375 -6.4375 22.359375 1.59375 14.890625 1.59375 Z M 14.546875 -1.921875 C 15.554688 -1.921875 16.476562 -2.320312 17.3125 -3.125 C 18.144531 -3.9375 18.785156 -5.039062 19.234375 -6.4375 C 20.296875 -9.28125 20.9375 -12.347656 21.15625 -15.640625 C 21.4375 -18.484375 21.578125 -20.9375 21.578125 -23 C 21.578125 -25.507812 21.382812 -28.800781 21 -32.875 C 20.65625 -37.164062 20.484375 -40.367188 20.484375 -42.484375 L 20.484375 -44 C 20.378906 -46.113281 19.671875 -47.953125 18.359375 -49.515625 C 17.046875 -51.078125 15.441406 -51.859375 13.546875 -51.859375 C 11.648438 -51.859375 10.394531 -50.769531 9.78125 -48.59375 C 9.226562 -46.863281 8.953125 -44.632812 8.953125 -41.90625 C 8.953125 -40.84375 8.976562 -39.953125 9.03125 -39.234375 L 9.03125 -36.96875 L 8.859375 -33.125 C 8.753906 -31.945312 8.703125 -30.664062 8.703125 -29.28125 C 8.703125 -26.257812 8.785156 -23.273438 8.953125 -20.328125 C 9.171875 -16.140625 9.726562 -12.066406 10.625 -8.109375 C 11.507812 -3.984375 12.816406 -1.921875 14.546875 -1.921875 Z M 14.546875 -1.921875 "/></g></g></g><g fill="#535455" fill-opacity="1"><g transform="translate(127.659109, 84.398843)"><g><path d="M 11.203125 1.75 C 10.085938 1.75 9.113281 0.078125 8.28125 -3.265625 C 7.550781 -6.210938 6.945312 -9.875 6.46875 -14.25 C 6 -18.632812 5.515625 -24.171875 5.015625 -30.859375 C 4.734375 -35.210938 4.34375 -39.867188 3.84375 -44.828125 C 3.457031 -48.953125 2.984375 -51.601562 2.421875 -52.78125 C 2.921875 -53.78125 3.726562 -54.28125 4.84375 -54.28125 C 6.632812 -54.28125 7.53125 -52.441406 7.53125 -48.765625 C 7.53125 -44.410156 8.113281 -38.050781 9.28125 -29.6875 C 10.457031 -21.382812 11.128906 -15.335938 11.296875 -11.546875 L 11.703125 -14.390625 C 12.265625 -18.117188 12.753906 -21.640625 13.171875 -24.953125 C 13.585938 -28.273438 13.9375 -31.863281 14.21875 -35.71875 C 14.601562 -40.007812 14.796875 -44.242188 14.796875 -48.421875 L 17.0625 -49.4375 C 17.789062 -49.4375 18.390625 -49.253906 18.859375 -48.890625 C 19.335938 -48.523438 19.578125 -48.007812 19.578125 -47.34375 L 19.578125 -46.671875 C 20.460938 -43.546875 21.195312 -40.128906 21.78125 -36.421875 C 22.375 -32.710938 22.890625 -28.347656 23.328125 -23.328125 C 23.671875 -19.484375 24.0625 -15.890625 24.5 -12.546875 C 25.5625 -20.015625 26.09375 -29.210938 26.09375 -40.140625 C 26.09375 -41.867188 26.316406 -43.988281 26.765625 -46.5 C 27.148438 -49.070312 27.34375 -51.164062 27.34375 -52.78125 C 27.175781 -53.28125 27.09375 -53.753906 27.09375 -54.203125 C 27.09375 -55.535156 27.929688 -56.203125 29.609375 -56.203125 C 30.273438 -56.203125 30.800781 -56.035156 31.1875 -55.703125 C 31.582031 -55.367188 31.78125 -54.894531 31.78125 -54.28125 L 31.78125 -53.03125 C 31.78125 -52.195312 31.695312 -51.472656 31.53125 -50.859375 L 31.53125 -50.4375 C 30.800781 -48.207031 30.4375 -45.640625 30.4375 -42.734375 L 30.4375 -36.640625 C 30.4375 -33.117188 30.019531 -27.875 29.1875 -20.90625 C 28.300781 -14.101562 27.859375 -9.03125 27.859375 -5.6875 L 27.859375 -4.1875 C 27.859375 -2.90625 27.71875 -1.816406 27.4375 -0.921875 C 27.101562 0.191406 26.296875 0.75 25.015625 0.75 C 24.117188 0.75 23.429688 0.457031 22.953125 -0.125 C 22.484375 -0.707031 22.25 -1.445312 22.25 -2.34375 C 22.25 -6.851562 21.773438 -12.707031 20.828125 -19.90625 C 20.328125 -23.132812 19.796875 -26.394531 19.234375 -29.6875 L 17.90625 -38.46875 C 17.675781 -36.851562 17.5625 -35.265625 17.5625 -33.703125 C 17.5625 -30.578125 17.335938 -26.453125 16.890625 -21.328125 C 16.441406 -16.203125 15.742188 -11.210938 14.796875 -6.359375 C 13.742188 -0.953125 12.546875 1.75 11.203125 1.75 Z M 11.203125 1.75 "/></g></g></g><g fill="#535455" fill-opacity="1"><g transform="translate(163.539229, 84.398843)"><g/></g></g><g fill="#535455" fill-opacity="1"><g transform="translate(178.844728, 84.398843)"><g><path d="M 38.8125 4.34375 C 37.082031 4.34375 36.21875 2.613281 36.21875 -0.84375 L 36.21875 -11.546875 C 36.21875 -14.328125 36.019531 -17.976562 35.625 -22.5 C 35.1875 -27.570312 34.96875 -31.054688 34.96875 -32.953125 L 35.125 -38.140625 C 35.238281 -39.640625 35.296875 -41.335938 35.296875 -43.234375 C 35.078125 -42.515625 34.15625 -38.671875 32.53125 -31.703125 C 30.914062 -24.953125 29.242188 -18.707031 27.515625 -12.96875 C 25.847656 -7.445312 24.484375 -4.6875 23.421875 -4.6875 C 22.359375 -4.6875 21.503906 -5.003906 20.859375 -5.640625 C 20.222656 -6.285156 19.90625 -7.164062 19.90625 -8.28125 C 19.90625 -10.726562 18.914062 -15.9375 16.9375 -23.90625 C 14.957031 -31.882812 13.160156 -38.414062 11.546875 -43.5 L 11.046875 -34.046875 C 10.597656 -26.066406 10.289062 -19.429688 10.125 -14.140625 C 10.007812 -9.003906 9.953125 -5.488281 9.953125 -3.59375 C 9.953125 -3.144531 9.976562 -2.726562 10.03125 -2.34375 L 10.03125 -1.171875 C 10.03125 -0.222656 9.832031 0.484375 9.4375 0.953125 C 9.050781 1.429688 8.332031 1.671875 7.28125 1.671875 C 6.71875 1.671875 6.1875 1.460938 5.6875 1.046875 C 5.1875 0.628906 4.9375 0.171875 4.9375 -0.328125 C 4.9375 -6.015625 5.351562 -14.546875 6.1875 -25.921875 C 7.019531 -37.296875 7.4375 -45.828125 7.4375 -51.515625 C 7.101562 -52.023438 6.9375 -52.554688 6.9375 -53.109375 C 6.9375 -53.773438 7.253906 -54.289062 7.890625 -54.65625 C 8.535156 -55.019531 9.304688 -55.203125 10.203125 -55.203125 C 10.929688 -55.203125 12.269531 -52.582031 14.21875 -47.34375 C 16.164062 -42.101562 18.113281 -36.164062 20.0625 -29.53125 C 22.019531 -22.894531 23.28125 -18.097656 23.84375 -15.140625 C 24.28125 -16.640625 24.640625 -18.035156 24.921875 -19.328125 L 25.421875 -21.328125 C 27.210938 -29.128906 29 -36.179688 30.78125 -42.484375 C 31.84375 -46.335938 32.875 -49.347656 33.875 -51.515625 C 34.875 -53.859375 35.796875 -55.03125 36.640625 -55.03125 C 37.421875 -55.03125 38.128906 -54.820312 38.765625 -54.40625 C 39.410156 -53.988281 39.734375 -53.445312 39.734375 -52.78125 C 39.734375 -48.757812 39.898438 -42.734375 40.234375 -34.703125 C 40.617188 -27.234375 40.8125 -21.4375 40.8125 -17.3125 L 40.734375 -12.875 L 40.5625 -8.453125 C 40.5625 -7.773438 40.644531 -6.769531 40.8125 -5.4375 L 41.0625 -2.515625 C 41.125 -2.003906 41.164062 -1.609375 41.1875 -1.328125 C 41.21875 -1.054688 41.234375 -0.894531 41.234375 -0.84375 C 41.515625 -0.113281 41.65625 0.414062 41.65625 0.75 C 41.65625 1.695312 41.375 2.53125 40.8125 3.25 C 40.257812 3.976562 39.59375 4.34375 38.8125 4.34375 Z M 38.8125 4.34375 "/></g></g></g><g fill="#535455" fill-opacity="1"><g transform="translate(225.764872, 84.398843)"><g><path d="M 8.953125 1.09375 C 8.222656 1.09375 7.566406 0.835938 6.984375 0.328125 C 6.398438 -0.171875 6.078125 -0.78125 6.015625 -1.5 L 6.015625 -5.359375 C 5.960938 -5.859375 5.9375 -6.441406 5.9375 -7.109375 C 5.9375 -8.273438 5.851562 -10.0625 5.6875 -12.46875 L 5.515625 -17.8125 C 5.515625 -20.539062 5.597656 -24.613281 5.765625 -30.03125 C 5.992188 -34.875 6.109375 -38.941406 6.109375 -42.234375 C 6.109375 -43.015625 6.023438 -44.1875 5.859375 -45.75 C 5.691406 -47.363281 5.609375 -48.535156 5.609375 -49.265625 C 5.609375 -53.222656 6.773438 -55.203125 9.109375 -55.203125 C 10.953125 -55.203125 13.085938 -54.835938 15.515625 -54.109375 C 17.941406 -53.390625 19.15625 -52.523438 19.15625 -51.515625 C 19.15625 -50.960938 18.914062 -50.445312 18.4375 -49.96875 C 17.96875 -49.5 17.398438 -49.125 16.734375 -48.84375 C 14.390625 -49.675781 12.269531 -50.234375 10.375 -50.515625 C 10.425781 -49.679688 10.453125 -48.484375 10.453125 -46.921875 C 10.453125 -44.691406 10.425781 -42.6875 10.375 -40.90625 C 10.207031 -38.226562 10.125 -36.21875 10.125 -34.875 L 10.375 -33.546875 L 11.703125 -33.625 C 12.148438 -33.675781 12.707031 -33.703125 13.375 -33.703125 C 16.050781 -33.703125 17.390625 -32.921875 17.390625 -31.359375 C 17.390625 -30.742188 17.140625 -30.226562 16.640625 -29.8125 C 16.140625 -29.394531 15.5 -29.1875 14.71875 -29.1875 C 13.71875 -29.1875 12.9375 -29.242188 12.375 -29.359375 L 10.28125 -29.359375 C 10.394531 -27.910156 10.453125 -25.789062 10.453125 -23 C 10.453125 -20.207031 10.425781 -17.695312 10.375 -15.46875 C 10.207031 -12.070312 10.125 -9.535156 10.125 -7.859375 C 10.125 -4.734375 10.175781 -3.171875 10.28125 -3.171875 L 13.046875 -3.265625 C 13.992188 -3.316406 15.140625 -3.34375 16.484375 -3.34375 C 18.597656 -3.34375 19.65625 -2.675781 19.65625 -1.34375 C 19.65625 -0.5625 19.304688 0.0351562 18.609375 0.453125 C 17.910156 0.878906 17.0625 1.09375 16.0625 1.09375 Z M 8.953125 1.09375 "/></g></g></g><g fill="#535455" fill-opacity="1"><g transform="translate(249.517678, 84.398843)"><g/></g></g><g fill="#535455" fill-opacity="1"><g transform="translate(264.823189, 84.398843)"><g><path d="M 9.203125 -12.46875 C 8.640625 -12.46875 8.109375 -13.160156 7.609375 -14.546875 C 7.109375 -16.003906 6.859375 -18.15625 6.859375 -21 C 6.859375 -22 6.914062 -23.894531 7.03125 -26.6875 C 7.132812 -28.75 7.1875 -31.035156 7.1875 -33.546875 L 7.03125 -47.25 L 6.859375 -60.96875 C 6.859375 -61.863281 7.21875 -62.628906 7.9375 -63.265625 C 8.664062 -63.910156 9.476562 -64.234375 10.375 -64.234375 C 10.925781 -64.234375 11.394531 -64.035156 11.78125 -63.640625 C 12.175781 -63.253906 12.375 -62.753906 12.375 -62.140625 C 12.375 -57.234375 12.097656 -50.570312 11.546875 -42.15625 C 10.929688 -32.84375 10.625 -26.179688 10.625 -22.171875 C 10.625 -19.210938 10.582031 -17.078125 10.5 -15.765625 C 10.414062 -14.453125 10.273438 -13.570312 10.078125 -13.125 C 9.878906 -12.6875 9.585938 -12.46875 9.203125 -12.46875 Z M 7.6875 1.84375 C 7.019531 1.84375 6.394531 1.535156 5.8125 0.921875 C 5.226562 0.304688 4.9375 -0.445312 4.9375 -1.34375 C 4.9375 -2.34375 5.269531 -3.21875 5.9375 -3.96875 C 6.601562 -4.726562 7.410156 -5.109375 8.359375 -5.109375 C 9.367188 -5.109375 10.191406 -4.726562 10.828125 -3.96875 C 11.472656 -3.21875 11.796875 -2.257812 11.796875 -1.09375 C 11.796875 0.863281 10.425781 1.84375 7.6875 1.84375 Z M 7.6875 1.84375 "/></g></g></g></g></g></g></svg>