<svg xmlns="http://www.w3.org/2000/svg" xmlns:xlink="http://www.w3.org/1999/xlink" width="500" zoomAndPan="magnify" viewBox="0 0 375 374.999991" height="500" preserveAspectRatio="xMidYMid meet" version="1.2"><defs><filter x="0%" y="0%" width="100%" filterUnits="objectBoundingBox" id="1e51153399" height="100%"><feColorMatrix values="0 0 0 0 1 0 0 0 0 1 0 0 0 0 1 0 0 0 1 0" type="matrix" in="SourceGraphic"/></filter><clipPath id="b21c77841d"><path d="M 13 28 L 75 28 L 75 214 L 13 214 Z M 13 28 "/></clipPath><clipPath id="662d69af33"><path d="M -17.3125 25.292969 L 79.980469 0.113281 L 129.964844 193.25 L 32.671875 218.429688 Z M -17.3125 25.292969 "/></clipPath><clipPath id="36c447dc52"><path d="M 130.226562 193.097656 L 32.933594 218.277344 L -17.050781 25.140625 L 80.246094 -0.0390625 Z M 130.226562 193.097656 "/></clipPath><clipPath id="f1f5b75afe"><path d="M 29 14 L 87 14 L 87 69 L 29 69 Z M 29 14 "/></clipPath><clipPath id="0f5c171ba9"><path d="M -17.3125 25.292969 L 79.980469 0.113281 L 129.964844 193.25 L 32.671875 218.429688 Z M -17.3125 25.292969 "/></clipPath><clipPath id="ef9e1798b6"><path d="M 130.226562 193.097656 L 32.933594 218.277344 L -17.050781 25.140625 L 80.246094 -0.0390625 Z M 130.226562 193.097656 "/></clipPath><clipPath id="efc0e681b8"><path d="M 24 14 L 31 14 L 31 19 L 24 19 Z M 24 14 "/></clipPath><clipPath id="107291f91e"><path d="M -17.3125 25.292969 L 79.980469 0.113281 L 129.964844 193.25 L 32.671875 218.429688 Z M -17.3125 25.292969 "/></clipPath><clipPath id="13cd1eb06c"><path d="M 130.226562 193.097656 L 32.933594 218.277344 L -17.050781 25.140625 L 80.246094 -0.0390625 Z M 130.226562 193.097656 "/></clipPath><clipPath id="144b1c4714"><path d="M 37 212 L 42 212 L 42 217 L 37 217 Z M 37 212 "/></clipPath><clipPath id="697845d1b5"><path d="M -17.3125 25.292969 L 79.980469 0.113281 L 129.964844 193.25 L 32.671875 218.429688 Z M -17.3125 25.292969 "/></clipPath><clipPath id="10a25009e0"><path d="M 130.226562 193.097656 L 32.933594 218.277344 L -17.050781 25.140625 L 80.246094 -0.0390625 Z M 130.226562 193.097656 "/></clipPath><clipPath id="a4ceb2ad8c"><path d="M 34 206 L 36 206 L 36 208 L 34 208 Z M 34 206 "/></clipPath><clipPath id="e1382e7c61"><path d="M -17.3125 25.292969 L 79.980469 0.113281 L 129.964844 193.25 L 32.671875 218.429688 Z M -17.3125 25.292969 "/></clipPath><clipPath id="762304463b"><path d="M 130.226562 193.097656 L 32.933594 218.277344 L -17.050781 25.140625 L 80.246094 -0.0390625 Z M 130.226562 193.097656 "/></clipPath><clipPath id="0181a9d7da"><path d="M 39 211 L 41 211 L 41 212 L 39 212 Z M 39 211 "/></clipPath><clipPath id="91fe3b8c5c"><path d="M -17.3125 25.292969 L 79.980469 0.113281 L 129.964844 193.25 L 32.671875 218.429688 Z M -17.3125 25.292969 "/></clipPath><clipPath id="5b72af924b"><path d="M 130.226562 193.097656 L 32.933594 218.277344 L -17.050781 25.140625 L 80.246094 -0.0390625 Z M 130.226562 193.097656 "/></clipPath><clipPath id="26f135eff2"><rect x="0" width="131" y="0" height="219"/></clipPath><clipPath id="0f2e2377e6"><rect x="0" width="373" y="0" height="99"/></clipPath></defs><g id="7d99913e52"><g mask="url(#ab9bfe1102)" transform="matrix(1,0,0,1,0,7)"><g clip-path="url(#26f135eff2)"><g clip-rule="nonzero" clip-path="url(#b21c77841d)"><g clip-rule="nonzero" clip-path="url(#662d69af33)"><g clip-rule="nonzero" clip-path="url(#36c447dc52)"><path style=" stroke:none;fill-rule:nonzero;fill:#535455;fill-opacity:1;" d="M 17.882812 159.097656 C 18.019531 159.808594 18.339844 160.449219 18.574219 161.121094 C 18.722656 161.554688 18.800781 162.054688 19.277344 162.371094 C 19.496094 162.511719 19.878906 162.5625 19.96875 162.949219 C 19.660156 162.910156 19.179688 162.839844 19.257812 163.144531 C 19.402344 163.734375 19.613281 164.308594 19.722656 164.921875 C 19.765625 165.148438 19.976562 165.4375 20.050781 165.71875 C 20.214844 166.351562 20.132812 167.070312 20.75 167.527344 C 20.785156 167.554688 20.804688 167.628906 20.792969 167.675781 C 20.652344 168.773438 21.445312 169.792969 21.058594 170.910156 C 21.039062 170.972656 21.050781 171.054688 21.078125 171.117188 C 21.59375 172.316406 21.847656 173.59375 22.113281 174.863281 C 22.164062 175.113281 22.25 175.273438 22.554688 175.28125 C 22.789062 175.285156 22.953125 175.550781 22.8125 175.683594 C 22.351562 176.136719 22.628906 176.449219 22.917969 176.804688 C 22.992188 176.902344 23.019531 177.078125 23.003906 177.207031 C 22.941406 177.605469 23.109375 177.8125 23.46875 177.980469 C 23.886719 178.167969 24.046875 178.667969 23.847656 179.097656 C 23.742188 179.332031 23.800781 179.488281 24.003906 179.570312 C 24.207031 179.648438 24.238281 179.808594 24.289062 179.972656 C 24.011719 180.058594 24.042969 180.257812 24.085938 180.480469 C 24.140625 180.753906 24.300781 181.011719 24.246094 181.304688 C 24.179688 181.671875 24.441406 181.796875 24.691406 181.929688 C 24.78125 181.980469 24.964844 181.84375 24.972656 182.050781 C 24.976562 182.164062 24.871094 182.230469 24.761719 182.253906 C 24.347656 182.351562 24.414062 182.621094 24.503906 182.910156 C 24.707031 183.542969 24.917969 184.171875 25.09375 184.808594 C 25.269531 185.441406 25.632812 186.011719 25.703125 186.679688 C 25.714844 186.789062 25.785156 186.867188 25.886719 186.917969 C 26.046875 187.007812 26.125 187.195312 26.078125 187.320312 C 25.941406 187.648438 26.167969 187.882812 26.21875 188.160156 C 26.292969 188.554688 26.652344 188.785156 26.722656 189.191406 C 26.832031 189.808594 27.03125 190.414062 27.171875 191.027344 C 27.242188 191.332031 27.363281 191.527344 27.714844 191.570312 C 28.027344 191.609375 28.109375 191.699219 27.859375 192.039062 C 27.449219 192.605469 28.199219 192.9375 28.292969 193.429688 C 28.332031 193.621094 28.414062 193.9375 28.757812 193.914062 C 28.792969 193.914062 28.832031 193.914062 28.863281 193.898438 C 29.507812 193.671875 29.90625 194.117188 30.367188 194.457031 C 30.449219 194.199219 30.453125 193.875 30.828125 193.851562 C 31.042969 194.351562 30.96875 194.910156 30.914062 195.390625 C 30.847656 195.941406 30.890625 196 31.363281 195.816406 C 31.472656 195.773438 31.570312 195.789062 31.644531 195.882812 C 31.703125 195.957031 31.714844 196.039062 31.667969 196.128906 C 31.609375 196.246094 31.503906 196.242188 31.394531 196.222656 C 31.273438 196.199219 31.152344 196.179688 31.039062 196.15625 C 30.742188 196.085938 30.425781 196.148438 30.257812 196.347656 C 30.089844 196.546875 30.441406 196.789062 30.398438 197.0625 C 30.386719 197.144531 30.546875 197.171875 30.664062 197.140625 C 31.519531 196.933594 31.675781 197.054688 31.640625 197.882812 C 31.648438 197.957031 31.660156 198.027344 31.671875 198.101562 C 31.609375 198.28125 31.554688 198.445312 31.308594 198.296875 C 31.167969 198.210938 31.039062 198.265625 30.933594 198.382812 C 30.5 198.867188 30.503906 199.152344 30.960938 199.671875 C 31 199.710938 31.058594 199.773438 31.050781 199.789062 C 30.8125 200.183594 31.261719 200.351562 31.339844 200.640625 C 31.382812 200.804688 31.539062 201.050781 31.820312 200.851562 C 31.910156 200.789062 32.019531 200.753906 32.089844 200.871094 C 32.167969 201 32.050781 201.046875 31.96875 201.117188 C 31.707031 201.347656 31.820312 201.535156 32.042969 201.71875 C 32.382812 202 32.835938 201.757812 33.183594 201.976562 C 33.257812 201.683594 33.824219 201.90625 33.746094 201.449219 C 34.03125 201.34375 34.371094 201.378906 34.566406 201.050781 C 34.644531 200.925781 34.851562 200.914062 35.003906 200.992188 C 35.183594 201.078125 35.105469 201.222656 35.054688 201.347656 C 34.960938 201.410156 34.878906 201.492188 34.953125 201.605469 C 35.214844 202.023438 35.199219 202.238281 34.625 202.082031 C 34.5 202.050781 34.386719 202.066406 34.328125 202.21875 C 34.109375 202.789062 34.066406 202.808594 33.632812 202.398438 C 33.394531 202.171875 33.214844 202.195312 32.945312 202.328125 C 32.632812 202.480469 32.679688 202.695312 32.730469 202.941406 C 32.773438 203.164062 32.808594 203.390625 32.839844 203.617188 C 32.914062 204.140625 33.203125 204.367188 33.78125 204.351562 C 33.867188 204.675781 33.957031 204.996094 34.039062 205.320312 C 34.085938 205.507812 34.285156 205.726562 34.371094 205.660156 C 34.765625 205.324219 34.976562 205.625 35.257812 205.816406 C 35.382812 205.898438 35.5625 205.894531 35.707031 205.789062 C 35.707031 205.789062 35.738281 205.808594 35.738281 205.808594 C 35.640625 206.320312 36.097656 206.621094 36.324219 206.894531 C 36.777344 207.445312 36.730469 207.886719 36.453125 208.425781 C 36.394531 208.542969 36.378906 208.714844 36.410156 208.839844 C 36.488281 209.128906 36.476562 209.378906 36.332031 209.648438 C 36.246094 209.808594 36.179688 210.097656 36.425781 210.148438 C 36.96875 210.261719 37 210.703125 37.109375 211.089844 C 37.164062 211.300781 37.222656 211.417969 37.457031 211.367188 C 37.589844 211.332031 37.730469 211.089844 37.84375 211.304688 C 37.941406 211.476562 37.707031 211.558594 37.601562 211.667969 C 37.480469 211.796875 37.359375 211.925781 37.210938 212.015625 C 36.761719 212.292969 37.03125 212.714844 37 213.0625 C 36.976562 213.324219 37.246094 213.480469 37.480469 213.542969 C 37.734375 213.609375 38.003906 213.632812 38.269531 213.621094 C 38.511719 213.609375 38.757812 213.523438 38.851562 213.265625 C 38.949219 212.996094 38.761719 212.871094 38.542969 212.808594 C 38.269531 212.726562 38.339844 212.523438 38.34375 212.332031 C 38.347656 212.113281 38.476562 212.136719 38.628906 212.144531 C 38.707031 212.148438 38.789062 212.089844 38.867188 212.0625 C 38.609375 211.664062 39.136719 211.375 39.007812 210.988281 C 38.894531 210.648438 39.042969 210.484375 39.398438 210.492188 C 39.796875 210.496094 40.09375 210.25 40.375 210.023438 C 40.609375 209.828125 40.277344 209.65625 40.273438 209.460938 C 40.273438 209.390625 40.28125 209.316406 40.296875 209.25 C 40.394531 208.929688 40.261719 208.753906 39.992188 208.554688 C 39.367188 208.09375 38.664062 207.628906 39.117188 206.648438 C 39.179688 206.507812 39.09375 206.378906 38.964844 206.371094 C 38.238281 206.328125 38.261719 205.824219 38.277344 205.304688 C 38.289062 205.027344 38.308594 204.832031 38.664062 204.984375 C 38.828125 205.054688 38.882812 204.96875 38.9375 204.789062 C 39.078125 204.363281 38.820312 204.273438 38.480469 204.253906 C 38.695312 203.902344 38.691406 203.578125 38.46875 203.273438 C 38.375 203.15625 38.332031 203.015625 38.363281 202.875 C 38.566406 202.089844 37.742188 201.675781 37.691406 200.980469 C 37.679688 200.800781 37.457031 200.90625 37.328125 200.898438 C 37.125 200.882812 37.0625 200.746094 37.222656 200.636719 C 37.519531 200.429688 37.414062 200.246094 37.269531 200.011719 C 37.171875 199.847656 37.089844 199.636719 37.160156 199.457031 C 37.320312 199.0625 37.15625 198.730469 37.003906 198.394531 C 36.941406 198.261719 36.917969 198.152344 36.9375 198 C 36.988281 197.566406 36.84375 197.214844 36.382812 197.085938 C 36.089844 197 36.046875 196.816406 36.210938 196.613281 C 36.5 196.269531 36.324219 196.148438 35.992188 196.117188 C 35.628906 196.082031 35.574219 195.917969 35.726562 195.621094 C 35.855469 195.363281 35.894531 195.144531 35.5 195.097656 C 35.363281 195.082031 35.242188 194.972656 35.289062 194.84375 C 35.449219 194.417969 35.226562 194.011719 35.269531 193.597656 C 35.296875 193.363281 35.324219 193.15625 34.964844 193.125 C 34.730469 193.105469 34.8125 192.902344 34.902344 192.753906 C 34.96875 192.648438 35.164062 192.554688 35.019531 192.402344 C 34.886719 192.253906 34.722656 192.363281 34.585938 192.4375 C 34.453125 192.507812 34.257812 192.675781 34.214844 192.425781 C 34.144531 192 34.1875 191.550781 33.699219 191.332031 C 33.882812 190.722656 33.472656 190.269531 33.316406 189.746094 C 33.234375 189.480469 33.261719 189.175781 33.097656 188.902344 C 33.007812 188.761719 32.984375 188.5625 32.992188 188.394531 C 33.027344 187.792969 32.738281 187.566406 32.203125 187.832031 C 31.941406 187.960938 31.691406 187.90625 31.4375 187.855469 C 31.359375 187.839844 31.269531 187.78125 31.273438 187.675781 C 31.277344 187.5625 31.386719 187.566406 31.460938 187.523438 C 31.671875 187.40625 31.894531 187.613281 32.167969 187.511719 C 31.679688 186.976562 32.175781 186.230469 31.671875 185.714844 C 31.621094 185.664062 31.558594 185.476562 31.570312 185.394531 C 31.609375 185.035156 31.28125 184.648438 31.648438 184.316406 C 31.8125 184.164062 31.648438 184.042969 31.589844 183.898438 C 31.460938 183.582031 31.027344 183.460938 31.042969 183.085938 C 31.066406 182.671875 30.84375 182.523438 30.507812 182.449219 C 30.253906 182.398438 30.074219 182.152344 29.773438 182.191406 C 29.671875 182.207031 29.632812 182.050781 29.617188 181.945312 C 29.609375 181.871094 29.632812 181.777344 29.703125 181.78125 C 30.351562 181.777344 30.28125 181.136719 30.660156 180.832031 C 30.316406 180.761719 30.070312 180.554688 29.789062 180.808594 C 29.648438 180.933594 29.523438 180.804688 29.484375 180.648438 C 29.457031 180.53125 29.253906 180.308594 29.433594 180.304688 C 29.90625 180.304688 29.785156 179.5625 30.324219 179.664062 C 30.429688 179.683594 30.40625 179.488281 30.253906 179.417969 C 29.734375 179.183594 29.617188 178.9375 29.953125 178.523438 C 30.15625 178.273438 30.097656 178.058594 29.984375 177.90625 C 29.671875 177.484375 29.777344 177.136719 30.035156 176.746094 C 30.1875 176.523438 30.308594 176.296875 29.839844 176.183594 C 29.597656 176.125 29.207031 175.820312 29.3125 175.527344 C 29.390625 175.320312 29.394531 175.167969 29.421875 174.964844 C 29.464844 174.597656 29.296875 174.246094 29.421875 173.890625 C 29.507812 173.644531 29.472656 173.449219 29.132812 173.417969 C 28.9375 173.398438 28.707031 173.28125 28.792969 173.042969 C 28.910156 172.726562 28.777344 172.414062 28.839844 172.101562 C 28.886719 171.859375 28.871094 171.660156 28.53125 171.617188 C 28.269531 171.582031 28.253906 171.335938 28.398438 171.179688 C 28.605469 170.953125 28.6875 170.695312 28.546875 170.472656 C 28.382812 170.210938 28.085938 170.175781 27.785156 170.296875 C 27.675781 170.34375 27.523438 170.371094 27.480469 170.210938 C 27.433594 170.035156 27.609375 170.042969 27.707031 169.976562 C 28.058594 169.761719 28.226562 169.429688 28.269531 169.027344 C 28.289062 168.890625 28.28125 168.804688 28.097656 168.777344 C 27.648438 168.703125 27.464844 168.308594 27.707031 167.914062 C 27.796875 167.765625 27.808594 167.632812 27.742188 167.527344 C 27.570312 167.242188 27.191406 167.0625 27.351562 166.625 C 27.371094 166.574219 27.191406 166.515625 27.082031 166.535156 C 26.90625 166.566406 26.730469 166.539062 26.710938 166.34375 C 26.699219 166.171875 26.632812 165.933594 26.871094 165.832031 C 27.167969 165.710938 27.105469 165.496094 27.058594 165.257812 C 27.011719 164.996094 26.78125 164.707031 27.195312 164.480469 C 27.335938 164.402344 27.28125 164.058594 27.035156 164.054688 C 26.660156 164.042969 26.757812 163.917969 26.820312 163.667969 C 26.898438 163.367188 26.871094 162.84375 26.601562 162.832031 C 26.007812 162.800781 26.320312 162.421875 26.246094 162.199219 C 26.210938 162.101562 26.222656 161.964844 26.160156 161.90625 C 25.890625 161.648438 25.839844 161.394531 26.042969 161.066406 C 26.113281 160.953125 26.210938 160.691406 25.882812 160.699219 C 25.40625 160.710938 25.558594 160.488281 25.691406 160.242188 C 25.804688 160.035156 25.925781 159.765625 25.597656 159.683594 C 25.132812 159.570312 25.152344 159.386719 25.40625 159.066406 C 25.546875 158.890625 25.691406 158.550781 25.445312 158.476562 C 24.765625 158.277344 24.902344 157.976562 25.238281 157.585938 C 25.335938 157.46875 25.40625 157.277344 25.261719 157.21875 C 25.042969 157.132812 24.949219 156.84375 24.722656 156.847656 C 24.496094 156.851562 24.585938 157.089844 24.554688 157.230469 C 24.453125 157.730469 24.421875 158.28125 23.753906 158.386719 C 23.59375 158.324219 23.433594 158.257812 23.273438 158.195312 C 23.046875 157.492188 23.039062 156.855469 23.742188 156.390625 C 23.871094 156.300781 23.925781 156.121094 23.925781 155.960938 C 23.929688 155.621094 24.097656 155.375 24.3125 155.121094 C 24.484375 154.921875 24.746094 154.679688 24.535156 154.375 C 24.34375 154.101562 24.414062 153.847656 24.460938 153.574219 C 24.515625 153.285156 24.585938 152.945312 24.339844 152.746094 C 24.003906 152.476562 24.039062 152.058594 24.011719 151.773438 C 23.976562 151.398438 23.84375 151.042969 23.890625 150.648438 C 23.8125 150.671875 23.753906 150.679688 23.75 150.695312 C 23.703125 151.136719 23.375 151.066406 23.132812 150.972656 C 22.816406 150.84375 23.042969 150.582031 23.085938 150.375 C 23.128906 150.199219 23.257812 150.085938 23.375 149.953125 C 23.671875 149.613281 23.941406 149.1875 23.746094 148.738281 C 23.558594 148.300781 23.59375 147.929688 23.761719 147.53125 C 23.839844 147.347656 23.871094 147.136719 23.632812 147.113281 C 23.308594 147.082031 23.390625 146.9375 23.441406 146.738281 C 23.480469 146.589844 23.417969 146.417969 23.441406 146.261719 C 23.550781 145.492188 22.867188 144.824219 23.152344 144.023438 C 23.1875 143.921875 23.027344 143.878906 22.9375 143.832031 C 22.574219 143.628906 22.417969 143.085938 22.507812 142.679688 C 22.664062 141.980469 23.15625 141.21875 22.226562 140.65625 C 22.058594 140.550781 22.261719 140.488281 22.304688 140.417969 C 22.5 140.109375 22.648438 139.847656 22.386719 139.460938 C 22.175781 139.140625 22.105469 138.75 22.558594 138.460938 C 22.714844 138.359375 22.933594 138.09375 22.488281 137.992188 C 22.273438 137.945312 22.308594 137.824219 22.394531 137.640625 C 22.644531 137.070312 22.660156 136.46875 22.570312 135.851562 C 22.519531 135.484375 22.167969 135.449219 21.996094 135.222656 C 21.929688 135.136719 21.851562 135.0625 21.851562 134.949219 C 21.863281 134.339844 21.84375 133.730469 21.910156 133.128906 C 21.945312 132.804688 21.933594 132.523438 21.71875 132.300781 C 21.507812 132.085938 21.589844 132.003906 21.789062 131.859375 C 22.078125 131.652344 22.289062 131.441406 22.003906 131.007812 C 21.871094 130.816406 21.53125 130.402344 22.035156 130.117188 C 22.109375 130.078125 22.167969 129.875 22.128906 129.785156 C 21.964844 129.386719 22.308594 128.816406 21.707031 128.570312 C 21.597656 128.523438 21.605469 128.398438 21.675781 128.292969 C 21.820312 128.070312 21.765625 127.824219 21.785156 127.578125 C 21.804688 127.289062 21.804688 126.960938 21.945312 126.730469 C 22.257812 126.226562 22.207031 125.734375 22.109375 125.191406 C 22.039062 124.789062 21.847656 124.332031 22.292969 123.96875 C 22.4375 123.851562 22.621094 123.617188 22.410156 123.417969 C 22.195312 123.214844 22.136719 123.105469 22.46875 123.007812 C 22.632812 122.960938 22.546875 122.796875 22.585938 122.699219 C 22.726562 122.347656 22.304688 122.226562 22.304688 121.953125 C 22.300781 121.390625 22.484375 120.832031 22.292969 120.265625 C 22.253906 120.144531 22.382812 120.09375 22.484375 120.054688 C 22.609375 120.003906 22.734375 119.902344 22.648438 119.777344 C 22.492188 119.546875 22.632812 119.429688 22.761719 119.28125 C 22.871094 119.152344 22.917969 118.972656 22.878906 118.832031 C 22.59375 117.855469 23.097656 116.828125 22.671875 115.863281 C 22.613281 115.726562 22.746094 115.640625 22.800781 115.539062 C 23.15625 114.835938 23.070312 114.179688 22.546875 113.566406 C 22.125 113.074219 22.113281 112.808594 22.488281 112.320312 C 22.550781 112.238281 22.660156 112.101562 22.632812 112.050781 C 22.464844 111.703125 22.976562 111.34375 22.597656 111.007812 C 22.527344 110.941406 22.617188 110.835938 22.683594 110.792969 C 23.0625 110.554688 23.015625 110.121094 23.097656 109.777344 C 23.296875 108.960938 23.175781 108.113281 23.179688 107.289062 C 23.183594 106.214844 23.414062 105.296875 24.152344 104.507812 C 24.285156 104.359375 24.425781 104.136719 24.261719 103.882812 C 23.980469 103.453125 23.746094 103.046875 24.253906 102.578125 C 24.421875 102.425781 24.492188 102.125 24.28125 101.855469 C 24.121094 101.648438 23.953125 101.28125 24.113281 101.128906 C 24.578125 100.691406 24.601562 100.113281 24.792969 99.585938 C 24.878906 99.339844 25.066406 99.125 24.738281 98.902344 C 24.578125 98.792969 24.691406 98.613281 24.835938 98.578125 C 25.222656 98.496094 25.316406 98.292969 25.191406 97.933594 C 25.128906 97.761719 25.191406 97.621094 25.359375 97.535156 C 25.480469 97.476562 25.53125 97.375 25.53125 97.234375 C 25.511719 96.320312 26 95.582031 26.359375 94.796875 C 26.484375 94.523438 26.777344 94.300781 26.378906 93.988281 C 26.226562 93.871094 26.394531 93.664062 26.53125 93.542969 C 26.679688 93.414062 26.839844 93.308594 26.988281 93.183594 C 27.078125 93.105469 27.199219 93.011719 27.097656 92.875 C 27 92.746094 26.890625 92.78125 26.796875 92.902344 C 26.707031 93.011719 26.597656 93.082031 26.515625 92.90625 C 26.449219 92.757812 26.402344 92.585938 26.617188 92.507812 C 26.898438 92.40625 27.191406 92.308594 27.488281 92.464844 C 27.714844 92.582031 27.820312 92.507812 27.929688 92.28125 C 28.054688 92.019531 28.113281 91.816406 27.921875 91.550781 C 27.742188 91.308594 27.757812 90.898438 27.898438 90.753906 C 28.652344 90.003906 27.960938 88.972656 28.457031 88.195312 C 28.480469 88.15625 28.445312 88.046875 28.402344 88 C 28.167969 87.691406 28.238281 87.546875 28.601562 87.375 C 28.875 87.246094 29.339844 87.03125 28.851562 86.566406 C 28.714844 86.4375 28.691406 86.199219 28.867188 86.039062 C 29.132812 85.792969 29.113281 85.453125 29.160156 85.152344 C 29.207031 84.867188 28.984375 84.476562 29.542969 84.484375 C 29.574219 84.484375 29.617188 84.375 29.644531 84.3125 C 29.792969 84.003906 29.8125 83.734375 29.683594 83.378906 C 29.429688 82.679688 30.230469 82.210938 30.195312 81.503906 C 30.175781 81.117188 30.613281 80.851562 30.765625 80.492188 C 30.988281 79.980469 31.054688 79.382812 31.679688 79.148438 C 31.777344 79.109375 31.742188 78.988281 31.785156 78.925781 C 32.171875 78.355469 32.371094 77.695312 32.796875 77.132812 C 33.039062 76.816406 33.671875 76.617188 33.457031 75.988281 C 33.40625 75.847656 33.621094 75.78125 33.71875 75.835938 C 34.054688 76.03125 34.308594 75.8125 34.421875 75.597656 C 34.574219 75.308594 34.128906 75.324219 34.042969 75.113281 C 34.183594 74.976562 34.320312 74.792969 34.464844 74.691406 C 34.753906 74.488281 34.714844 74.058594 35.007812 73.945312 C 35.730469 73.664062 35.839844 73.476562 35.539062 72.800781 C 35.214844 72.078125 35.28125 71.65625 35.832031 71.085938 C 36.027344 70.882812 36.152344 70.683594 36.035156 70.382812 C 35.949219 70.167969 35.992188 70 36.242188 69.867188 C 36.585938 69.6875 36.789062 69.425781 36.65625 68.964844 C 36.554688 68.605469 36.535156 68.203125 36.960938 67.957031 C 37.070312 67.886719 37.226562 67.738281 37.21875 67.636719 C 37.160156 66.894531 37.871094 66.785156 38.25 66.460938 C 38.441406 66.300781 38.550781 65.914062 38.902344 65.960938 C 39.1875 66 39.316406 65.800781 39.472656 65.640625 C 39.808594 65.289062 40.078125 64.863281 40.460938 64.554688 C 40.550781 64.484375 40.671875 64.449219 40.683594 64.289062 C 40.75 63.214844 41.617188 62.570312 42.121094 61.738281 C 42.5 61.109375 42.910156 60.546875 43.035156 59.8125 C 43.09375 59.472656 43.164062 59.164062 43.480469 58.886719 C 43.851562 58.566406 44.066406 58.082031 44.085938 57.535156 C 44.101562 57.234375 44.074219 56.851562 44.527344 56.738281 C 44.667969 56.699219 44.785156 56.558594 44.757812 56.363281 C 44.730469 56.210938 44.816406 56.132812 44.957031 56.101562 C 45.394531 55.996094 45.550781 55.65625 45.644531 55.273438 C 45.75 54.835938 45.957031 54.648438 46.4375 54.765625 C 46.730469 54.839844 47.070312 54.683594 47.179688 54.414062 C 47.273438 54.199219 47.316406 53.855469 46.96875 53.6875 C 46.75 53.582031 46.757812 53.425781 46.9375 53.273438 C 47.03125 53.199219 47.160156 53.03125 47.230469 53.097656 C 47.367188 53.21875 47.503906 53.425781 47.5 53.589844 C 47.488281 53.96875 47.710938 53.976562 47.972656 53.984375 C 48.132812 53.984375 48.289062 53.992188 48.445312 53.984375 C 48.820312 53.960938 49.023438 53.660156 48.90625 53.304688 C 48.875 53.207031 48.773438 53.105469 48.890625 53.03125 C 49.324219 52.757812 49.378906 52.136719 49.902344 51.957031 C 50.289062 51.820312 50.457031 51.484375 50.617188 51.148438 C 50.667969 51.039062 50.679688 50.921875 50.773438 50.820312 C 51.082031 50.476562 51.355469 50.136719 51.191406 49.601562 C 51.144531 49.449219 50.980469 48.917969 51.425781 49.042969 C 51.847656 49.160156 52.0625 48.957031 52.230469 48.75 C 52.632812 48.253906 53.425781 48.171875 53.601562 47.445312 C 53.625 47.339844 53.753906 47.285156 53.832031 47.4375 C 54.015625 47.804688 54.238281 47.625 54.421875 47.460938 C 54.625 47.285156 54.832031 47.132812 54.894531 46.804688 C 54.984375 46.324219 55.550781 46.113281 55.6875 45.644531 C 55.742188 45.449219 55.828125 45.359375 55.992188 45.269531 C 56.289062 45.109375 56.664062 44.996094 56.609375 44.527344 C 56.59375 44.382812 56.734375 44.34375 56.859375 44.296875 C 57.671875 43.996094 57.824219 43.777344 57.863281 42.914062 C 57.875 42.667969 57.929688 42.417969 58.199219 42.300781 C 58.5 42.171875 58.625 42.347656 58.769531 42.59375 C 58.886719 42.808594 59.121094 42.804688 59.21875 42.5625 C 59.378906 42.1875 59.78125 41.972656 59.8125 41.496094 C 59.835938 41.179688 60.289062 41.054688 60.371094 40.699219 C 60.390625 40.621094 60.511719 40.636719 60.605469 40.652344 C 61.066406 40.707031 61.550781 40.566406 61.792969 40.238281 C 62.078125 39.851562 62.421875 39.746094 62.820312 39.714844 C 63.015625 39.699219 63.117188 39.578125 63.261719 39.503906 C 63.832031 39.222656 64.363281 38.90625 64.789062 38.421875 C 64.839844 38.367188 64.957031 38.371094 65.039062 38.332031 C 65.113281 38.296875 65.261719 38.242188 65.253906 38.210938 C 65.214844 37.660156 65.730469 37.757812 65.996094 37.566406 C 66.09375 37.5 66.214844 37.464844 66.296875 37.363281 C 66.730469 36.839844 67.070312 36.226562 67.808594 36.023438 C 67.972656 35.980469 68.207031 35.800781 68.292969 35.566406 C 68.335938 35.449219 68.386719 35.417969 68.523438 35.425781 C 69.152344 35.464844 69.152344 35.453125 69.757812 35.179688 C 69.828125 35.148438 69.964844 35.207031 70.042969 35.265625 C 70.265625 35.429688 70.480469 35.425781 70.652344 35.226562 C 70.902344 34.933594 71.070312 34.566406 71.507812 34.460938 C 71.621094 34.429688 71.519531 34.253906 71.484375 34.132812 C 71.386719 33.773438 71.570312 33.449219 71.890625 33.429688 C 72.230469 33.410156 72.574219 33.183594 72.925781 33.390625 C 73 33.4375 73.101562 33.414062 73.15625 33.328125 C 73.210938 33.238281 73.179688 33.148438 73.113281 33.089844 C 72.757812 32.75 72.886719 32.570312 73.273438 32.339844 C 73.574219 32.15625 73.949219 31.925781 74.011719 31.558594 C 74.058594 31.277344 73.734375 31.105469 73.523438 30.917969 C 73.4375 30.847656 73.363281 30.707031 73.359375 30.59375 C 73.339844 30.019531 72.964844 29.796875 72.484375 29.648438 C 72.339844 29.597656 72.222656 29.46875 72.085938 29.386719 C 71.757812 29.199219 71.441406 28.925781 71.085938 28.851562 C 70.09375 28.636719 69.214844 28.050781 68.152344 28.042969 C 67.566406 28.039062 67.03125 28.015625 66.472656 28.28125 C 65.820312 28.589844 65.335938 29.1875 64.605469 29.335938 C 64.007812 29.460938 63.429688 29.664062 62.859375 29.886719 C 62.421875 30.0625 61.875 30.152344 61.554688 30.421875 C 60.984375 30.910156 60.273438 31.1875 59.746094 31.726562 C 59.441406 32.035156 59.0625 32.261719 59.015625 32.75 C 58.996094 33.003906 58.796875 32.984375 58.617188 32.96875 C 57.933594 32.917969 57.445312 33.355469 56.960938 33.71875 C 56.726562 33.898438 56.53125 34.113281 56.253906 34.238281 C 55.96875 34.371094 55.753906 34.636719 55.496094 34.792969 C 55.015625 35.078125 54.847656 35.617188 54.417969 35.925781 C 54.15625 36.121094 53.820312 36.226562 53.671875 36.554688 C 53.605469 36.570312 53.535156 36.582031 53.46875 36.59375 C 53.371094 36.511719 53.277344 36.550781 53.175781 36.597656 C 52.472656 36.933594 52.148438 37.6875 51.449219 38.085938 C 50.871094 38.410156 50.421875 39.011719 50.007812 39.5625 C 49.523438 40.214844 48.960938 40.789062 48.453125 41.414062 C 47.992188 41.980469 47.324219 42.339844 46.933594 42.984375 C 46.5625 43.589844 46.105469 44.117188 45.320312 44.203125 C 45.246094 44.210938 45.179688 44.300781 45.117188 44.355469 C 44.648438 44.773438 44.382812 45.355469 43.835938 45.742188 C 43.398438 46.046875 43.007812 46.492188 42.804688 47.144531 C 42.609375 47.765625 42.105469 48.359375 41.582031 48.878906 C 41.148438 49.304688 40.636719 49.726562 40.441406 50.355469 C 40.414062 50.359375 40.394531 50.363281 40.378906 50.386719 C 40.007812 50.445312 39.714844 50.597656 39.574219 50.976562 C 39.394531 51.453125 39.132812 51.847656 38.578125 51.949219 C 38.476562 51.964844 38.316406 52 38.359375 52.121094 C 38.574219 52.730469 38.003906 52.859375 37.714844 53.019531 C 37.320312 53.238281 37.09375 53.566406 36.828125 53.878906 C 36.394531 54.375 36.003906 54.90625 35.585938 55.414062 C 35.316406 55.734375 34.820312 56.054688 34.902344 56.683594 C 34.929688 56.910156 34.835938 57.351562 34.433594 57.550781 C 34.132812 57.703125 33.953125 58.050781 33.816406 58.382812 C 33.546875 59.019531 33.191406 59.613281 32.800781 60.183594 C 32.058594 61.269531 31.21875 62.292969 30.839844 63.585938 C 30.820312 63.628906 30.800781 63.671875 30.777344 63.714844 C 30.027344 63.820312 29.679688 64.355469 29.417969 64.988281 C 29.289062 65.300781 29.0625 65.550781 28.816406 65.785156 C 28.316406 66.25 28.230469 66.933594 27.914062 67.492188 C 27.90625 67.507812 27.902344 67.535156 27.910156 67.546875 C 28.078125 67.789062 27.878906 67.933594 27.75 68.082031 C 27.625 68.230469 27.644531 68.410156 27.601562 68.554688 C 27.480469 68.941406 27.527344 69.394531 27.195312 69.730469 C 26.992188 69.9375 26.636719 70.148438 26.761719 70.511719 C 26.886719 70.886719 26.75 71.144531 26.5625 71.433594 C 26.445312 71.617188 26.199219 71.8125 26.53125 72.054688 C 26.621094 72.121094 26.546875 72.34375 26.421875 72.421875 C 25.960938 72.691406 25.933594 73.15625 25.863281 73.601562 C 25.832031 73.789062 25.761719 73.96875 25.585938 74.027344 C 24.972656 74.21875 24.929688 74.679688 24.980469 75.207031 C 25.023438 75.597656 24.863281 76.109375 24.613281 76.1875 C 24.042969 76.371094 23.792969 76.851562 23.507812 77.222656 C 22.808594 78.121094 22.339844 79.1875 21.898438 80.242188 C 21.695312 80.722656 21.585938 81.25 21.332031 81.699219 C 20.90625 82.457031 20.90625 83.351562 20.484375 84.113281 C 20.320312 84.414062 20.464844 84.875 20.359375 85.234375 C 20.160156 85.929688 19.550781 86.527344 19.886719 87.34375 C 19.898438 87.378906 19.832031 87.433594 19.828125 87.488281 C 19.746094 88.066406 19.816406 88.625 19.386719 89.203125 C 19.089844 89.601562 19.078125 90.34375 18.933594 90.925781 C 18.707031 91.84375 18.210938 92.660156 17.703125 93.449219 C 17.617188 93.582031 17.621094 93.683594 17.699219 93.777344 C 17.910156 94.027344 17.785156 94.234375 17.640625 94.445312 C 17.445312 94.722656 17.304688 95.015625 17.480469 95.355469 C 17.539062 95.46875 17.511719 95.570312 17.429688 95.640625 C 17.195312 95.839844 17.175781 96.113281 17.101562 96.390625 C 16.976562 96.875 16.964844 97.371094 16.796875 97.863281 C 16.628906 98.355469 16.347656 98.914062 16.582031 99.492188 C 16.328125 100.34375 16.171875 101.203125 16.265625 102.09375 C 16.066406 102.164062 16 102.3125 16.058594 102.511719 C 16.101562 102.664062 16.101562 102.832031 15.917969 102.839844 C 15.53125 102.859375 15.539062 103.175781 15.492188 103.402344 C 15.359375 104.042969 15.222656 104.691406 15.375 105.355469 C 15.414062 105.5 15.375 105.632812 15.332031 105.769531 C 15.1875 106.21875 15.242188 106.613281 15.648438 106.914062 C 15.722656 106.96875 15.832031 107.046875 15.777344 107.113281 C 15.449219 107.492188 15.78125 108.261719 15.015625 108.386719 C 14.828125 108.417969 14.851562 108.617188 14.820312 108.777344 C 14.707031 109.273438 15.082031 109.746094 14.886719 110.246094 C 14.734375 110.648438 14.886719 111.035156 14.949219 111.429688 C 15.003906 111.773438 15.046875 112.121094 14.941406 112.46875 C 14.722656 113.210938 14.917969 113.984375 14.769531 114.75 C 14.667969 115.289062 14.792969 115.886719 14.804688 116.460938 C 14.824219 117.613281 14.207031 118.714844 14.589844 119.882812 C 14.613281 119.953125 14.484375 120.0625 14.464844 120.164062 C 14.382812 120.542969 14.214844 120.914062 14.277344 121.3125 C 14.375 121.976562 14.140625 122.648438 14.339844 123.304688 C 14.351562 123.355469 14.292969 123.441406 14.246094 123.488281 C 13.898438 123.820312 14.265625 124.351562 13.910156 124.6875 C 13.894531 124.703125 13.933594 124.828125 13.984375 124.867188 C 14.445312 125.246094 14.199219 125.628906 13.960938 125.976562 C 13.84375 126.152344 13.839844 126.316406 13.808594 126.5 C 13.734375 126.867188 14.085938 127.011719 14.136719 127.292969 C 13.652344 127.507812 13.554688 127.890625 13.773438 128.328125 C 13.90625 128.597656 13.921875 128.800781 13.777344 129.058594 C 13.707031 129.1875 13.703125 129.375 13.734375 129.527344 C 13.894531 130.332031 13.78125 131.15625 13.957031 131.96875 C 14.015625 132.222656 14.039062 132.53125 14.039062 132.820312 C 14.042969 133.308594 14.066406 133.800781 14.222656 134.265625 C 14.296875 134.488281 14.601562 134.628906 14.550781 134.894531 C 14.453125 135.421875 14.777344 135.527344 15.175781 135.585938 C 15.210938 135.738281 15.136719 135.847656 15.027344 135.953125 C 14.839844 136.140625 14.878906 136.398438 15.042969 136.515625 C 15.597656 136.925781 15.167969 136.960938 14.867188 137.070312 C 14.425781 137.234375 14.367188 137.476562 14.6875 137.777344 C 14.863281 137.941406 14.886719 138.132812 14.792969 138.355469 C 14.746094 138.464844 14.65625 138.617188 14.691406 138.695312 C 14.964844 139.230469 14.773438 139.8125 14.808594 140.351562 C 14.878906 141.65625 14.773438 142.980469 14.933594 144.28125 C 15 144.8125 15.300781 145.421875 15.300781 145.90625 C 15.304688 146.480469 15.675781 146.933594 15.632812 147.386719 C 15.523438 148.527344 15.898438 149.460938 16.523438 150.351562 C 16.652344 150.535156 16.699219 150.601562 16.535156 150.820312 C 16.265625 151.183594 16.007812 151.585938 16.308594 152.101562 C 16.453125 152.351562 16.414062 152.679688 16.433594 152.980469 C 16.460938 153.496094 16.5 154.046875 16.75 154.5 C 17.257812 155.414062 17.46875 156.402344 17.714844 157.394531 C 17.863281 157.960938 17.757812 158.53125 17.867188 159.105469 Z M 37.253906 212.8125 C 37.214844 212.816406 37.179688 212.757812 37.152344 212.738281 C 37.148438 212.652344 37.160156 212.578125 37.246094 212.578125 C 37.28125 212.578125 37.332031 212.632812 37.34375 212.671875 C 37.359375 212.738281 37.339844 212.8125 37.253906 212.808594 Z M 21.964844 151.472656 C 22.011719 151.472656 22.050781 151.507812 22.074219 151.5625 C 22.089844 151.621094 22.089844 151.671875 22.074219 151.714844 C 22.089844 151.667969 22.09375 151.613281 22.074219 151.5625 C 22.050781 151.507812 22.011719 151.472656 21.964844 151.472656 Z M 21.976562 145.847656 C 21.953125 145.886719 21.933594 145.925781 21.898438 145.984375 C 21.933594 145.925781 21.953125 145.886719 21.976562 145.847656 Z M 35.519531 205.367188 C 35.285156 205.042969 35.351562 204.8125 35.703125 204.75 C 35.824219 204.726562 35.941406 204.738281 36.066406 204.734375 C 36.019531 204.628906 35.957031 204.53125 35.878906 204.445312 C 35.957031 204.53125 36.019531 204.628906 36.066406 204.734375 C 36.175781 204.742188 36.285156 204.757812 36.394531 204.769531 C 36.546875 205.238281 36.140625 205.230469 35.894531 205.359375 C 35.769531 205.359375 35.644531 205.367188 35.523438 205.367188 Z M 37.296875 208.730469 C 37.203125 208.792969 37.125 208.738281 37.050781 208.714844 C 36.902344 208.671875 36.667969 208.769531 36.636719 208.515625 C 36.621094 208.386719 36.765625 208.375 36.859375 208.351562 C 37.078125 208.296875 37.238281 208.359375 37.300781 208.585938 C 37.3125 208.632812 37.300781 208.683594 37.300781 208.726562 Z M 38.378906 211.269531 C 38.242188 211.3125 38.058594 211.347656 38.023438 211.183594 C 37.988281 211.011719 38.179688 210.992188 38.316406 210.949219 C 38.417969 210.945312 38.574219 210.828125 38.621094 210.996094 C 38.664062 211.164062 38.515625 211.230469 38.378906 211.269531 Z M 39.503906 209.617188 C 39.597656 209.6875 38.984375 210.253906 38.746094 210.292969 C 38.554688 210.332031 38.472656 210.265625 38.519531 210.042969 C 38.417969 209.734375 38.367188 209.339844 38.769531 209.246094 C 38.980469 209.199219 39.277344 209.445312 39.5 209.613281 Z M 32.140625 190.585938 C 32.273438 191.070312 32.605469 191.246094 33.046875 191.417969 C 33.417969 191.5625 33.304688 192.03125 33.292969 192.367188 C 33.277344 192.671875 32.996094 192.59375 32.800781 192.601562 C 32.609375 192.609375 32.414062 192.578125 32.222656 192.613281 C 31.96875 192.660156 31.921875 192.609375 31.828125 192.335938 C 31.691406 191.953125 31.226562 191.90625 30.84375 191.859375 C 30.726562 191.847656 30.605469 191.921875 30.488281 191.949219 C 30.339844 191.980469 30.183594 191.988281 30.148438 191.808594 C 30.117188 191.636719 30.269531 191.582031 30.402344 191.523438 C 30.640625 191.414062 30.953125 191.609375 31.15625 191.277344 C 31.273438 191.082031 31.40625 190.949219 31.277344 190.730469 C 31.167969 190.546875 31.164062 190.25 31.277344 190.195312 C 31.417969 190.128906 31.664062 190.230469 31.84375 190.308594 C 31.964844 190.359375 32.105469 190.480469 32.136719 190.597656 Z M 30.34375 183.351562 C 30.710938 183.257812 30.820312 183.582031 30.945312 183.8125 C 31.035156 183.980469 30.929688 184.246094 30.773438 184.234375 C 30.488281 184.210938 30.128906 184.253906 29.933594 183.914062 C 29.996094 183.671875 30.078125 183.425781 30.34375 183.351562 Z M 22.539062 149.957031 C 22.675781 149.878906 22.75 149.761719 22.761719 149.609375 C 22.75 149.761719 22.675781 149.878906 22.539062 149.957031 Z M 22.96875 149.121094 C 23.199219 149.300781 22.808594 149.257812 22.738281 149.355469 C 21.832031 149.277344 21.605469 148.859375 22.085938 148.140625 C 22.234375 148.113281 22.292969 148.027344 22.261719 147.875 C 22.257812 147.773438 22.195312 147.664062 22.28125 147.566406 C 22.605469 147.480469 22.683594 147.632812 22.675781 147.933594 C 22.660156 148.347656 22.519531 148.773438 22.96875 149.125 Z M 22.96875 149.121094 "/></g></g></g><g clip-rule="nonzero" clip-path="url(#f1f5b75afe)"><g clip-rule="nonzero" clip-path="url(#0f5c171ba9)"><g clip-rule="nonzero" clip-path="url(#ef9e1798b6)"><path style=" stroke:none;fill-rule:nonzero;fill:#535455;fill-opacity:1;" d="M 30.542969 16.207031 C 30.675781 16.902344 31.398438 16.605469 31.765625 16.917969 C 31.832031 16.976562 32.308594 16.960938 32.636719 16.75 C 33.0625 16.476562 33.65625 16.414062 34.210938 16.507812 C 34.253906 16.679688 34.300781 16.84375 34.347656 17.011719 C 34.015625 17.273438 34.191406 17.589844 34.25 17.898438 C 34.128906 18.113281 34.011719 18.324219 33.894531 18.539062 C 33.65625 18.570312 33.472656 18.726562 33.289062 18.851562 C 33.070312 19.003906 33.0625 19.417969 32.695312 19.386719 C 32.355469 19.359375 32.3125 19.019531 32.15625 18.796875 C 32.109375 18.730469 32.011719 18.609375 31.953125 18.679688 C 31.808594 18.847656 31.660156 19.035156 31.59375 19.242188 C 31.535156 19.429688 31.636719 19.628906 31.832031 19.726562 C 32.941406 20.289062 34.078125 20.796875 35.351562 20.804688 C 35.699219 20.804688 36.082031 21.054688 36.378906 20.851562 C 36.851562 20.527344 37.347656 20.820312 37.515625 21.023438 C 37.929688 21.511719 38.453125 21.324219 38.90625 21.414062 C 39.789062 21.585938 40.707031 21.46875 41.609375 21.628906 C 41.972656 21.691406 42.238281 22.089844 42.519531 21.984375 C 42.859375 21.863281 43.042969 22 43.28125 22.128906 C 43.433594 22.210938 43.589844 22.355469 43.765625 22.222656 C 43.960938 22.078125 44.0625 22.179688 44.214844 22.300781 C 44.421875 22.457031 44.660156 22.65625 44.898438 22.675781 C 45.765625 22.75 46.445312 22.875 47 23.164062 C 47.121094 23.230469 47.210938 23.214844 47.246094 23.085938 C 47.421875 22.484375 47.800781 22.871094 48.089844 22.925781 C 48.273438 22.960938 48.429688 23.773438 48.605469 22.917969 C 48.605469 22.910156 48.644531 22.890625 48.652344 22.898438 C 49.011719 23.195312 49.488281 22.730469 49.859375 23.117188 C 50.195312 23.460938 50.835938 23.601562 51.113281 23.464844 C 51.820312 23.109375 52.378906 23.988281 53.011719 23.554688 C 53.621094 23.933594 54.179688 23.523438 54.761719 23.441406 C 54.921875 23.417969 54.972656 23.222656 54.914062 23.097656 C 54.65625 22.546875 54.851562 22.316406 55.417969 22.308594 C 55.484375 22.308594 55.554688 22.269531 55.613281 22.226562 C 56 21.945312 56.089844 22.125 56.265625 22.503906 C 56.429688 22.855469 56.976562 22.914062 57.1875 23.324219 C 57.257812 23.460938 57.449219 23.085938 57.636719 23.246094 C 57.703125 23.46875 57.300781 23.777344 57.589844 23.832031 C 57.816406 23.871094 58.121094 24.042969 58.289062 23.945312 C 58.808594 23.628906 59.351562 23.863281 59.875 23.789062 C 60.191406 23.746094 60.710938 23.5625 60.828125 23.742188 C 61.125 24.214844 61.566406 24.066406 61.941406 24.164062 C 62.183594 24.226562 62.433594 24.136719 62.707031 24.195312 C 63.238281 24.3125 63.777344 24.492188 64.292969 24.539062 C 64.996094 24.605469 65.617188 24.757812 66.25 25.039062 C 66.636719 25.210938 67.117188 25.277344 67.460938 24.851562 C 67.679688 24.585938 67.875 24.28125 68.242188 24.683594 C 68.304688 24.753906 68.410156 24.730469 68.480469 24.664062 C 68.675781 24.5 68.859375 24.609375 69.070312 24.640625 C 69.390625 24.6875 69.863281 24.988281 69.960938 24.328125 C 69.972656 24.257812 70.039062 24.230469 70.109375 24.207031 C 70.570312 24.023438 71.058594 24.4375 71.527344 24.132812 C 71.582031 24.09375 71.808594 24.234375 71.878906 24.402344 C 72.097656 24.90625 72.488281 25.03125 72.914062 24.683594 C 73.199219 24.457031 73.414062 24.488281 73.71875 24.628906 C 74.152344 24.828125 74.628906 24.921875 75.070312 24.589844 C 75.21875 24.472656 75.398438 24.503906 75.566406 24.46875 C 75.894531 24.394531 76.316406 24.632812 76.542969 24.253906 C 76.746094 23.910156 76.945312 24.039062 77.140625 24.210938 C 77.421875 24.460938 77.757812 24.628906 78.113281 24.625 C 78.875 24.617188 78.875 24.589844 79.054688 25.363281 C 78.96875 25.367188 78.832031 25.40625 78.808594 25.371094 C 78.402344 24.769531 78.363281 25.34375 78.253906 25.550781 C 78.175781 25.707031 78.15625 25.894531 78.335938 26.027344 C 78.570312 26.195312 78.53125 26.367188 78.351562 26.558594 C 78.175781 26.742188 78.1875 27.042969 78.371094 27.109375 C 78.804688 27.261719 78.683594 27.40625 78.476562 27.65625 C 78.316406 27.851562 78.335938 28.121094 78.304688 28.363281 C 78.265625 28.675781 78.289062 29.03125 78.148438 29.285156 C 77.671875 30.140625 77.363281 31.078125 77.019531 31.980469 C 76.71875 32.761719 76.714844 33.671875 76.53125 34.519531 C 76.480469 34.761719 76.4375 34.917969 76.242188 35.054688 C 75.816406 35.355469 75.421875 35.6875 75.640625 36.308594 C 75.703125 36.480469 75.640625 36.648438 75.507812 36.738281 C 74.792969 37.207031 74.738281 38.132812 74.136719 38.683594 C 74.054688 38.753906 73.980469 38.894531 74.109375 39.007812 C 74.214844 39.105469 74.335938 39.082031 74.449219 39.011719 C 74.628906 38.898438 74.8125 38.808594 75.066406 38.859375 C 74.996094 39.40625 74.609375 39.632812 74.164062 39.75 C 73.882812 39.828125 73.652344 40.015625 73.675781 40.234375 C 73.75 40.796875 73.417969 41.070312 73.046875 41.347656 C 72.792969 41.539062 72.859375 41.78125 72.964844 42.015625 C 73.066406 42.253906 73.269531 42.207031 73.464844 42.152344 C 73.683594 42.09375 73.90625 42.027344 74.128906 41.980469 C 74.238281 41.949219 74.347656 41.957031 74.371094 42.101562 C 74.417969 42.359375 74.023438 42.824219 73.742188 42.84375 C 73.578125 42.855469 73.429688 42.902344 73.300781 43.007812 C 73.171875 43.105469 73.03125 43.109375 72.917969 42.988281 C 72.589844 42.640625 72.433594 42.910156 72.292969 43.164062 C 72.226562 43.289062 72.171875 43.398438 72.050781 43.488281 C 71.574219 43.839844 71.300781 44.332031 71.046875 44.867188 C 70.746094 45.5 70.671875 46.210938 70.289062 46.8125 C 69.859375 47.480469 69.90625 47.597656 70.6875 47.878906 C 70.925781 47.96875 70.960938 48.105469 70.894531 48.273438 C 70.792969 48.511719 70.695312 48.792969 70.398438 48.855469 C 69.894531 48.957031 69.9375 49.628906 69.453125 49.75 C 69.441406 49.75 69.4375 49.886719 69.46875 49.9375 C 69.605469 50.160156 69.480469 50.246094 69.296875 50.335938 C 68.996094 50.488281 68.882812 50.695312 69.125 51.011719 C 69.214844 51.136719 69.25 51.296875 69.308594 51.445312 C 69.316406 51.652344 69.238281 51.800781 69.027344 51.859375 C 68.78125 51.703125 68.640625 51.75 68.636719 52.058594 C 68.632812 52.230469 68.648438 52.398438 68.65625 52.574219 C 68.625 52.582031 68.605469 52.601562 68.585938 52.625 C 68.082031 52.453125 67.777344 52.660156 67.527344 53.105469 C 67.164062 53.757812 67.320312 54.558594 66.875 55.175781 C 66.859375 55.203125 66.902344 55.273438 66.910156 55.324219 C 67.027344 55.964844 66.464844 56.441406 66.476562 57.058594 C 66.476562 57.09375 66.304688 57.113281 66.253906 57.175781 C 66.015625 57.464844 65.507812 57.566406 65.519531 58.011719 C 65.53125 58.433594 65.355469 58.757812 65.160156 59.09375 C 64.71875 59.839844 65.019531 60.6875 64.839844 61.46875 C 64.828125 61.511719 64.851562 61.582031 64.886719 61.613281 C 65.144531 61.886719 65.105469 62.230469 65.109375 62.5625 C 65.113281 62.972656 65.230469 63.3125 65.449219 63.683594 C 65.664062 64.050781 66.042969 64.128906 66.230469 64.359375 C 66.675781 64.917969 67.335938 65.394531 67.296875 66.242188 C 67.289062 66.394531 67.335938 66.617188 67.558594 66.550781 C 68.050781 66.402344 68.125 66.738281 68.199219 67.0625 C 68.230469 67.210938 68.285156 67.3125 68.417969 67.308594 C 68.800781 67.285156 68.878906 67.59375 68.996094 67.832031 C 69.101562 68.058594 69.195312 68.296875 69.476562 68.15625 C 69.71875 68.027344 69.695312 67.785156 69.5625 67.5625 C 69.425781 67.339844 69.398438 67.234375 69.753906 67.164062 C 70.257812 67.0625 70.644531 66.75 70.652344 66.152344 C 70.652344 65.957031 70.667969 65.683594 70.878906 65.675781 C 71.363281 65.660156 71.246094 65.324219 71.25 65.074219 C 71.257812 64.382812 71.25 64.382812 71.488281 63.9375 C 71.5 63.90625 71.507812 63.867188 71.5 63.835938 C 71.363281 63.332031 71.832031 63.046875 71.941406 62.632812 C 71.964844 62.535156 72.105469 62.347656 72.234375 62.585938 C 72.292969 62.6875 72.140625 62.921875 72.390625 62.898438 C 72.59375 62.878906 72.648438 62.675781 72.683594 62.503906 C 72.734375 62.234375 72.660156 61.824219 72.820312 61.703125 C 73.292969 61.34375 73.238281 61.042969 72.910156 60.65625 C 72.835938 60.574219 72.820312 60.460938 72.890625 60.359375 C 72.984375 60.21875 73.105469 60.292969 73.214844 60.34375 C 73.359375 60.414062 73.527344 60.527344 73.628906 60.324219 C 73.898438 59.800781 74.308594 59.335938 74.5625 58.84375 C 74.882812 58.214844 75.1875 57.515625 75.34375 56.796875 C 75.429688 56.402344 75.496094 56.042969 75.789062 55.71875 C 75.992188 55.492188 76.140625 55.171875 76.300781 54.902344 C 76.511719 54.5625 76.273438 54.164062 76.535156 53.910156 C 76.78125 53.671875 76.714844 53.445312 76.648438 53.183594 C 76.445312 53.246094 76.292969 53.226562 76.175781 53.097656 C 76.296875 53.230469 76.449219 53.25 76.648438 53.183594 C 76.628906 52.625 76.582031 52.0625 76.539062 51.5 C 76.582031 52.0625 76.632812 52.621094 76.648438 53.183594 C 77.03125 53.085938 77.363281 52.695312 77.328125 52.46875 C 77.277344 52.105469 77.34375 51.839844 77.496094 51.550781 C 77.503906 51.53125 77.472656 51.484375 77.449219 51.460938 C 77.03125 51 77.394531 50.664062 77.609375 50.28125 C 77.808594 49.929688 78.371094 49.886719 78.421875 49.625 C 78.503906 49.179688 78.761719 48.863281 78.910156 48.480469 C 79.082031 48.039062 79.183594 47.550781 79.101562 47.054688 C 80.214844 46.488281 80.488281 45.324219 80.957031 44.328125 C 81.148438 43.921875 81.445312 43.414062 81.203125 42.871094 C 81.164062 42.78125 81.242188 42.664062 81.363281 42.632812 C 81.902344 42.496094 81.980469 42.132812 81.84375 41.671875 C 81.75 41.363281 81.8125 41.160156 82.15625 41.074219 C 82.253906 41.050781 82.351562 40.984375 82.417969 40.910156 C 83.035156 40.203125 83.851562 39.632812 83.96875 38.570312 C 83.996094 38.339844 84.132812 38.070312 84.179688 37.824219 C 84.359375 36.886719 84.878906 36.039062 84.867188 35.050781 C 84.867188 34.757812 85.03125 34.390625 85.347656 34.371094 C 85.796875 34.335938 85.832031 34.023438 85.90625 33.734375 C 85.949219 33.554688 85.984375 33.386719 86.136719 33.28125 C 86.511719 33.015625 86.445312 32.660156 86.34375 32.300781 C 86.285156 32.097656 86.214844 31.917969 86.300781 31.695312 C 86.640625 30.871094 86.683594 29.980469 86.484375 29.144531 C 86.316406 28.4375 86.496094 27.851562 86.71875 27.242188 C 86.78125 27.070312 87.003906 26.925781 86.847656 26.71875 C 86.683594 26.496094 86.507812 26.6875 86.328125 26.730469 C 86.179688 26.769531 85.960938 26.742188 85.917969 26.582031 C 85.855469 26.378906 86.085938 26.410156 86.207031 26.371094 C 86.390625 26.304688 86.601562 26.144531 86.53125 26.015625 C 86.277344 25.5625 86.550781 25.078125 86.40625 24.652344 C 86.246094 24.175781 86.105469 23.699219 86.046875 23.203125 C 86.035156 23.078125 85.957031 22.972656 85.859375 22.992188 C 85.472656 23.0625 85.226562 22.664062 84.820312 22.726562 C 84.539062 22.769531 84.414062 22.472656 84.410156 22.207031 C 84.40625 21.921875 84.675781 21.980469 84.835938 21.90625 C 85.074219 21.800781 85.246094 22.09375 85.511719 22.015625 C 85.5 21.945312 85.511719 21.871094 85.476562 21.820312 C 85.320312 21.582031 84.929688 21.441406 85.164062 21.039062 C 85.171875 21.027344 85.113281 20.945312 85.066406 20.925781 C 84.789062 20.792969 84.566406 20.527344 84.21875 20.535156 C 84.113281 20.539062 83.988281 20.5625 83.96875 20.417969 C 83.945312 20.261719 84.074219 20.257812 84.183594 20.261719 C 84.273438 20.265625 84.371094 20.28125 84.394531 20.167969 C 84.421875 20.050781 84.335938 19.976562 84.242188 19.914062 C 83.925781 19.707031 83.589844 19.5625 83.199219 19.601562 C 82.78125 19.640625 82.445312 19.589844 82.464844 19.050781 C 82.472656 18.890625 82.363281 18.730469 82.210938 18.796875 C 81.753906 19.011719 81.28125 18.75 80.832031 18.890625 C 80.542969 18.984375 80.308594 18.878906 80.121094 18.667969 C 79.976562 18.511719 80.503906 18.175781 79.972656 18.09375 C 79.910156 18.085938 79.894531 17.910156 79.992188 17.820312 C 80.03125 17.785156 80.089844 17.757812 80.105469 17.710938 C 80.175781 17.546875 80.050781 17.425781 79.941406 17.507812 C 79.574219 17.796875 79.472656 17.488281 79.328125 17.273438 C 79.148438 17.015625 78.859375 16.9375 78.589844 16.902344 C 78.003906 16.828125 77.414062 16.800781 76.824219 16.972656 C 76.355469 17.109375 75.886719 17.160156 75.40625 16.894531 C 75.03125 16.691406 74.550781 16.550781 74.140625 16.636719 C 73.566406 16.753906 72.980469 16.628906 72.410156 16.804688 C 72.183594 16.875 71.933594 16.796875 71.699219 16.671875 C 71.183594 16.394531 70.683594 16.4375 70.25 16.851562 C 70.0625 17.03125 69.851562 17.113281 69.628906 16.996094 C 69.324219 16.835938 69.015625 16.882812 68.703125 16.910156 C 68.167969 16.953125 67.660156 16.757812 67.207031 16.5625 C 66.800781 16.390625 66.453125 16.332031 66.125 16.542969 C 65.78125 16.761719 65.476562 16.664062 65.246094 16.484375 C 64.960938 16.257812 64.679688 16.230469 64.359375 16.28125 C 64.230469 16.300781 64.117188 16.285156 64 16.222656 C 63.449219 15.941406 62.894531 15.902344 62.273438 16.039062 C 61.734375 16.152344 61.148438 16.121094 60.585938 16.078125 C 59.886719 16.027344 59.191406 15.902344 58.488281 15.8125 C 58.214844 15.78125 57.914062 15.792969 57.738281 15.992188 C 57.433594 16.332031 57.117188 16.136719 56.964844 15.953125 C 56.652344 15.566406 56.320312 15.628906 56 15.820312 C 55.441406 16.15625 54.730469 16.175781 54.246094 16.660156 C 54.109375 16.792969 53.976562 16.6875 53.867188 16.617188 C 53.695312 16.507812 53.523438 16.476562 53.3125 16.496094 C 53.058594 16.523438 52.808594 16.496094 52.570312 16.332031 C 52.359375 16.1875 52.074219 16.148438 51.804688 16.160156 C 50.859375 16.191406 49.914062 16.191406 49.011719 16.546875 C 48.917969 16.582031 48.8125 16.691406 48.730469 16.574219 C 48.492188 16.246094 47.996094 16.453125 47.765625 16.097656 C 47.707031 16.007812 47.558594 16.015625 47.484375 16.109375 C 47.246094 16.417969 46.851562 16.347656 46.550781 16.507812 C 46.320312 16.632812 46.023438 16.632812 45.894531 16.289062 C 45.839844 16.144531 45.691406 16.101562 45.582031 16.015625 C 45.179688 15.6875 44.644531 15.746094 44.207031 15.53125 C 43.925781 15.394531 43.722656 15.511719 43.632812 15.710938 C 43.425781 16.160156 43.132812 16.066406 42.8125 15.90625 C 42.726562 15.863281 42.621094 15.71875 42.582031 15.894531 C 42.511719 16.210938 42.375 15.945312 42.3125 15.964844 C 41.929688 16.085938 41.660156 15.839844 41.347656 15.746094 C 41.011719 15.644531 40.792969 15.984375 40.601562 15.996094 C 40.027344 16.03125 39.558594 16.3125 39.050781 16.488281 C 38.195312 16.78125 37.546875 16.460938 37.472656 15.585938 C 37.457031 15.394531 37.449219 15.261719 37.21875 15.316406 C 36.667969 15.449219 36.113281 15.542969 35.550781 15.398438 C 35.273438 15.320312 35.046875 15.519531 34.746094 15.492188 C 34.074219 15.4375 33.589844 14.945312 32.894531 14.917969 C 31.777344 14.875 30.730469 14.824219 29.960938 15.878906 C 30.230469 15.941406 30.511719 15.953125 30.5625 16.214844 Z M 79.242188 30.742188 C 79.347656 30.726562 79.414062 30.773438 79.464844 30.847656 C 79.507812 30.925781 79.515625 31.015625 79.464844 31.097656 C 79.386719 31.230469 79.171875 31.253906 79.175781 31.449219 C 79.089844 31.484375 79 31.523438 78.914062 31.558594 C 78.71875 31.246094 78.902344 30.789062 79.242188 30.738281 Z M 76.523438 51.304688 C 76.488281 50.769531 76.464844 50.238281 76.484375 49.703125 C 76.460938 50.234375 76.488281 50.769531 76.523438 51.304688 Z M 76.523438 51.304688 "/></g></g></g><g clip-rule="nonzero" clip-path="url(#efc0e681b8)"><g clip-rule="nonzero" clip-path="url(#107291f91e)"><g clip-rule="nonzero" clip-path="url(#13cd1eb06c)"><path style=" stroke:none;fill-rule:nonzero;fill:#535455;fill-opacity:1;" d="M 25.25 16.980469 C 25.882812 17.027344 26.578125 16.953125 26.921875 17.699219 C 26.96875 17.800781 27.097656 17.976562 27.246094 17.925781 C 27.433594 17.859375 27.441406 17.644531 27.464844 17.476562 C 27.515625 17.164062 27.523438 16.847656 27.570312 16.539062 C 27.582031 16.46875 27.671875 16.394531 27.746094 16.363281 C 27.832031 16.328125 27.894531 16.433594 27.871094 16.480469 C 27.695312 16.894531 28.027344 17.347656 27.734375 17.761719 C 27.523438 18.058594 27.800781 18.21875 28 18.386719 C 28.238281 17.828125 28.824219 18.089844 29.210938 17.882812 C 29.226562 17.878906 29.230469 17.851562 29.242188 17.84375 C 29.46875 17.738281 29.582031 17.484375 29.824219 17.402344 C 29.980469 17.351562 30.070312 17.210938 29.984375 17.066406 C 29.539062 16.304688 29.273438 15.386719 28.300781 15.066406 C 28.238281 15.042969 28.164062 15.035156 28.101562 15.050781 C 28.015625 15.070312 28.007812 15.15625 28.050781 15.21875 C 28.429688 15.761719 27.921875 15.804688 27.582031 16.019531 C 27.566406 15.898438 27.558594 15.847656 27.550781 15.796875 C 27.46875 14.910156 26.757812 14.515625 25.984375 14.925781 C 25.859375 14.992188 25.8125 15.085938 25.828125 15.230469 C 25.941406 16.101562 25.511719 16.535156 24.671875 16.402344 C 24.582031 16.386719 24.488281 16.375 24.441406 16.472656 C 24.394531 16.574219 24.453125 16.632812 24.53125 16.691406 C 24.75 16.847656 24.96875 16.957031 25.25 16.972656 Z M 25.25 16.980469 "/></g></g></g><g clip-rule="nonzero" clip-path="url(#144b1c4714)"><g clip-rule="nonzero" clip-path="url(#697845d1b5)"><g clip-rule="nonzero" clip-path="url(#10a25009e0)"><path style=" stroke:none;fill-rule:nonzero;fill:#535455;fill-opacity:1;" d="M 40.914062 213.070312 C 40.875 212.855469 40.777344 212.515625 40.429688 212.730469 C 40.230469 212.855469 40.054688 213.0625 39.988281 213.308594 C 39.824219 213.980469 39.824219 213.988281 39.214844 213.707031 C 38.992188 213.605469 38.671875 213.628906 38.695312 213.8125 C 38.761719 214.242188 38.414062 214.382812 38.257812 214.652344 C 38.132812 214.867188 38.089844 215.007812 38.382812 215.0625 C 38.527344 215.089844 38.679688 215.117188 38.664062 215.304688 C 38.652344 215.472656 38.496094 215.558594 38.359375 215.539062 C 38.03125 215.5 37.890625 215.753906 37.945312 215.9375 C 38.046875 216.257812 38.082031 216.632812 38.394531 216.855469 C 38.414062 216.871094 38.5 216.839844 38.523438 216.808594 C 38.808594 216.476562 39.234375 216.542969 39.59375 216.421875 C 39.761719 216.367188 39.914062 216.328125 40.0625 216.199219 C 40.300781 215.988281 39.863281 215.710938 40.125 215.589844 C 40.3125 215.503906 40.511719 215.90625 40.730469 215.6875 C 41.417969 215.507812 41.75 215.035156 41.4375 214.632812 C 41.058594 214.15625 41.007812 213.621094 40.914062 213.070312 Z M 40.265625 215.210938 C 40.117188 215.171875 39.96875 215.128906 39.960938 214.96875 C 39.957031 214.847656 40.027344 214.703125 40.144531 214.683594 C 40.347656 214.65625 40.308594 214.859375 40.347656 214.972656 C 40.378906 215.066406 40.390625 215.171875 40.261719 215.214844 Z M 40.265625 215.210938 "/></g></g></g><g clip-rule="nonzero" clip-path="url(#a4ceb2ad8c)"><g clip-rule="nonzero" clip-path="url(#e1382e7c61)"><g clip-rule="nonzero" clip-path="url(#762304463b)"><path style=" stroke:none;fill-rule:nonzero;fill:#535455;fill-opacity:1;" d="M 34.53125 206.359375 C 34.183594 206.425781 34.347656 206.785156 34.382812 206.984375 C 34.425781 207.230469 34.585938 207.5 34.917969 207.339844 C 35.183594 207.273438 35.453125 207.160156 35.296875 206.878906 C 35.144531 206.605469 34.894531 206.296875 34.53125 206.359375 Z M 34.53125 206.359375 "/></g></g></g><g clip-rule="nonzero" clip-path="url(#0181a9d7da)"><g clip-rule="nonzero" clip-path="url(#91fe3b8c5c)"><g clip-rule="nonzero" clip-path="url(#5b72af924b)"><path style=" stroke:none;fill-rule:nonzero;fill:#535455;fill-opacity:1;" d="M 40.582031 211.648438 C 40.265625 211.527344 40.113281 211.425781 39.957031 211.417969 C 39.417969 211.394531 39.832031 211.769531 39.75 211.941406 C 40.054688 212.011719 40.195312 211.726562 40.582031 211.648438 Z M 40.582031 211.648438 "/></g></g></g></g><mask id="ab9bfe1102"><g filter="url(#1e51153399)"><rect x="0" width="375" y="0" height="374.999991" style="fill:#000000;fill-opacity:0.69;stroke:none;"/></g></mask></g><g mask="url(#16e7e96857)" transform="matrix(1,0,0,1,1,203)"><g clip-path="url(#0f2e2377e6)"><g style="fill:#535455;fill-opacity:1;"><g transform="translate(0.924345, 78.865619)"><path style="stroke:none" d="M 15.453125 1.25 C 13.992188 1.25 12.648438 0.910156 11.421875 0.234375 C 10.203125 -0.441406 9.148438 -1.351562 8.265625 -2.5 C 7.492188 -3.59375 6.796875 -4.984375 6.171875 -6.671875 C 5.546875 -8.359375 5.078125 -10.113281 4.765625 -11.9375 C 4.140625 -15.007812 3.722656 -19.039062 3.515625 -24.03125 C 3.460938 -25.226562 3.4375 -27.285156 3.4375 -30.203125 L 3.4375 -35.125 C 3.488281 -36.53125 3.515625 -37.984375 3.515625 -39.484375 C 3.515625 -42.554688 3.695312 -44.976562 4.0625 -46.75 C 3.90625 -47.53125 3.828125 -48.335938 3.828125 -49.171875 C 3.828125 -52.296875 4.992188 -54.816406 7.328125 -56.734375 C 9.671875 -58.660156 12.640625 -59.625 16.234375 -59.625 C 17.585938 -59.625 18.835938 -59.257812 19.984375 -58.53125 C 21.128906 -57.800781 21.703125 -56.890625 21.703125 -55.796875 C 21.703125 -55.273438 21.492188 -54.859375 21.078125 -54.546875 C 20.660156 -54.242188 20.140625 -54.09375 19.515625 -54.09375 C 18.992188 -54.09375 18.429688 -54.171875 17.828125 -54.328125 C 17.234375 -54.484375 16.859375 -54.710938 16.703125 -55.015625 L 15.6875 -55.015625 L 15.6875 -55.171875 C 13.757812 -55.171875 12.144531 -54.757812 10.84375 -53.9375 C 9.90625 -53.257812 9.175781 -52.140625 8.65625 -50.578125 C 8.445312 -50.003906 8.289062 -49.273438 8.1875 -48.390625 C 8.082031 -47.503906 8.03125 -46.695312 8.03125 -45.96875 C 7.976562 -45.550781 7.953125 -44.71875 7.953125 -43.46875 L 8.109375 -40.734375 L 8.1875 -38.09375 C 8.1875 -37.3125 8.082031 -36.398438 7.875 -35.359375 C 7.625 -34.054688 7.5 -33.144531 7.5 -32.625 L 7.5 -30.75 C 7.5 -28.71875 7.578125 -25.9375 7.734375 -22.40625 C 7.773438 -19.4375 8.109375 -16.46875 8.734375 -13.5 C 9.203125 -10.738281 10.085938 -8.398438 11.390625 -6.484375 C 12.640625 -4.503906 14.332031 -3.515625 16.46875 -3.515625 C 17.351562 -3.515625 18.445312 -3.984375 19.75 -4.921875 C 21.15625 -5.859375 22.144531 -6.328125 22.71875 -6.328125 C 23.4375 -6.328125 24.1875 -5.9375 24.96875 -5.15625 C 24.96875 -3.226562 24.242188 -1.742188 22.796875 -0.703125 C 21.441406 0.234375 19.828125 0.832031 17.953125 1.09375 C 16.910156 1.195312 16.078125 1.25 15.453125 1.25 Z M 15.453125 1.25 "/></g></g><g style="fill:#535455;fill-opacity:1;"><g transform="translate(27.22185, 78.865619)"><path style="stroke:none" d="M 13.890625 1.484375 C 12.535156 1.484375 11.285156 1.050781 10.140625 0.1875 C 8.992188 -0.664062 8.0625 -1.820312 7.34375 -3.28125 C 5.832031 -6.445312 4.894531 -9.90625 4.53125 -13.65625 C 4.0625 -17.195312 3.828125 -20.601562 3.828125 -23.875 C 3.828125 -24.5 3.851562 -25.019531 3.90625 -25.4375 L 3.90625 -26.84375 C 3.90625 -27.101562 3.878906 -27.234375 3.828125 -27.234375 L 3.828125 -28.640625 L 3.90625 -34.109375 C 3.957031 -35.773438 4.164062 -38.425781 4.53125 -42.0625 C 4.789062 -44.5625 5.390625 -46.984375 6.328125 -49.328125 C 6.691406 -50.367188 7.15625 -51.160156 7.71875 -51.703125 C 8.289062 -52.253906 8.941406 -52.53125 9.671875 -52.53125 C 11.753906 -52.53125 13.628906 -52.148438 15.296875 -51.390625 C 16.960938 -50.640625 18.367188 -49.585938 19.515625 -48.234375 C 20.554688 -46.929688 21.441406 -45.328125 22.171875 -43.421875 C 22.898438 -41.523438 23.414062 -39.515625 23.71875 -37.390625 C 24.03125 -35.203125 24.1875 -32.882812 24.1875 -30.4375 L 24.1875 -29.8125 C 24.1875 -28.195312 24.210938 -26.738281 24.265625 -25.4375 L 24.34375 -21 C 24.34375 -6.007812 20.859375 1.484375 13.890625 1.484375 Z M 13.578125 -1.796875 C 14.515625 -1.796875 15.375 -2.171875 16.15625 -2.921875 C 16.9375 -3.679688 17.535156 -4.710938 17.953125 -6.015625 C 18.941406 -8.660156 19.539062 -11.519531 19.75 -14.59375 C 20.007812 -17.25 20.140625 -19.539062 20.140625 -21.46875 C 20.140625 -23.800781 19.957031 -26.867188 19.59375 -30.671875 C 19.28125 -34.679688 19.125 -37.671875 19.125 -39.640625 L 19.125 -41.046875 C 19.019531 -43.023438 18.351562 -44.742188 17.125 -46.203125 C 15.90625 -47.660156 14.410156 -48.390625 12.640625 -48.390625 C 10.867188 -48.390625 9.695312 -47.375 9.125 -45.34375 C 8.601562 -43.726562 8.34375 -41.644531 8.34375 -39.09375 C 8.34375 -38.113281 8.367188 -37.285156 8.421875 -36.609375 L 8.421875 -34.5 L 8.265625 -30.90625 C 8.160156 -29.8125 8.109375 -28.613281 8.109375 -27.3125 C 8.109375 -24.507812 8.1875 -21.726562 8.34375 -18.96875 C 8.550781 -15.0625 9.070312 -11.265625 9.90625 -7.578125 C 10.738281 -3.722656 11.960938 -1.796875 13.578125 -1.796875 Z M 13.578125 -1.796875 "/></g></g><g style="fill:#535455;fill-opacity:1;"><g transform="translate(55.314135, 78.865619)"><path style="stroke:none" d="M 26.0625 0.234375 C 25.4375 0.234375 24.96875 0.0664062 24.65625 -0.265625 C 24.34375 -0.609375 24.109375 -1.195312 23.953125 -2.03125 L 23.484375 -3.515625 L 23.484375 -3.90625 C 23.484375 -5.625 21.703125 -11.476562 18.140625 -21.46875 C 14.578125 -31.457031 11.78125 -38.84375 9.75 -43.625 L 9.75 -4.375 L 10.0625 -3.828125 C 10.113281 -3.722656 10.21875 -3.539062 10.375 -3.28125 C 10.53125 -3.019531 10.609375 -2.757812 10.609375 -2.5 C 10.609375 -1.820312 10.375 -1.25 9.90625 -0.78125 C 9.4375 -0.3125 8.863281 -0.078125 8.1875 -0.078125 C 6.53125 -0.078125 5.703125 -1.664062 5.703125 -4.84375 L 5.625 -18.1875 C 5.570312 -22.1875 5.546875 -26.660156 5.546875 -31.609375 C 5.546875 -33.273438 5.625 -35.695312 5.78125 -38.875 C 5.9375 -42.144531 6.015625 -44.5625 6.015625 -46.125 C 6.015625 -48.570312 6.945312 -50.5 8.8125 -51.90625 L 8.8125 -51.4375 C 9.125 -51.539062 9.332031 -51.59375 9.4375 -51.59375 C 10.632812 -51.59375 12.144531 -49.507812 13.96875 -45.34375 C 15.425781 -42.007812 16.738281 -38.492188 17.90625 -34.796875 C 19.082031 -31.109375 20.632812 -25.859375 22.5625 -19.046875 L 23.34375 -16.234375 C 24.53125 -12.015625 25.4375 -9 26.0625 -7.1875 C 27.101562 -18.363281 27.625 -31.578125 27.625 -46.828125 L 27.625 -47.84375 C 27.570312 -48.15625 27.546875 -48.492188 27.546875 -48.859375 C 27.546875 -50.421875 28.171875 -51.203125 29.421875 -51.203125 C 30.148438 -51.203125 30.707031 -50.914062 31.09375 -50.34375 C 31.488281 -49.769531 31.6875 -49.039062 31.6875 -48.15625 L 31.6875 -42.296875 C 31.582031 -34.285156 31.269531 -25.597656 30.75 -16.234375 C 30.226562 -6.867188 29.601562 -1.585938 28.875 -0.390625 C 27.363281 0.0234375 26.425781 0.234375 26.0625 0.234375 Z M 26.0625 0.234375 "/></g></g><g style="fill:#535455;fill-opacity:1;"><g transform="translate(92.692487, 78.865619)"><path style="stroke:none" d="M 9.125 -1.25 L 9.046875 -4.296875 C 8.992188 -5.179688 8.96875 -6.171875 8.96875 -7.265625 L 9.046875 -9.90625 C 8.890625 -10.476562 8.5 -16.175781 7.875 -27 C 7.257812 -37.820312 6.898438 -44.769531 6.796875 -47.84375 C 3.773438 -47.945312 1.847656 -48.257812 1.015625 -48.78125 C 0.441406 -49.195312 0.15625 -49.664062 0.15625 -50.1875 C 0.15625 -50.601562 0.425781 -50.976562 0.96875 -51.3125 C 1.519531 -51.65625 2.082031 -51.828125 2.65625 -51.828125 C 4.113281 -51.828125 5.878906 -51.722656 7.953125 -51.515625 C 9.929688 -51.253906 11.703125 -51.125 13.265625 -51.125 L 14.515625 -51.125 C 16.128906 -51.125 16.9375 -50.5 16.9375 -49.25 C 16.9375 -48.625 16.675781 -48.113281 16.15625 -47.71875 C 15.632812 -47.332031 15.035156 -47.140625 14.359375 -47.140625 C 13.890625 -47.140625 13.210938 -47.21875 12.328125 -47.375 L 10.765625 -47.6875 L 10.609375 -46.90625 C 10.609375 -42.269531 11.050781 -34.878906 11.9375 -24.734375 C 12.769531 -15.210938 13.1875 -7.828125 13.1875 -2.578125 C 13.1875 -1.953125 12.910156 -1.40625 12.359375 -0.9375 C 11.816406 -0.46875 11.207031 -0.234375 10.53125 -0.234375 Z M 9.125 -1.25 "/></g></g><g style="fill:#535455;fill-opacity:1;"><g transform="translate(112.669225, 78.865619)"><path style="stroke:none" d="M 20.140625 0.703125 C 18.941406 0.703125 18.054688 0.519531 17.484375 0.15625 C 16.910156 -0.207031 16.625 -0.882812 16.625 -1.875 C 16.625 -3.4375 16.363281 -6.085938 15.84375 -9.828125 L 15.53125 -11.46875 L 7.796875 -12.640625 C 7.492188 -11.441406 7.054688 -9.023438 6.484375 -5.390625 C 6.171875 -2.835938 5.675781 -1.144531 5 -0.3125 C 4.632812 0.15625 4.113281 0.390625 3.4375 0.390625 C 2.8125 0.390625 2.238281 0.195312 1.71875 -0.1875 C 1.195312 -0.582031 0.9375 -1.066406 0.9375 -1.640625 L 1.09375 -2.03125 L 1.171875 -2.34375 C 4.609375 -15.71875 7.207031 -28.90625 8.96875 -41.90625 C 8.96875 -42.113281 8.992188 -42.460938 9.046875 -42.953125 C 9.097656 -43.453125 9.148438 -44.171875 9.203125 -45.109375 C 9.359375 -47.035156 9.523438 -48.570312 9.703125 -49.71875 C 9.890625 -50.863281 10.191406 -51.722656 10.609375 -52.296875 L 13.265625 -52.296875 C 13.992188 -52.296875 14.617188 -52.125 15.140625 -51.78125 C 15.660156 -51.445312 15.921875 -50.96875 15.921875 -50.34375 C 15.921875 -46.382812 16.46875 -40.503906 17.5625 -32.703125 C 18.601562 -24.691406 19.125 -19.070312 19.125 -15.84375 C 19.125 -15.53125 19.253906 -14.722656 19.515625 -13.421875 C 19.773438 -12.222656 19.90625 -11.441406 19.90625 -11.078125 C 19.90625 -10.710938 20.164062 -9.15625 20.6875 -6.40625 C 21.15625 -3.90625 21.390625 -2.289062 21.390625 -1.5625 L 21.390625 -1.484375 C 21.390625 -0.335938 20.972656 0.390625 20.140625 0.703125 Z M 14.984375 -14.28125 C 14.828125 -15.0625 14.75 -16.023438 14.75 -17.171875 C 14.75 -21.847656 14.332031 -27.832031 13.5 -35.125 L 12.71875 -43.234375 C 10.476562 -31.003906 8.941406 -21.769531 8.109375 -15.53125 C 8.890625 -15.007812 11.179688 -14.59375 14.984375 -14.28125 Z M 14.984375 -14.28125 "/></g></g><g style="fill:#535455;fill-opacity:1;"><g transform="translate(136.00143, 78.865619)"><path style="stroke:none" d="M 15.21875 1.09375 C 14.070312 1.09375 12.859375 0.921875 11.578125 0.578125 C 10.304688 0.242188 9.332031 -0.128906 8.65625 -0.546875 C 5.175781 -2.785156 3.4375 -8.898438 3.4375 -18.890625 L 3.4375 -25.28125 C 3.4375 -27.363281 3.460938 -29.222656 3.515625 -30.859375 C 3.566406 -32.503906 3.671875 -34.289062 3.828125 -36.21875 C 3.984375 -38.238281 4.21875 -39.882812 4.53125 -41.15625 C 4.84375 -42.4375 5.363281 -43.882812 6.09375 -45.5 C 6.71875 -47.007812 7.484375 -48.179688 8.390625 -49.015625 C 9.296875 -49.847656 10.476562 -50.550781 11.9375 -51.125 C 13.238281 -51.695312 14.851562 -51.984375 16.78125 -51.984375 C 17.5625 -51.984375 18.160156 -51.800781 18.578125 -51.4375 C 18.992188 -51.070312 19.203125 -50.601562 19.203125 -50.03125 C 19.203125 -49.507812 19.03125 -49.039062 18.6875 -48.625 C 18.351562 -48.207031 17.953125 -47.972656 17.484375 -47.921875 L 13.8125 -47.921875 C 12.769531 -47.921875 11.859375 -47.269531 11.078125 -45.96875 C 10.296875 -44.664062 9.75 -42.972656 9.4375 -40.890625 C 8.757812 -37.046875 8.421875 -33.925781 8.421875 -31.53125 L 8.421875 -31.140625 L 8.265625 -23.640625 C 8.160156 -21.410156 8.109375 -18.890625 8.109375 -16.078125 C 8.109375 -14.097656 8.1875 -12.484375 8.34375 -11.234375 C 8.601562 -9.359375 9.046875 -7.800781 9.671875 -6.5625 C 10.296875 -5.15625 11.363281 -4.140625 12.875 -3.515625 C 13.65625 -3.203125 14.515625 -3.046875 15.453125 -3.046875 C 16.023438 -3.046875 16.597656 -3.253906 17.171875 -3.671875 C 17.847656 -3.671875 18.40625 -3.523438 18.84375 -3.234375 C 19.289062 -2.953125 19.515625 -2.523438 19.515625 -1.953125 C 19.515625 0.078125 18.082031 1.09375 15.21875 1.09375 Z M 15.21875 1.09375 "/></g></g><g style="fill:#535455;fill-opacity:1;"><g transform="translate(157.772947, 78.865619)"><path style="stroke:none" d="M 9.125 -1.25 L 9.046875 -4.296875 C 8.992188 -5.179688 8.96875 -6.171875 8.96875 -7.265625 L 9.046875 -9.90625 C 8.890625 -10.476562 8.5 -16.175781 7.875 -27 C 7.257812 -37.820312 6.898438 -44.769531 6.796875 -47.84375 C 3.773438 -47.945312 1.847656 -48.257812 1.015625 -48.78125 C 0.441406 -49.195312 0.15625 -49.664062 0.15625 -50.1875 C 0.15625 -50.601562 0.425781 -50.976562 0.96875 -51.3125 C 1.519531 -51.65625 2.082031 -51.828125 2.65625 -51.828125 C 4.113281 -51.828125 5.878906 -51.722656 7.953125 -51.515625 C 9.929688 -51.253906 11.703125 -51.125 13.265625 -51.125 L 14.515625 -51.125 C 16.128906 -51.125 16.9375 -50.5 16.9375 -49.25 C 16.9375 -48.625 16.675781 -48.113281 16.15625 -47.71875 C 15.632812 -47.332031 15.035156 -47.140625 14.359375 -47.140625 C 13.890625 -47.140625 13.210938 -47.21875 12.328125 -47.375 L 10.765625 -47.6875 L 10.609375 -46.90625 C 10.609375 -42.269531 11.050781 -34.878906 11.9375 -24.734375 C 12.769531 -15.210938 13.1875 -7.828125 13.1875 -2.578125 C 13.1875 -1.953125 12.910156 -1.40625 12.359375 -0.9375 C 11.816406 -0.46875 11.207031 -0.234375 10.53125 -0.234375 Z M 9.125 -1.25 "/></g></g><g style="fill:#535455;fill-opacity:1;"><g transform="translate(177.749686, 78.865619)"><path style="stroke:none" d="M 8.34375 1.015625 C 7.675781 1.015625 7.066406 0.78125 6.515625 0.3125 C 5.972656 -0.15625 5.675781 -0.726562 5.625 -1.40625 L 5.625 -5 C 5.570312 -5.46875 5.546875 -6.015625 5.546875 -6.640625 C 5.546875 -7.722656 5.46875 -9.382812 5.3125 -11.625 L 5.15625 -16.625 C 5.15625 -19.175781 5.234375 -22.972656 5.390625 -28.015625 C 5.597656 -32.546875 5.703125 -36.34375 5.703125 -39.40625 C 5.703125 -40.132812 5.625 -41.226562 5.46875 -42.6875 C 5.3125 -44.195312 5.234375 -45.289062 5.234375 -45.96875 C 5.234375 -49.664062 6.320312 -51.515625 8.5 -51.515625 C 10.21875 -51.515625 12.207031 -51.175781 14.46875 -50.5 C 16.738281 -49.820312 17.875 -49.015625 17.875 -48.078125 C 17.875 -47.554688 17.648438 -47.070312 17.203125 -46.625 C 16.765625 -46.1875 16.234375 -45.835938 15.609375 -45.578125 C 13.421875 -46.359375 11.441406 -46.878906 9.671875 -47.140625 C 9.722656 -46.359375 9.75 -45.238281 9.75 -43.78125 C 9.75 -41.695312 9.722656 -39.828125 9.671875 -38.171875 C 9.515625 -35.671875 9.4375 -33.796875 9.4375 -32.546875 L 9.671875 -31.296875 L 10.921875 -31.375 C 11.335938 -31.425781 11.859375 -31.453125 12.484375 -31.453125 C 14.984375 -31.453125 16.234375 -30.722656 16.234375 -29.265625 C 16.234375 -28.691406 16 -28.207031 15.53125 -27.8125 C 15.0625 -27.425781 14.460938 -27.234375 13.734375 -27.234375 C 12.796875 -27.234375 12.066406 -27.285156 11.546875 -27.390625 L 9.59375 -27.390625 C 9.695312 -26.035156 9.75 -24.0625 9.75 -21.46875 C 9.75 -18.863281 9.722656 -16.519531 9.671875 -14.4375 C 9.515625 -11.257812 9.4375 -8.894531 9.4375 -7.34375 C 9.4375 -4.425781 9.488281 -2.96875 9.59375 -2.96875 L 12.171875 -3.046875 C 13.054688 -3.097656 14.125 -3.125 15.375 -3.125 C 17.351562 -3.125 18.34375 -2.5 18.34375 -1.25 C 18.34375 -0.519531 18.015625 0.0351562 17.359375 0.421875 C 16.710938 0.816406 15.921875 1.015625 14.984375 1.015625 Z M 8.34375 1.015625 "/></g></g><g style="fill:#535455;fill-opacity:1;"><g transform="translate(199.91137, 78.865619)"><path style="stroke:none" d="M 5.9375 0.15625 C 5.363281 0.15625 4.867188 -0.0078125 4.453125 -0.34375 C 4.035156 -0.6875 3.828125 -1.117188 3.828125 -1.640625 C 3.828125 -4.765625 4.4375 -8.875 5.65625 -13.96875 C 6.882812 -19.070312 8.664062 -25.367188 11 -32.859375 C 13.34375 -40.609375 14.800781 -45.601562 15.375 -47.84375 C 14.75 -47.84375 13.734375 -47.765625 12.328125 -47.609375 C 10.921875 -47.453125 9.800781 -47.375 8.96875 -47.375 C 8.445312 -47.375 7.976562 -47.59375 7.5625 -48.03125 C 7.15625 -48.476562 6.953125 -48.988281 6.953125 -49.5625 C 6.953125 -51.070312 9.8125 -51.828125 15.53125 -51.828125 C 18.132812 -51.828125 19.4375 -51.097656 19.4375 -49.640625 C 19.4375 -47.972656 18.863281 -45.5 17.71875 -42.21875 C 16.625 -39.3125 15.945312 -37.101562 15.6875 -35.59375 C 15.164062 -31.894531 13.8125 -25.859375 11.625 -17.484375 L 8.1875 -3.984375 L 9.59375 -3.984375 L 11.234375 -4.140625 C 11.703125 -4.191406 12.25 -4.21875 12.875 -4.21875 L 12.875 -4.296875 C 14.957031 -4.296875 16 -3.644531 16 -2.34375 C 16 -1.769531 15.738281 -1.3125 15.21875 -0.96875 C 14.695312 -0.632812 14.046875 -0.46875 13.265625 -0.46875 C 12.429688 -0.46875 11.675781 -0.492188 11 -0.546875 L 8.65625 -0.703125 C 8.34375 -0.703125 7.90625 -0.546875 7.34375 -0.234375 C 6.664062 0.0234375 6.195312 0.15625 5.9375 0.15625 Z M 5.9375 0.15625 "/></g></g><g style="fill:#535455;fill-opacity:1;"><g transform="translate(222.697356, 78.865619)"><path style="stroke:none" d="M 8.8125 -24.96875 C 8.132812 -24.96875 7.535156 -25.1875 7.015625 -25.625 C 6.503906 -26.070312 6.25 -26.609375 6.25 -27.234375 C 6.25 -27.859375 6.867188 -28.40625 8.109375 -28.875 C 9.878906 -29.550781 12.953125 -30.019531 17.328125 -30.28125 C 18.992188 -30.382812 20.0625 -30.4375 20.53125 -30.4375 C 21.207031 -30.4375 21.804688 -30.210938 22.328125 -29.765625 C 22.847656 -29.328125 23.109375 -28.796875 23.109375 -28.171875 C 23.109375 -27.546875 22.484375 -27 21.234375 -26.53125 C 19.460938 -25.851562 16.390625 -25.382812 12.015625 -25.125 C 10.347656 -25.019531 9.28125 -24.96875 8.8125 -24.96875 Z M 8.8125 -24.96875 "/></g></g><g style="fill:#535455;fill-opacity:1;"><g transform="translate(252.116203, 78.865619)"><path style="stroke:none" d="M 36.21875 4.0625 C 34.601562 4.0625 33.796875 2.445312 33.796875 -0.78125 L 33.796875 -10.765625 C 33.796875 -13.367188 33.613281 -16.78125 33.25 -21 C 32.832031 -25.726562 32.625 -28.976562 32.625 -30.75 L 32.78125 -35.59375 C 32.882812 -37 32.9375 -38.582031 32.9375 -40.34375 C 32.726562 -39.664062 31.867188 -36.078125 30.359375 -29.578125 C 28.847656 -23.285156 27.285156 -17.457031 25.671875 -12.09375 C 24.117188 -6.945312 22.847656 -4.375 21.859375 -4.375 C 20.867188 -4.375 20.070312 -4.671875 19.46875 -5.265625 C 18.875 -5.867188 18.578125 -6.691406 18.578125 -7.734375 C 18.578125 -10.015625 17.648438 -14.875 15.796875 -22.3125 C 13.953125 -29.757812 12.273438 -35.847656 10.765625 -40.578125 L 10.296875 -31.765625 C 9.878906 -24.328125 9.59375 -18.132812 9.4375 -13.1875 C 9.332031 -8.40625 9.28125 -5.128906 9.28125 -3.359375 C 9.28125 -2.941406 9.304688 -2.550781 9.359375 -2.1875 L 9.359375 -1.09375 C 9.359375 -0.207031 9.175781 0.453125 8.8125 0.890625 C 8.445312 1.335938 7.773438 1.5625 6.796875 1.5625 C 6.273438 1.5625 5.78125 1.363281 5.3125 0.96875 C 4.84375 0.582031 4.609375 0.15625 4.609375 -0.3125 C 4.609375 -5.613281 5 -13.570312 5.78125 -24.1875 C 6.5625 -34.800781 6.953125 -42.765625 6.953125 -48.078125 C 6.640625 -48.546875 6.484375 -49.039062 6.484375 -49.5625 C 6.484375 -50.1875 6.78125 -50.664062 7.375 -51 C 7.96875 -51.34375 8.679688 -51.515625 9.515625 -51.515625 C 10.191406 -51.515625 11.441406 -49.066406 13.265625 -44.171875 C 15.085938 -39.285156 16.910156 -33.742188 18.734375 -27.546875 C 20.554688 -21.359375 21.726562 -16.882812 22.25 -14.125 C 22.664062 -15.53125 23.003906 -16.832031 23.265625 -18.03125 L 23.71875 -19.90625 C 25.382812 -27.1875 27.050781 -33.765625 28.71875 -39.640625 C 29.707031 -43.234375 30.671875 -46.046875 31.609375 -48.078125 C 32.546875 -50.265625 33.40625 -51.359375 34.1875 -51.359375 C 34.914062 -51.359375 35.578125 -51.160156 36.171875 -50.765625 C 36.773438 -50.378906 37.078125 -49.875 37.078125 -49.25 C 37.078125 -45.5 37.234375 -39.878906 37.546875 -32.390625 C 37.910156 -25.421875 38.09375 -20.007812 38.09375 -16.15625 L 38.015625 -12.015625 L 37.859375 -7.875 C 37.859375 -7.257812 37.9375 -6.328125 38.09375 -5.078125 L 38.328125 -2.34375 C 38.378906 -1.875 38.414062 -1.507812 38.4375 -1.25 C 38.46875 -0.988281 38.484375 -0.832031 38.484375 -0.78125 C 38.742188 -0.101562 38.875 0.390625 38.875 0.703125 C 38.875 1.585938 38.613281 2.367188 38.09375 3.046875 C 37.570312 3.722656 36.945312 4.0625 36.21875 4.0625 Z M 36.21875 4.0625 "/></g></g><g style="fill:#535455;fill-opacity:1;"><g transform="translate(295.893375, 78.865619)"><path style="stroke:none" d="M 13.890625 1.484375 C 12.535156 1.484375 11.285156 1.050781 10.140625 0.1875 C 8.992188 -0.664062 8.0625 -1.820312 7.34375 -3.28125 C 5.832031 -6.445312 4.894531 -9.90625 4.53125 -13.65625 C 4.0625 -17.195312 3.828125 -20.601562 3.828125 -23.875 C 3.828125 -24.5 3.851562 -25.019531 3.90625 -25.4375 L 3.90625 -26.84375 C 3.90625 -27.101562 3.878906 -27.234375 3.828125 -27.234375 L 3.828125 -28.640625 L 3.90625 -34.109375 C 3.957031 -35.773438 4.164062 -38.425781 4.53125 -42.0625 C 4.789062 -44.5625 5.390625 -46.984375 6.328125 -49.328125 C 6.691406 -50.367188 7.15625 -51.160156 7.71875 -51.703125 C 8.289062 -52.253906 8.941406 -52.53125 9.671875 -52.53125 C 11.753906 -52.53125 13.628906 -52.148438 15.296875 -51.390625 C 16.960938 -50.640625 18.367188 -49.585938 19.515625 -48.234375 C 20.554688 -46.929688 21.441406 -45.328125 22.171875 -43.421875 C 22.898438 -41.523438 23.414062 -39.515625 23.71875 -37.390625 C 24.03125 -35.203125 24.1875 -32.882812 24.1875 -30.4375 L 24.1875 -29.8125 C 24.1875 -28.195312 24.210938 -26.738281 24.265625 -25.4375 L 24.34375 -21 C 24.34375 -6.007812 20.859375 1.484375 13.890625 1.484375 Z M 13.578125 -1.796875 C 14.515625 -1.796875 15.375 -2.171875 16.15625 -2.921875 C 16.9375 -3.679688 17.535156 -4.710938 17.953125 -6.015625 C 18.941406 -8.660156 19.539062 -11.519531 19.75 -14.59375 C 20.007812 -17.25 20.140625 -19.539062 20.140625 -21.46875 C 20.140625 -23.800781 19.957031 -26.867188 19.59375 -30.671875 C 19.28125 -34.679688 19.125 -37.671875 19.125 -39.640625 L 19.125 -41.046875 C 19.019531 -43.023438 18.351562 -44.742188 17.125 -46.203125 C 15.90625 -47.660156 14.410156 -48.390625 12.640625 -48.390625 C 10.867188 -48.390625 9.695312 -47.375 9.125 -45.34375 C 8.601562 -43.726562 8.34375 -41.644531 8.34375 -39.09375 C 8.34375 -38.113281 8.367188 -37.285156 8.421875 -36.609375 L 8.421875 -34.5 L 8.265625 -30.90625 C 8.160156 -29.8125 8.109375 -28.613281 8.109375 -27.3125 C 8.109375 -24.507812 8.1875 -21.726562 8.34375 -18.96875 C 8.550781 -15.0625 9.070312 -11.265625 9.90625 -7.578125 C 10.738281 -3.722656 11.960938 -1.796875 13.578125 -1.796875 Z M 13.578125 -1.796875 "/></g></g><g style="fill:#535455;fill-opacity:1;"><g transform="translate(323.985649, 78.865619)"><path style="stroke:none" d="M 8.65625 -0.078125 C 4.132812 -0.078125 1.875 -0.859375 1.875 -2.421875 C 1.875 -3.671875 2.679688 -4.296875 4.296875 -4.296875 L 5.15625 -4.296875 L 5.9375 -4.21875 C 6.351562 -4.21875 6.640625 -4.347656 6.796875 -4.609375 C 6.953125 -4.867188 7.03125 -5.335938 7.03125 -6.015625 C 7.03125 -6.898438 6.976562 -8.273438 6.875 -10.140625 C 6.71875 -11.390625 6.535156 -13.628906 6.328125 -16.859375 C 5.859375 -24.816406 5.625 -30.828125 5.625 -34.890625 C 5.625 -36.347656 5.648438 -37.675781 5.703125 -38.875 L 5.78125 -42.84375 C 5.78125 -44.5625 5.703125 -45.992188 5.546875 -47.140625 C 4.710938 -46.929688 4.113281 -46.828125 3.75 -46.828125 C 2.5 -46.828125 1.875 -47.453125 1.875 -48.703125 C 1.875 -49.328125 2.265625 -49.875 3.046875 -50.34375 C 3.828125 -50.8125 4.816406 -51.148438 6.015625 -51.359375 C 8.085938 -51.773438 9.929688 -51.984375 11.546875 -51.984375 C 12.171875 -51.984375 12.703125 -51.757812 13.140625 -51.3125 C 13.585938 -50.875 13.8125 -50.367188 13.8125 -49.796875 C 13.8125 -49.222656 13.640625 -48.726562 13.296875 -48.3125 C 12.960938 -47.894531 12.535156 -47.6875 12.015625 -47.6875 C 11.703125 -47.6875 11.441406 -47.710938 11.234375 -47.765625 L 10.609375 -47.765625 C 10.085938 -47.765625 9.707031 -47.644531 9.46875 -47.40625 C 9.238281 -47.175781 9.125 -46.75 9.125 -46.125 C 9.125 -41.082031 9.4375 -33.488281 10.0625 -23.34375 C 10.164062 -21.46875 10.375 -18.707031 10.6875 -15.0625 C 10.945312 -12.664062 11.078125 -10.222656 11.078125 -7.734375 L 11.078125 -4.765625 C 11.390625 -4.816406 11.910156 -4.84375 12.640625 -4.84375 C 14.828125 -4.84375 15.921875 -3.929688 15.921875 -2.109375 L 15.921875 -1.640625 L 13.96875 -0.3125 C 13.914062 -0.3125 13.742188 -0.296875 13.453125 -0.265625 C 13.171875 -0.242188 12.640625 -0.234375 11.859375 -0.234375 C 10.191406 -0.128906 9.125 -0.078125 8.65625 -0.078125 Z M 8.65625 -0.078125 "/></g></g><g style="fill:#535455;fill-opacity:1;"><g transform="translate(341.621368, 78.865619)"><path style="stroke:none" d=""/></g></g><g style="fill:#535455;fill-opacity:1;"><g transform="translate(355.90162, 78.865619)"><path style="stroke:none" d="M 8.578125 -11.625 C 8.054688 -11.625 7.566406 -12.273438 7.109375 -13.578125 C 6.640625 -14.929688 6.40625 -16.9375 6.40625 -19.59375 C 6.40625 -20.53125 6.457031 -22.296875 6.5625 -24.890625 C 6.664062 -26.816406 6.71875 -28.953125 6.71875 -31.296875 L 6.40625 -56.890625 C 6.40625 -57.722656 6.738281 -58.4375 7.40625 -59.03125 C 8.082031 -59.632812 8.835938 -59.9375 9.671875 -59.9375 C 10.191406 -59.9375 10.632812 -59.753906 11 -59.390625 C 11.363281 -59.023438 11.546875 -58.554688 11.546875 -57.984375 C 11.546875 -53.410156 11.285156 -47.191406 10.765625 -39.328125 C 10.191406 -30.640625 9.90625 -24.425781 9.90625 -20.6875 C 9.90625 -17.925781 9.863281 -15.929688 9.78125 -14.703125 C 9.707031 -13.484375 9.578125 -12.664062 9.390625 -12.25 C 9.210938 -11.832031 8.941406 -11.625 8.578125 -11.625 Z M 7.1875 1.71875 C 6.5625 1.71875 5.972656 1.429688 5.421875 0.859375 C 4.878906 0.285156 4.609375 -0.414062 4.609375 -1.25 C 4.609375 -2.1875 4.921875 -3.003906 5.546875 -3.703125 C 6.171875 -4.410156 6.921875 -4.765625 7.796875 -4.765625 C 8.734375 -4.765625 9.5 -4.410156 10.09375 -3.703125 C 10.695312 -3.003906 11 -2.109375 11 -1.015625 C 11 0.804688 9.726562 1.71875 7.1875 1.71875 Z M 7.1875 1.71875 "/></g></g></g><mask id="16e7e96857"><g filter="url(#1e51153399)"><rect x="0" width="375" y="0" height="374.999991" style="fill:#000000;fill-opacity:0.69;stroke:none;"/></g></mask></g></g></svg>